<?xml version="1.0" encoding="utf-8"?>
<!-- Generator: Adobe Illustrator 23.0.1, SVG Export Plug-In . SVG Version: 6.00 Build 0)  -->
<svg version="1.1" id="b6aa0c98-1426-4b54-ac59-6dde53be7391"
	 xmlns="http://www.w3.org/2000/svg" xmlns:xlink="http://www.w3.org/1999/xlink" x="0px" y="0px" viewBox="0 0 708.7 708.7"
	 style="enable-background:new 0 0 708.7 708.7;" xml:space="preserve">
<style type="text/css">
	.st0{fill:#494B74;}
</style>
<title>appointments</title>
<path class="st0" d="M209.8,511.7c7-13,16.7-24.3,25.5-36.3c30.8-42.3,61.8-84.4,92.9-126.5c1.5-1.9,2.6-4,4-6.2
	c-2.9-1.6-5.6-0.9-8.1-0.9c-59.6,0-119.1,0-178.5,0.1c-5.1,0-8.6-1.3-11.7-5.3c-8.8-10.8-17.9-21.2-26.5-32.1
	c-3.8-4.8-7.8-7.2-14.2-6.9c-10,0.6-20.1,0-30,0.1c-2.9,0.3-5.9-0.9-7.8-3.1C37.7,273.7,18.8,253.6,2,231.9v-1.5h376.4
	c2.5,2.2,6.3,2.2,8.8,0h8.8c0.1,3.4,2.8,2.8,4.8,2.9c19.3,1.2,38.7,4,57.6,8.5c13.3,2.9,26.4,7.8,39.7,8.8
	c18.7,1.3,37.5,1.5,56.2,0.1c18.9-1,36.8,7,55.7,4.5c5.6-0.7,11.3,0.6,16.8-0.3c14.5-2.2,25.5,4,35.2,13.6c1.6,1.5,3.4,2.8,5,4.2
	c13.5,11.9,28.1,22.4,40.9,35v8.8c-9.2,7.6-19.9,5.4-29.7,2.9c-5.7-1.5-11.1-3.1-17-2.9c-7,0.1-14.2,0-21.2,0
	c-7.5,0-15.1-0.9-22,3.5c-2.2,1.3-5.7,0.9-8.6,0.9c-33.7,0-67.4,0.6-100.9-0.1c-13.6-0.3-23,7.3-33,13.8
	c-28.9,18.2-54.9,40-80.6,62.7c-30.8,27.1-60,55.5-88.8,84.8c-9.4,9.5-18.3,19.5-27.4,29.3L209.8,511.7z M489.8,287
	c0-6.9-0.1-13.6,0-20.5c0.1-3.8-1.5-5.7-5.1-6.7c-25.6-6.7-51.7-11.6-77.9-14.8c-7.5-0.9-13,1-17.3,7.8c-3.2,5.1-7.8,9.4-11.7,14.1
	c-16.1,19.5-32.2,39.1-48.3,58.6c-0.9,1-2.5,2.1-1.8,3.7s2.5,1.2,4,1.2c5.9,0,11.7,0,17.6,0c1.6,0,3.8-0.7,4.7,1
	c1,2.1-0.9,3.7-1.9,5.1c-22,29.9-43.8,59.6-65.8,89.3c-16.5,22.6-33.1,45.1-49.6,67.8c-1.2,1.6-3.8,3.2-2.5,5.6c1,1.9,3.5,1,5.4,1
	c9.5,0.1,19,0,28.6,0.1c3.8,0,6-1.3,8.6-4.1c14.9-16,29.7-32.2,45.7-47.3c20.4-19.2,40.1-39.1,61.2-57.6
	c27.4-23.9,54.5-48.2,86.1-66.2C485.7,315.7,494.8,305.9,489.8,287z M26.4,242.9c11.1,13,21.7,25,31.8,37.3
	c3.8,4.5,8.1,5.9,13.9,5.9c83.8-0.1,167.4-0.4,251.2,0.1c15.5,0.1,28.7-1,36.6-16.3c0.1-0.1,0.3-0.3,0.4-0.6
	c6.6-8.5,14.4-16.1,20.8-26.7L26.4,242.9z M117,298c8.5,10,16,18.6,23,27.5c2.9,3.7,6,4.7,10.5,4.7c48.8-0.1,97.5-0.3,146.3,0.1
	c9.2,0.1,16.3-1.3,21.5-9.7c5-7.8,12.6-13.8,17.3-22.7H117z M532.9,262.5c-8.5,0-17.1,0.1-25.6-0.1c-4.4-0.1-6,1.3-5.9,5.9
	c0.3,11.7,0.3,23.4,0,35.2c-0.1,5.9,2.1,7.5,7.6,7.5c32.7-0.1,65.3-0.1,98-0.1c2.5,0,5.1,0.3,7-1.3c6.4-5.4,14.1-4.2,21.7-4.2
	c9.8,0,19.5,0,29.3,0c5.7,0,11-0.1,16,3.7c1.9,1.5,5,1.6,7.6,1.9c1.9,0.3,4.1-1.3,1.9-2.8c-5.6-4-8.9-10.7-17.6-10.4
	c-21.4,0.6-42.9,0.1-64.4,0.3c-4,0.1-7.8-1.2-10.7-3.8c-8.6-7.9-17.6-15.4-26.2-23.3c-6.2-5.6-12.4-9.5-21.4-8.2
	C544.6,263.3,538.8,262.5,532.9,262.5z"/>
<path class="st0" d="M255.8,467.1l47-0.1v1.1h-47C255.8,467.7,255.8,467.4,255.8,467.1z"/>
<path class="st0" d="M113.9,275.1v1h-1C112.7,275.2,113,274.9,113.9,275.1z"/>
</svg>
