<svg id="Layer_1" data-name="Layer 1" xmlns="http://www.w3.org/2000/svg" viewBox="0 0 979.78 737.15"><defs><style>.cls-1{fill:#4a4d75;}</style></defs><title>ccPayments</title><path class="cls-1" d="M528.78,1.08a85.51,85.51,0,0,0-11.5,3.36c-23.64,9.39-334,162.73-457.5,226-25.4,13-26.81,13.9-34.07,21.18-13.18,13.23-22.5,31.1-25,47.9-1.46,10-.7,29.69,1.5,38.8,1.76,7.26,20.21,45.4,87.45,180.8,51.25,103.2,63,126,71.59,139,10.77,16.29,31.89,29.5,54.49,34.09,9.2,1.87,30.19,1.62,35.3-.41l2.7-1.08-3.59-8.3c-11.78-27.25-11.38-23.9-12.45-103.8-1-75-.26-264.84,1.1-282.6.78-10.1,1.61-14.09,4.81-23.2,7.29-20.7,18.4-37.82,35.33-54.42,15.95-15.64,30.7-24.55,56.4-34.07l11.9-4.41,162.5-.65c89.4-.36,166.21-.92,170.75-1.25,5.6-.41,8.25-1,8.25-1.9,0-1.58-48.37-98.4-61.95-124-10.93-20.6-15.42-26.31-27.65-35.1-8-5.76-21.2-11.91-31.1-14.51C558-.1,538-.85,528.78,1.08Z"/><path class="cls-1" d="M462.78,235.74c-55.1.42-96,1.13-99.5,1.73-25.14,4.28-51.77,25.68-64.53,51.88l-5,10.2v373.6l4.93,10C310.1,706.25,334,727.73,354,732.82c16.51,4.21,24.6,4.33,281.8,4.33,289.4,0,277,.43,297.4-10.27,17-8.88,32-25.93,42.1-47.63l4.5-9.7v-367l-6.5-12.8c-7.56-14.9-13.56-23.2-23.2-32.1-7.81-7.2-21-15-29.3-17.4-10.09-2.87-23.2-3.7-73-4.6-56-1-245.2-1-385,.09Zm440.05,56.71c6.1.57,11,1.64,13.55,2.95,5.08,2.6,11,9.15,13.46,14.85s4.17,15.7,3.76,21.4l-.32,4.5-293.9.25-293.9.25.66-6.2c2.13-19.8,5.74-26.71,18.54-35.41l6.6-4.49,261,.5c145.9.28,265.21.9,270.55,1.4Zm30.95,245.9v117.7l-3.93,6.6c-4.76,8-11.52,14.45-16.77,16-7.88,2.33-67,2.91-301.7,3l-240.8,0-6.2-4.4c-7.1-5-13.2-11.41-14.76-15.4-1.92-4.91-2.76-47.7-2.8-143.4,0-74.7.23-94.87,1.26-95.52,2.54-1.59,50.5-1.91,315-2.09l270.7-.19v117.7Z"/><path class="cls-1" d="M426.38,531.69c-8.3,2.12-19.92,9.26-27.7,17-12.1,12.06-15.9,21.45-15.9,39.25,0,16.7,5.1,29.69,16,40.8,21,21.3,56.57,22.5,78.47,2.64l6-5.44,5.3,4.83c16.56,15.09,48.3,19.24,66,8.64,7.4-4.44,18.25-14.6,22.49-21.07,5.82-8.89,7.21-14.5,7.21-29.2,0-14.9-1.31-20.41-7.2-30.4-10.93-18.51-26.9-27.1-50.4-27.1-15.5,0-24,3.11-35.4,12.94l-6.9,6-4.6-4.08c-5.75-5.09-15.7-10.16-25.2-12.82-8.5-2.39-22.68-3.37-28.2-2Z"/></svg>