<?xml version="1.0" encoding="utf-8"?>
<!-- Generator: Adobe Illustrator 23.0.1, SVG Export Plug-In . SVG Version: 6.00 Build 0)  -->
<svg version="1.1" id="fd7afb84-83e6-4435-96ab-5bf7d1cc7644"
	 xmlns="http://www.w3.org/2000/svg" xmlns:xlink="http://www.w3.org/1999/xlink" x="0px" y="0px" viewBox="0 0 708.7 708.7"
	 style="enable-background:new 0 0 708.7 708.7;" xml:space="preserve">
<style type="text/css">
	.st0{fill:#494B74;}
</style>
<title>Delivery</title>
<path class="st0" d="M301.3,142.9h184.2c14.6,0,18.6,4,18.6,18.8c0,12.9,0.4,25.8-0.1,38.6c-0.3,7.1,1.7,9.7,9.2,9.5
	c21.9-0.5,43.9,0.1,65.8-0.3c10.2-0.2,16.6,3.1,21.5,12.7c13.9,27.6,28.9,54.8,43.4,82.1c1.3,2.6,3.5,4.6,6.3,5.5
	c15.8,5.9,31.5,12.3,47.5,18c8.6,3.1,12.4,8.1,12.3,17.5c-0.3,44.7-0.1,89.5-0.2,134.2c0,17-10.9,28.6-27.9,27.6
	c-15.1-1-23.6,1.8-29.7,18.4c-9.8,26.7-40,41.9-69,39.8c-26.5-1.9-52.1-21.7-60.2-47.9c-2.6-8.3-6.5-10.3-14.7-10.2
	c-72.2,0.3-144.5,0.3-216.7,0.1c-6.8,0-10.5,1-13.1,8.7c-9.9,28.9-30.8,46.2-61.1,49c-30.1,2.7-53-11.1-68.3-37.1
	c-2.4-4-4.6-8.4-5.3-12.9c-1.1-6.5-4.3-8-10.2-7.7c-7.3,0.4-14.6,0.3-21.9,0c-9-0.2-14.4-5.3-14.4-13s5.5-12.6,14.6-12.8
	c9.4-0.2,20,2.6,27.7-1c7.3-3.4,6.8-15.7,11.8-23.1c1.7-2.5,6.1-5,4.5-7.8c-2.1-3.4-7.2-2.1-10.5-1.3c-12.2,2.7-24.3-1.9-36.5,0.4
	c-6.3,1.2-11.5-5.5-11.5-13.5c-0.1-27.7-0.3-55.6,0.2-83.3c0.1-8-2.4-9.8-9.9-9.7c-23.1,0.5-46.2,0.2-69.3,0.2
	c-3.2,0.1-6.4-0.2-9.5-1c-6.6-1.9-9.6-6.3-9.5-12.9c0-6.7,4.7-9.8,10.2-11.5c2.4-0.8,5.2-0.5,7.8-0.5c49.4,0,98.8,0,148.3,0
	c1.5,0,2.9-0.1,4.4,0c7.5,0.5,14.7,6.8,14.6,12.7c-0.1,6.8-6.8,13.1-14.9,13.2c-13.2,0.2-26.3,0.3-39.5,0c-5.8-0.2-8.3,1.2-8.2,7.7
	c0.3,21.9,0.3,43.9,0,65.8c-0.1,6.4,2.4,7.7,8.2,7.7c113.5-0.1,226.9-0.1,340.4,0c6.9,0,8.2-2.5,8.1-8.7
	c-0.2-79-0.1-157.9,0.2-236.9c0-8.3-3-9.4-10.2-9.4c-97.7,0.2-195.4,0.2-293,0.1c-15.5,0-31,0.2-46.5-0.1c-5.2-0.1-7.3,1.5-7.2,7
	c0.3,18.7,0.3,37.4,0,56.1c-0.1,5.7,1.7,7.7,7.5,7.6c13.2-0.3,26.3-0.2,39.5-0.1c9.5,0,16.3,5.4,15.6,12.7
	c-0.7,6.3-4.6,12.1-15.3,12.1c-19.8-0.1-39.7,0-59.5,0.6c-14.7,0.4-29.7-0.4-44.6-0.8c-7.6-0.2-12.3-3.5-12.9-11.3
	c-0.5-6.7,5-12.8,12.4-13.1c8.5-0.4,17-0.4,25.4,0c5.8,0.3,7.6-1.7,7.5-7.5c-0.3-24.3-0.1-48.5-0.1-72.8c0-11.8,4.5-16.2,16.5-16.3
	C176.1,142.9,238.7,142.9,301.3,142.9z M504.2,328.8c0,28.9,0.1,57.9-0.1,86.8c0,5.9,1.4,8.2,7.7,8.1c55.3-0.2,110.5-0.2,165.8,0
	c5.7,0,7.6-1.6,7.6-7.4c-0.3-19.6-0.3-39.2,0-58.8c0.1-5.7-1.9-8.1-7.2-10c-14.3-5.1-28.3-10.9-42.4-16.4c-5.4-2.1-9.1-5.7-11.8-11
	c-13.7-26.2-27.8-52-41.4-78.2c-2.5-4.9-5.4-6.6-10.8-6.5c-19.6,0.3-39.2,0.5-58.8-0.1c-7.4-0.2-8.7,2.6-8.6,9.1
	C504.4,272.6,504.2,300.7,504.2,328.8z M400.6,448.2h-16.6c-36.9,0-73.7,0-110.6,0c-2.2,0-5.1-1.1-6.6,1c-1.7,2.5,1.4,4.2,2.5,5.9
	c4.4,6.7,8.3,13.6,9.9,21.3c1,5.2,3.5,6.6,8.3,6.6c75.2-0.1,150.3-0.1,225.5,0.1c5.3,0,7.3-2.1,8.4-6.6c1.9-7.4,5-14.4,9.2-20.7
	c1.2-1.9,3.7-3.9,2.6-6.1c-1.4-2.9-4.8-1.5-7.1-1.5C484.2,448.2,442.4,448.2,400.6,448.2z M256.8,494.5c0-25.4-19.4-43.8-44.8-45
	c-27.1-1.3-47,23.5-46.5,45.3c0.6,25.1,20.6,46.6,45.5,46C236.7,540.2,257.4,520.5,256.8,494.5L256.8,494.5z M588.7,449.7
	c-27.2,0-45.3,19.7-45.2,49.1c0.1,21.5,23.4,43,46.9,42.1c24.6-1,44.9-22,44.1-46.4C633.6,468.3,615.2,449.6,588.7,449.7
	L588.7,449.7z M641.8,448.2c8.4,10.4,13.4,19.7,15.7,30.5c0.7,3.4,3.2,4.7,6.6,4.3c6.8-0.8,13.9,1.9,20.3-1.9
	c0.6-0.4,0.6-2.2,0.6-3.3c0-8.2,0-16.4,0-24.6c0-3.1-1-5-4.5-5C668.4,448.3,656.2,448.2,641.8,448.2L641.8,448.2z"/>
<path class="st0" d="M504.2,328.8c0-28.1,0.2-56.1-0.1-84.2c-0.1-6.5,1.2-9.3,8.6-9.1c19.6,0.5,39.2,0.4,58.8,0.1
	c5.4-0.1,8.3,1.6,10.8,6.5c13.6,26.2,27.7,52.1,41.4,78.2c2.7,5.3,6.3,8.9,11.8,11c14.2,5.5,28.2,11.3,42.4,16.4
	c5.3,1.9,7.3,4.3,7.2,10c-0.3,19.6-0.3,39.2,0,58.8c0.1,5.8-1.9,7.5-7.6,7.4c-55.3-0.2-110.5-0.2-165.8,0c-6.4,0-7.8-2.3-7.7-8.1
	C504.3,386.6,504.2,357.7,504.2,328.8z"/>
<path class="st0" d="M400.6,448.2c41.8,0,83.7,0,125.5,0.1c2.4,0,5.8-1.4,7.1,1.5c1.1,2.3-1.3,4.2-2.6,6.1
	c-4.2,6.3-7.3,13.4-9.2,20.7c-1.1,4.5-3.2,6.6-8.4,6.6c-75.2-0.2-150.3-0.2-225.5-0.1c-4.9,0-7.3-1.4-8.3-6.6
	c-1.6-7.8-5.5-14.7-9.9-21.3c-1.1-1.8-4.2-3.4-2.5-5.9c1.4-2.2,4.3-1,6.6-1c36.9-0.1,73.7-0.1,110.6,0L400.6,448.2z"/>
<path class="st0" d="M256.8,494.5c0.6,26-20.1,45.8-45.8,46.3c-24.8,0.6-44.9-21-45.5-46c-0.5-21.8,19.4-46.6,46.5-45.3
	C237.3,450.6,256.8,469.1,256.8,494.5z"/>
<path class="st0" d="M588.7,449.7c26.5,0,44.9,18.7,45.8,44.8c0.8,24.4-19.5,45.4-44.1,46.4c-23.4,0.9-46.8-20.6-46.9-42.1
	C543.3,469.4,561.5,449.7,588.7,449.7z"/>
<path class="st0" d="M641.8,448.2c14.4,0,26.6,0,38.8,0c3.5,0,4.5,1.9,4.5,5c-0.1,8.2,0,16.4,0,24.6c0,1.1,0.1,3-0.6,3.3
	c-6.4,3.9-13.6,1.1-20.3,1.9c-3.4,0.4-5.8-1-6.6-4.3C655.2,468,650.2,458.6,641.8,448.2z"/>
</svg>
