<?xml version="1.0" encoding="utf-8"?>
<!-- Generator: Adobe Illustrator 23.0.1, SVG Export Plug-In . SVG Version: 6.00 Build 0)  -->
<svg version="1.1" id="bf36a44c-7072-4995-a442-8218c8cd93c4"
	 xmlns="http://www.w3.org/2000/svg" xmlns:xlink="http://www.w3.org/1999/xlink" x="0px" y="0px" viewBox="0 0 708.7 708.7"
	 style="enable-background:new 0 0 708.7 708.7;" xml:space="preserve">
<style type="text/css">
	.st0{fill:#494B74;}
</style>
<title>Designer</title>
<path class="st0" d="M493.8,653.1h-283c0-8.2,0-16.3,0-24.5c0-2.4,0-2.4,2.4-2.4h75c2.6,0,2.6,0,2.6-2.6c0-33,0-66.2,0-99.2
	c0-2.7,0-2.7-2.7-2.7H3.4c-3.1,0-2.8,0.3-2.8-2.8V75.6c0-0.6,0-1,0-1.6c0-1,0.4-1.3,1.3-1.4l15.3-1.4L34,69.8
	c5.8-0.6,11.8-1.1,17.6-1.6c5-0.4,9.9-0.7,14.9-1.1c6.7-0.6,13.3-1.1,20-1.7c5.7-0.4,11.3-0.7,16.9-1.1c9.5-0.7,18.9-1.3,28.2-2
	c7.8-0.6,15.4-1,23.2-1.4c8.9-0.4,18-1,26.9-1.4c7.5-0.4,15.2-0.7,22.7-1c9.6-0.4,19.3-0.7,28.9-1c6.8-0.1,13.7-0.4,20.6-0.7
	c10.2-0.3,20.3-0.4,30.3-0.6c6.2-0.1,12.3,0,18.6-0.3c7.8-0.4,15.7-0.3,23.5-0.3c20-0.1,39.8-0.4,59.8,0.3c7.7,0.3,15.2,0,22.8,0.3
	c11.8,0.3,23.4,0.4,35.1,0.7c8.1,0.3,16.3,0.4,24.4,0.7c6.8,0.3,13.7,0.4,20.6,0.7c7.7,0.3,15.2,0.4,22.7,0.9
	c2.8,0.1,5.7,0.1,8.5,0.3c8.5,0.4,17,0.9,25.7,1.3c4.8,0.3,9.8,0.4,14.6,0.7c7.2,0.4,14.3,0.9,21.5,1.3c4,0.3,8.1,0.4,12,0.7
	c6.1,0.4,12.2,0.9,18.3,1.3c3.7,0.3,7.4,0.4,11.1,0.7c5.5,0.4,10.9,0.9,16.4,1.3c4.8,0.4,9.6,0.7,14.3,1.1c4.7,0.4,9.6,0.9,14.6,1.3
	c4.4,0.4,8.6,0.7,13,1.1c5.7,0.6,11.3,1.1,17,1.6c3.1,0.3,6.2,0.7,9.5,1v449h-2.7H416.4c-2.4,0-2.4,0-2.4,2.4v99.6
	c0,2.3,0,2.3,2.3,2.3h74.4c0.6,0,1,0,1.6,0c0.9,0,1.4,0.3,1.4,1.3c0,1.7,0.1,3.3,0.1,5C493.8,639.4,493.8,646.3,493.8,653.1z
	 M354.5,503.2h334.3c2.6,0,2.6,0,2.6-2.6V92.4c0-0.4,0-0.9,0-1.4c0.1-1.1-0.4-1.6-1.4-1.6c-7.8-0.7-15.4-1.4-23.1-2
	c-8.4-0.7-16.7-1.4-25.1-2c-9.2-0.7-18.3-1.3-27.5-1.8c-8.4-0.6-16.9-1.1-25.2-1.7c-7.5-0.4-15-1-22.5-1.4c-8.4-0.4-16.7-1-25.1-1.4
	c-7.1-0.4-14.2-0.7-21.3-1c-8.1-0.4-16.3-0.7-24.4-1c-6.2-0.3-12.5-0.4-18.7-0.7c-7.4-0.3-14.9-0.4-22.3-0.7
	c-9.6-0.3-19.4-0.4-29.1-0.7c-6.7-0.1-13.3-0.1-20-0.3c-12.8-0.4-25.7-0.1-38.4-0.4c-14.6-0.3-29.2,0-43.8,0.3
	c-7.9,0.1-15.9,0.1-23.8,0.3c-12,0.3-24,0.4-36,0.7c-8.1,0.3-16.2,0.4-24.2,0.7c-6.9,0.3-13.9,0.4-20.8,0.7
	c-7.5,0.3-15,0.4-22.4,0.9c-2.8,0.1-5.8,0.1-8.6,0.3L162,79.4c-4.8,0.3-9.6,0.4-14.6,0.7c-7.2,0.4-14.3,0.9-21.5,1.3
	c-4.1,0.3-8.1,0.4-12.2,0.7c-6.2,0.4-12.5,0.9-18.9,1.3c-3.7,0.3-7.4,0.6-11.1,0.7c-5.1,0.4-10.2,0.9-15.3,1.3s-10.1,0.7-15,1.1
	c-6,0.6-11.9,1.1-17.9,1.6c-5.7,0.6-11.3,1-17,1.4c-0.9,0-1.4,0.4-1.3,1.4c0,0.6,0,1.3,0,1.8c0,135.8,0,271.6,0,407.3
	c0,3.5-0.4,3.1,3.3,3.1L354.5,503.2z"/>
<path class="st0" d="M89.4,218.9c-0.1-3.7,0.1-7.5,0.3-11.2c0.1-0.1,0.3-0.3,0.1-0.6l-0.1-0.1c0.7-7.7,2.6-15.2,5.5-22.1
	c5.8-13.3,15.2-23.8,27.1-32c8.4-5.8,18.1-9.2,28.2-10.1c10.2-0.9,20.6-1,30.6,1.7c10.5,2.7,20.1,8.2,27.8,15.9
	c2.3,2.3,4.4,4.4,6.5,6.7c0.9,0.9,1.3,1,2.1,0c5.8-7.7,12.8-14.5,20.6-20.1c6.2-4.4,13.2-7.8,20.6-10.1c9.9-3.1,20-3.7,30.2-3.4
	c9.8,0.3,19.4,2.4,28.3,6.4c7.5,3.3,14.3,7.8,20.3,13.5c5.1,5,10.2,9.8,14.2,15.9c1.3,2,2.4,4,3.7,6c0.9,1.4,1.1,1.4,1.8,0.1
	c4.7-7.8,10.5-14.9,17.3-20.8c9.6-8.8,21.3-14.9,34-17.7c9.4-2.1,18.9-2.1,28.2-1.4c15.4,1,30.2,6.9,42,17.1
	c4.1,3.5,8.1,7.5,11.6,11.6c1,1.1,1.6,0.6,2.3-0.1c4.3-4.4,8.9-8.4,14.2-11.6c7.9-5,16.9-8.1,26.2-9.1c10.1-1,20.1-1.1,30,1.3
	c10.8,2.7,20.8,8.2,28.8,16c7.1,6.8,13.3,14.3,17.4,23.5c3.1,6.9,5.1,14.3,5.8,21.8c0.9,7.4,0.4,14.7,0.7,22.1
	c0.3,11.2,0.1,22.4,0.4,33.4c0.3,9.4,0.1,18.7,0.3,28.1c0,2.6,0.1,5.2,0.3,7.8c0,1-0.4,2-1.1,2.7c-5.4,6.1-12.6,9.4-20,12.2
	c-9.1,3.4-18.6,5.5-28.2,6.7c-11.8,1.4-23.7,1.1-35.4,0.9c-10.3-0.3-20.7-1.3-30.9-3.1c-3.1-0.6-6.1-1.3-9.1-2
	c-1.6-0.4-2.4-0.3-2.6,1.6c-0.1,2.7-1.4,5.2-3.5,6.8c-0.6,0.6-1.3,0.9-2.1,1.1c-7.1,1.6-14.2,2.7-21.4,3.3
	c-9.8,0.6-19.7,0.7-29.6,0.1c-8.4-0.4-16.7-1.4-24.9-3.1c-11.5-2.1-22.8-5.2-33.9-9.4c-5.4-2-10.6-4.3-15.7-6.9
	c-1-0.6-2.3-0.6-3.4,0c-12.2,5.7-25.1,9.8-38.1,12.5c-10.3,2.1-20.7,3.5-31.3,4.1c-10.1,0.6-20,0.4-30-0.1
	c-12.3-0.9-24.5-3.1-36.3-6.8c-1.4-0.7-2.6-1.6-3.5-2.8c-0.6-0.6-1.4-0.9-2.1-0.6c-7.7,1.8-15.4,3.3-23.2,4.1
	c-13.7,1.4-27.6,1.8-41.4,1.3c-12.9-0.3-25.7-2.6-37.8-6.8c-6.7-2.4-13-5.1-18.6-9.8c-1.3-1-2.4-2.3-3.5-3.4
	c-0.4-0.4-0.6-0.9-0.6-1.4c0-6.5,0-12.9,0-19.4c0-0.4,0.1-0.9,0.1-1.3c0.6-2.3,0.6-4.8,0-7.1c0.1-7.1,0.1-14.3,0.3-21.4
	c0.6-2.6,0.6-5.2,0.1-7.8c0-4.8,0.1-9.8,0.3-14.6C89.8,223.7,89.8,221.1,89.4,218.9z M592.4,240.3c0.6-2.3,0.6-4.8,0-7.1
	c-0.1-4.3-0.3-8.4-0.3-12.6c0-5.7-0.7-11.3-2.1-16.9c-2.8-9.9-6.9-19.3-15.2-26.1c-12.2-10.1-26.1-14.7-42-10.3
	c-11.5,3.3-21.3,8.9-27.9,19.1c-0.6,0.9-0.7,1.8-0.3,2.8c1.1,3.7,2.1,7.4,2.7,11.2c1.1,6.8,0.6,13.6,0.7,20.4c0,3.4-0.3,6.9-1,10.3
	c-1.6,7.9-3.4,15.9-5,24c-2.3,10.5-4.4,21-6.7,31.6c-0.6,2.8-0.6,2.7,2.3,3.5c10.2,2.7,20.6,4.4,31,5c0.3,0.4,0.9,0.4,1.3,0l0,0
	l3.4,0.3c1,0.6,2.3,0.6,3.4,0.1c4.4,0.3,8.8,0.4,13.2,0.1c0.7,0.3,1.4,0.1,2.1-0.3c1.3,0,2.6,0,3.7-0.3c0.1,0.3,0.6,0.3,0.9,0.1
	l0.1-0.1c7.7-0.7,15.2-2.1,22.4-4.4c4.7-1.3,9.1-3.1,13.3-5.4c0.9-0.4,0.7-1.1,0.3-1.7c-0.1-4.8-0.1-9.8-0.3-14.6
	c0.1-0.3,0.1-0.6,0.3-0.9c0-4.1,0-8.2,0-12.3c0.1-0.4-0.1-0.9-0.6-1.1C592.6,249.9,592.4,245.1,592.4,240.3L592.4,240.3z
	 M175.2,295.3c6.5-0.4,12.9-1.3,19.4-2.4c4.5-0.9,9.1-2,13.6-3.1c0.9-0.3,1.8-0.3,1.8-1.6c0-4.1,0.3-8.4-0.1-12.5
	c-0.9-8.6-2-17.1-3-25.8c-1.1-9.6-2.7-19.3-3.4-28.9c-0.7-8.2-0.3-16.4,1.3-24.5c0.1-0.7,0-1.4-0.3-2c-3.7-7.5-8.2-14.3-15.3-19.1
	c-8.1-5.8-17.7-9.1-27.6-9.6c-6.5-0.1-13,1.3-19,4.1c-8.6,3.5-16,9.8-20.8,17.7c-6,10.1-9.1,21.7-9.1,33.4c-0.1,9.1,0,18.3-0.3,27.4
	c-0.3,10.6,0,21.3-0.4,31.9c-0.1,5.7,0,5.7,5.4,7.8c9.9,3.8,20.4,6.4,30.9,7.2c0.1,0.3,0.6,0.4,0.9,0.1c0,0,0.1,0,0.1-0.1l3.4,0.3
	c0.6,0.4,1.4,0.4,2.1,0.3c4,0.1,8.1,0.1,12.2,0c1.3,0.3,2.6,0.1,3.8-0.3l3.4-0.3c0.3,0.3,0.6,0.3,0.9,0.1
	C175,295.4,175,295.4,175.2,295.3L175.2,295.3z M445.7,304.2c7.1-0.1,14-0.7,21-1.7c0.7,0,1.1-0.6,1.3-1.1
	c2.7-12.8,5.4-25.5,8.1-38.1c2.3-10.6,4.5-21.1,6.7-31.7c1-5,2.4-9.8,2.6-14.9c0-7.4-1.4-14.6-4.3-21.4c-2.7-7.1-6.7-13.6-11.9-19.3
	c-5.4-5.8-12-10.2-19.4-13.2c-10.2-4.3-20.7-6.5-31.9-4c-10.6,2.3-20.7,7.2-28.9,14.5c-8.1,7.4-13.9,17-16.4,27.6
	c-2.4,9.2-4.1,18.6-6.2,27.9c-1.3,5.8-2.4,11.5-3.7,17.3c-2.1,10.2-4.4,20.4-6.5,30.8c-0.3,0.9,0.1,1.8,1,2.3c2.6,1.4,5,3,7.5,4.3
	C389.7,296.4,417.5,303.5,445.7,304.2L445.7,304.2z M271.8,301.5c2,0,4-0.3,6-0.3c7.2-0.3,14.6-1,21.7-2.3
	c10.1-1.6,20.1-4.1,29.8-7.5c1.3-0.4,3.1-0.6,1.4-2.6c0-0.1,0-0.3,0-0.3c-0.1-2.6-0.1-5.1,0.1-7.7c1.6-7.7,3.3-15.4,5-23.1
	c2.1-9.8,4.3-19.6,6.2-29.3c0.6-1.8,0.9-3.7,0.9-5.7c-0.4-3.1-1-6.1-1.3-9.2c-0.6-8.4-2.7-16.4-6.2-24.1c-2.7-6-6.5-11.5-11.1-16.2
	c-3.7-3.5-7.8-6.5-12.3-8.8c-8.5-5.1-18.1-7.8-28.1-8.1c-7.9,0-15.7,1.8-22.8,5.2c-7.4,3.3-14.3,7.4-19.4,13.6
	c-10.9,13.2-17.1,28.1-14.9,45.8c1,7.9,1.8,15.9,2.8,23.8s2,15.9,3.1,23.8c1.1,8.9,2.3,17.7,3.3,26.6c0,1,0.9,1.8,1.8,2
	C248.9,299.8,260.3,301.3,271.8,301.5z"/>
<path class="st0" d="M352,448.3H93.2c-3.1,0.1-5.8-2.4-6-5.5c0-0.1,0-0.3,0-0.4v-93.3c0.1-3,2.6-5.4,5.5-5.5H611
	c3.1,0.3,5.5,2.7,5.7,5.8v93.3c0,3.1-2.6,5.7-5.7,5.7L352,448.3z M166.9,367.1c0.1-1-0.6-0.6-1-0.6c-1.6,0-3.1,0-4.5,0
	c-1.4,0-2,0.6-2,2c0,10.5,0,20.8,0,31.3c-1.4,2.4-4.3,3.8-7.1,3.4c-3.4-0.3-6.9,0-10.3,0c-2.8-0.3-5-2.6-5.2-5.2
	c0-9.8,0-19.6,0-29.2c0-1.4-0.4-1.8-1.8-1.8c-7.4,0-14.7,0-22.1,0c-2.3,0-2.3,0-2.3,2.3V422c0,3.4-0.3,3,3,3h473.7
	c1.7-0.1,3.3,0,5,0.1c1.1,0.3,1.7-0.1,1.7-1.6c0-18.9,0-37.7,0-56.4c0-0.7-0.6-0.7-1.1-0.7h-21.5c-0.4,0-1-0.1-0.9,0.6
	c0,10.2,0,20.4,0,30.6c-0.3,2.8-2.6,5.1-5.4,5.4h-12.5c-2.8-0.3-5.1-2.6-5.4-5.4V367c-0.9-0.9-4.3-1-5.1-0.1v0.1v12.5
	c-0.3,2.8-2.6,5-5.4,5.2c-4.3,0-8.6,0.1-12.9-0.1c-2.1-0.1-5-3-5-5.1c0-4.1,0-8.2,0-12.2c-0.1-0.9-0.7-0.7-1.3-0.7
	c-1.4,0-3,0.1-4.4,0c-1.4-0.1-2.1,0.4-2.1,2c0.1,7.4,0,14.7,0,22.1c-0.1,0.6,0,1.3,0.3,1.8c0,2,0,4,0,6s-3,5-4.8,5
	c-4.5,0-9.1,0-13.6,0c-0.7,0-1.4-0.3-2-0.9c-0.9-0.9-1.6-1.7-2.4-2.6c0-9.9,0-19.8,0-29.6c0-4.1,0.7-3.5-3.7-3.7
	c-0.6,0-1.4-0.3-1.6,0.7c0,3.8,0,7.7,0,11.5c0,3.3-2.7,6-6,6.1h-12c-2.7-0.4-4.8-2.6-5.1-5.2v-12.3c0.1-0.3,0-0.6-0.3-0.6
	c-2.1,0-4.3,0-6.4,0c-0.4,0-0.7,0.3-0.9,0.7v0.1c-0.1,1.1-0.1,2.4,0.3,3.5v5.5c-0.3,0.6-0.4,1.3-0.3,2c0,7.2,0,14.3,0,21.4
	c-1.4,2.4-4.3,3.8-7.1,3.4c-3.4-0.3-6.9,0-10.3,0c-2.8-0.3-5-2.6-5.4-5.2c0-9.2,0-18.4,0-27.8c0-3.8,0.7-3.3-3.5-3.4
	c-1.1,0-1.6,0.4-1.6,1.6c0,3.8,0,7.7,0,11.3c0,2-2.8,5-5,5h-14.5c-0.4-0.9-1-1.7-1.8-2.1c-1.1-1-1.8-2.6-1.7-4c0.1-3.5,0-7.1,0-10.5
	c0-1-0.3-1.6-1.4-1.6c-1.7,0-3.4,0-5.1,0c-0.4,0-1.1-0.3-1,0.6c0,10.3,0,20.7,0,31c0,2-3,5-5,5h-13.5c-2.6-0.4-4.5-2.6-5-5.1
	c0-10.3,0-20.7,0-30.9c0.1-0.4,0-0.6-0.4-0.6c-1.3,0-2.6,0-3.8,0c-0.4,0-0.7,0.3-0.7,0.6c0,0,0,0,0,0.1c0,3.5-0.1,6.9,0,10.5
	c0.3,2.1-0.7,4.3-2.3,5.7c-1,1-2.3,1.6-3.7,1.6c-4-0.1-8.1,0-12,0c-2.7-0.4-4.7-2.4-5.1-5.1c0-4.1,0-8.4,0-12.6
	c0.1-0.1,0.1-0.6-0.1-0.6c-2.3-0.3-4.5-0.3-6.7,0c-0.1,0-0.3,0.3-0.3,0.6v30.9c-0.4,2.7-2.6,4.7-5.1,5.1c-4.4,0-8.6,0-13,0
	c-0.9,0-1.7-0.4-2.4-1c-2-1.4-3.1-3.8-2.6-6.4c0.1-1.1,0.1-2.4,0-3.5c0.6-0.6,0.3-1.3,0.3-2c0-6.5,0-13.2,0-19.7
	c0-4.8,1-4.1-4.4-4.1c-1,0-1.4,0.4-1.4,1.4c0,4.4,0,8.8,0.1,13.3c-1.6,2.3-3.4,4.1-6.5,3.7c-2.7-0.3-5.2-0.3-7.9,0
	c-3.1,0.4-6.4-1-8.1-3.7c0-4.4,0-8.8,0-13.2c0-0.9-0.1-1.4-1.1-1.4h-5.5c-0.4,0-0.9,0-0.6,0.6c0,10.3,0,20.7,0,31c0,2.1-3,5-5.1,5
	h-12.8c-2.8-0.3-5.1-2.6-5.4-5.5c0-10.2,0-20.4,0-30.6c-1-1.4-2.4-0.4-3.7-0.7c-1.3-0.3-1.7,0.4-1.7,1.7c0,4.4,0,8.8,0,13.2
	c-0.1,0.3-0.3,0.4-0.6,0.7c-1.1,0.9-1.8,2.7-3.5,2.7c-4.5,0.1-9.1,0.1-13.6,0c-2.4,0-5.2-3.1-5.2-5.5c0-4,0-8.1,0-12
	c0-0.4-0.3-0.7-0.7-0.7c0,0,0,0-0.1,0c-2,0-4,0-5.8,0c-0.4,0-0.7,0.1-0.6,0.6c0,8.9,0,17.7,0.1,26.6c0,3.3-0.1,6.2-3,8.5
	c-0.6,0.6-1.4,0.9-2.1,0.9c-4.4,0-8.8,0-13,0c-2.7-0.4-4.7-2.4-5.1-5.1c0-10.3,0-20.7,0-30.9c0.1-0.4-0.1-0.6-0.4-0.6
	c-1.3,0-2.6,0-4,0c-0.4,0-0.7,0.1-0.6,0.6c0,4.1,0.3,8.2-0.1,12.2c-0.4,3.1-3.1,5.4-6.2,5.5h-12c-2.7-0.4-4.7-2.4-5.1-5.1
	C166.9,375.5,166.9,371.4,166.9,367.1z"/>
<path class="st0" d="M89,240.5c0.6,2.6,0.4,5.2-0.1,7.8C88.4,245.8,88.4,243.1,89,240.5z"/>
<path class="st0" d="M89.4,218.9c0.6,2.3,0.6,4.8,0,7.1C88.8,223.5,88.8,221.1,89.4,218.9z"/>
<path class="st0" d="M88.7,269.9c0.6,2.3,0.6,4.8,0,7.1C88.1,274.6,88.1,272.2,88.7,269.9z"/>
<path class="st0" d="M89.7,207c0.1,0.1,0.3,0.3,0.1,0.6l-0.1,0.1C89.4,207.5,89.4,207.2,89.7,207C89.6,207,89.6,207,89.7,207z"/>
<path class="st0" d="M592.8,269.2c-0.1-0.3-0.3-0.6-0.4-0.9c0-4.5,0-8.9,0-13.5c0.4,0.3,0.6,0.7,0.6,1.1c0,4.1,0,8.2,0,12.3
	C593,268.6,593,268.9,592.8,269.2z"/>
<path class="st0" d="M592.4,240.3c-0.4-2.3-0.4-4.8,0-7.1C593,235.4,593,237.9,592.4,240.3z"/>
<path class="st0" d="M166.8,296c1.1-1,2.6-0.6,3.8-0.3C169.3,296.1,168.1,296.2,166.8,296z"/>
<path class="st0" d="M533.6,295.7c1.1-0.4,2.3-0.4,3.4,0.1C535.9,296.2,534.6,296.1,533.6,295.7z"/>
<path class="st0" d="M152.6,295.7c0.7-0.4,1.4-0.6,2.1,0.3C154,296.1,153.2,296.1,152.6,295.7z"/>
<path class="st0" d="M550.2,296c0.6-0.9,1.3-0.6,2.1-0.3C551.6,296.1,550.9,296.1,550.2,296z"/>
<path class="st0" d="M592.8,285.5c-0.1-0.6,0-1.1,0.3-1.7C593.6,284.5,593.7,285,592.8,285.5z"/>
<path class="st0" d="M528.8,295.3c0.3-0.4,0.9-0.4,1.3,0l0,0C529.9,295.7,529.2,295.7,528.8,295.3
	C528.9,295.4,528.9,295.4,528.8,295.3z"/>
<path class="st0" d="M556,295.4c0.3-0.3,0.6-0.3,0.9-0.1c0,0,0.1,0,0.1,0.1c-0.1,0.3-0.6,0.3-0.9,0.1
	C556.1,295.5,556,295.4,556,295.4z"/>
<path class="st0" d="M174,295.4c0.1-0.3,0.6-0.3,0.9-0.1l0.1,0.1C174.9,295.7,174.5,295.7,174,295.4
	C174.2,295.5,174,295.4,174,295.4z"/>
<path class="st0" d="M148.2,295.3c0.3-0.3,0.6-0.3,0.9-0.1l0.1,0.1C148.9,295.7,148.5,295.7,148.2,295.3
	C148.2,295.4,148.2,295.4,148.2,295.3z"/>
<path class="st0" d="M312.5,392.3c-0.3-0.6-0.4-1.3-0.3-2c0-7.1-0.1-14.2,0-21.3c0-2-1-2-2.4-2c-1.4,0-2.3,0.3-2.1,2.1
	c0.1,3.4,0,6.8,0,10.2c0,0.6,0.1,1.4-0.6,1.8c0-4.4,0-8.8-0.1-13.3c0-1,0.3-1.4,1.4-1.4c5.4,0.1,4.4-0.7,4.4,4.1
	c0.1,6.5,0,13.2,0,19.7C312.8,391.1,312.9,391.8,312.5,392.3z"/>
<path class="st0" d="M166.9,367.1c-1.6,0-3.3,0.1-4.7,0c-1.8-0.1-2.1,0.6-2.1,2.3c0,9.5,0,18.9,0,28.3c0,0.7,0.3,1.6-0.7,2.1
	c0-10.5,0-20.8,0-31.3c0-1.6,0.4-2.1,2-2c1.6,0.1,3.1,0,4.5,0C166.4,366.5,167.1,366.1,166.9,367.1z"/>
<path class="st0" d="M488.7,399.7c-0.9-0.6-0.7-1.4-0.7-2.1c0-9.5,0-18.9,0-28.2c0-2.3,0-2.3-2.4-2.3c-0.9,0-1.6,0-2.4,0.1
	c0.1-1,1-0.7,1.6-0.7c4.4,0,3.7-0.6,3.7,3.7C488.7,380,488.7,389.9,488.7,399.7z"/>
<path class="st0" d="M518.9,367.3c-1.7,0-3.5,0-5.2-0.1c-1.4-0.1-1.8,0.4-1.8,1.8c0,7.1,0,14.3,0,21.4c0.1,0.7,0,1.4-0.3,2
	c-0.3-0.6-0.4-1.1-0.3-1.8c0-7.4,0-14.7,0-22.1c0-1.6,0.6-2.1,2.1-2c1.6,0.1,3,0,4.4,0C518.2,366.5,518.7,366.4,518.9,367.3z"/>
<path class="st0" d="M405.3,384.7c-2.4-0.9-4-3.1-4.1-5.7c0-3.4,0-6.9,0-10.3c0-1.3-0.4-1.7-1.7-1.7c-1.7,0-3.5,0-5.2,0
	c-0.1-1,0.7-0.6,1-0.6c1.7,0,3.4,0,5.1,0c1.1,0,1.4,0.6,1.4,1.6c0,3.5,0,7.1,0,10.5c-0.1,1.6,0.4,3.1,1.7,4
	C404.3,383.1,405.1,383.8,405.3,384.7z"/>
<path class="st0" d="M593.7,367.3l-23.4-0.1c-0.1-0.9,0.4-0.6,0.9-0.6h21.5C593.1,366.4,593.7,366.4,593.7,367.3z"/>
<path class="st0" d="M453,376.3c0.4,0.4,0.3,1,0.4,1.6c0,6.7,0,13.3,0,20c0,0.7,0.1,1.4-0.7,1.8c0-7.1,0-14.3,0-21.4
	C452.5,377.6,452.7,376.9,453,376.3z"/>
<path class="st0" d="M284.6,381.1c-0.9-0.4-0.6-1.1-0.6-1.8c0-3.4-0.1-6.8,0-10.2c0-1.6-0.4-2.3-2-2.1c-1.6,0.1-3.3,0-5,0
	c-0.3-0.7,0.3-0.6,0.6-0.6h5.8c1,0,1.1,0.7,1.1,1.4C284.6,372.4,284.6,376.8,284.6,381.1z"/>
<path class="st0" d="M253.8,367.1c-4.7-0.3-4.7-0.3-4.7,4.4c0,2.7,0,5.4,0,7.9c0,0.7,0.1,1.4-0.7,1.8c0-4.4,0-8.8,0-13.2
	c0-1.3,0.4-2,1.7-1.7C251.4,366.7,253,365.7,253.8,367.1z"/>
<path class="st0" d="M460.2,367.1c-1.7,0-3.4,0-5.1,0c-1.4-0.1-2,0.4-1.8,1.8c0.1,0.7,0,1.4-0.3,2c-0.3-1.1-0.4-2.3-0.3-3.5
	c-0.1-0.4,0.1-0.9,0.6-0.9h0.1c2.1,0,4.3,0,6.4,0C460.2,366.5,460.3,366.8,460.2,367.1z"/>
<path class="st0" d="M225.6,367.1l-7.2-0.1c-0.1-0.6,0.1-0.6,0.6-0.6c2,0,4,0,5.8,0C225.3,366.4,225.6,366.7,225.6,367.1
	L225.6,367.1z"/>
<path class="st0" d="M342.8,367.1h-7.1c0.1-0.1,0.1-0.6,0.3-0.6c2.3-0.3,4.5-0.3,6.7,0C343,366.5,343,366.8,342.8,367.1z"/>
<path class="st0" d="M195.1,367.1h-5c-0.1-0.6,0.1-0.6,0.6-0.6c1.3,0,2.6,0,4,0C195,366.5,195.4,366.7,195.1,367.1z"/>
<path class="st0" d="M371,367.1l-5.1,0.1c0-0.4,0.3-0.7,0.7-0.7c0,0,0,0,0.1,0c1.3,0,2.6,0,3.8,0C370.9,366.5,371.2,366.7,371,367.1
	z"/>
<path class="st0" d="M547.1,367.1H542c0,0-0.1-0.1,0-0.1C542.8,366.1,546.2,366.3,547.1,367.1z"/>
</svg>
