<svg id="Layer_1" data-name="Layer 1" xmlns="http://www.w3.org/2000/svg" viewBox="0 0 1280.92 1440.16"><defs><style>.cls-1{fill:#4a4c74;}</style></defs><title>Devices</title><path class="cls-1" d="M143.8,1258.76v-434H102c-23.17,0-46.33.09-69.5,0C12.25,824.67,0,812.29,0,791.93q0-48.24,0-96.49c0-10.66-.2-21.35.34-32,.73-14.08,12.34-26,26.52-26.43,20.47-.65,41-.43,61.47-.51,13.33-.06,26.66,0,40,0,1.3,0,2.6-.16,4.55-.3v-6c0-44,.09-88-.06-132-.05-13.75,4.8-24.48,17.64-30.31A34.26,34.26,0,0,1,164,465.14c27.17-.25,54.33-.12,81.5-.12h6V296.08h-25a28.92,28.92,0,0,1-17.67-5.82c-9.12-6.77-12.27-16.13-12.26-27.06q.07-58.5,0-117,0-57,0-114c0-10.56,3.25-19.6,11.93-26.2,5.66-4.31,12-6,19.11-6q167.49.08,335,0h409.4c18.92,0,31.41,12.3,31.42,31.09q.06,117,0,234c0,18.47-12.53,30.88-31.1,31-5.29,0-10.57,0-16.48,0v7.39q0,78.5,0,157c0,41.48-26.89,74.82-67.48,83.89-48,10.72-96.87-25-101.18-73.91-.43-5-.67-10-.67-15q-.08-76.5,0-153v-6.16H653.88V636a17.7,17.7,0,0,0,3,.53c20.31.24,40.63.64,60.94.61,62.11-.11,124.23-.47,186.34-.57q98-.16,196,0h147.45c16.78,0,28.39,7.9,32.12,22.16a43.56,43.56,0,0,1,1.1,10.89q.14,61,.1,122c0,21.07-12.1,33.18-33.16,33.23-34.83.08-69.66,0-104.49,0h-6.43V1259c4.37.24,8.35.25,12.27.7,10.54,1.21,18.2,6.71,23.23,16,16.36,30.29,33.34,60.27,48.79,91,5.48,10.9,11.6,15.49,23.74,14.11a39.71,39.71,0,0,1,19.35,3c12.65,5.43,19.09,20.25,15.88,33.32A29.49,29.49,0,0,1,1251,1440q-190.74,0-381.48,0-418.71,0-837.44.14c-14.53,0-26.11-8.55-30-19-7.59-20.36,6.79-40.58,29.19-40.75,5.16,0,10.36-.28,15.48.19,4,.37,5.87-1.25,7.66-4.59,17.44-32.54,35.32-64.86,52.48-97.55,7.22-13.77,17.91-19.94,33.08-19.23a20.86,20.86,0,0,0,2.5,0A6.4,6.4,0,0,0,143.8,1258.76Zm933.53-433.59H203.75v434.22h873.58ZM593.69,636.5V296.09h-6.45q-76.75,0-153.49,0c-8.6,0-16-2.52-22.23-8.44A29.66,29.66,0,0,1,404.39,256c4.92-12.53,15.45-19.45,29.66-19.45l504,.05h5.79V59.85H256.66V236.5c7.84,0,15.45-.09,23.07,0,19.48.28,31.62,12.66,31.64,32.16q0,33.15,0,66.29,0,62.25,0,124.5V465h6.69q53.51,0,107,0C443.35,465,456,478,456,496.28c-.06,44.82,0,89.64-.15,134.47,0,4.57,1.21,5.88,5.85,5.86,42.16-.17,84.32-.1,126.49-.11Zm627.39,59.78H59.87v68.4H1221.08ZM119.73,1380.47H1161c-1.14-2.25-1.83-3.7-2.59-5.11-9.26-17.12-18.68-34.15-27.67-51.4-2-3.79-4-5.12-8.3-5.11q-215.88.18-431.75.1H612.24q-227,0-453.92-.11c-4.3,0-6.34,1.4-8.24,5.18-5.62,11.13-11.8,22-17.73,33C128.27,1364.53,124.23,1372.1,119.73,1380.47Zm73-855.5V636.26H396.14V525ZM846.57,296.34c-.1,1.51-.27,2.8-.27,4.09q0,80,0,159.93c0,15.13,10.6,26.09,24.94,26.28,14.18.19,25.16-11.38,25.17-26.61q0-79.2,0-158.42v-5.27Z"/><path class="cls-1" d="M566.64,1064c-41.07-2.14-74.77-32.61-83.5-69.63A90.27,90.27,0,0,1,559,883.85c40-5.53,79.5,16.67,94.92,53.7,1.88,4.5,3.88,6.19,8.92,6.2a28.81,28.81,0,0,1,28.82,24.06c2.53,14.66-4.7,28-18.54,33.14-3.93,1.46-8.4,1.76-12.66,2-2.85.15-4.35.83-5.52,3.64-13.13,31.31-36.6,49.91-69.9,56C579,1063.65,572.76,1063.58,566.64,1064Zm34.93-90.66c0-17.54-13.22-30.61-31.07-30.74-16.32-.12-30.1,13.74-30.13,30.29,0,17.25,13.52,31.08,30.43,31.1A30.43,30.43,0,0,0,601.57,973.38Z"/><path class="cls-1" d="M436.82,973.32c.42,49.32-40.16,90.21-90.07,90.46-51.42.26-90.4-43.38-90.54-89.55-.16-49.83,39.42-90.5,88.68-91.34C394.92,882,437.34,923.39,436.82,973.32Zm-121.1.47c-.62,15.26,13.21,29.6,29.13,30.21,17.13.66,31.8-12.36,32.46-29a31,31,0,0,0-30-32.72C332.34,941.76,315.31,954,315.72,973.79Z"/><path class="cls-1" d="M362.49,1103.14c26.64,0,53.28-.14,79.93,0,12.71.09,22.54,5.7,27.91,17.48s2.91,24.49-6.13,33.58a28.89,28.89,0,0,1-21.12,8.69q-80.94.11-161.86,0c-17.16-.06-29.88-13.34-29.81-30.29.06-16.44,13.08-29.35,30.15-29.45C308.53,1103,335.51,1103.14,362.49,1103.14Z"/><path class="cls-1" d="M561,1162.85c-8.49,0-17,.61-25.45-.13-15.5-1.37-26.79-13.51-27.18-28.19-.42-16.2,9.47-29.42,25.77-30.63a355.59,355.59,0,0,1,55.29.15c16.23,1.33,26.39,16,25,32.29-1.25,14.57-14,26.23-29.45,26.6-8,.19-16,0-24,0Z"/><path class="cls-1" d="M795.57,122.7c19.33,0,38.67,0,58,0,17.31.05,30.39,12.7,30.63,29.5.24,16.52-13.53,29.84-30.91,29.84q-58.24,0-116.49,0c-14.52,0-27-10.16-29.37-23.67-2.66-15.05,4.9-28.92,18.88-34a31.52,31.52,0,0,1,10.27-1.65c19.66-.15,39.33-.07,59-.07Z"/><path class="cls-1" d="M605,122.73c15.66,0,31.33-.1,47,0a29.36,29.36,0,0,1,29.12,29.38A29.7,29.7,0,0,1,651.78,182q-47,.16-94,0c-16-.06-28.92-13.32-29.14-29.5-.21-15.66,12.57-29.4,28.31-29.73,16-.34,32-.08,48-.08Z"/></svg>