<?xml version="1.0" encoding="utf-8"?>
<!-- Generator: Adobe Illustrator 23.0.1, SVG Export Plug-In . SVG Version: 6.00 Build 0)  -->
<svg version="1.1" id="Layer_1" xmlns="http://www.w3.org/2000/svg" xmlns:xlink="http://www.w3.org/1999/xlink" x="0px" y="0px"
	 viewBox="0 0 708.7 708.7" style="enable-background:new 0 0 708.7 708.7;" xml:space="preserve">
<style type="text/css">
	.st0{fill:#494B74;}
	.st1{fill:#FBFBFB;}
	.st2{fill:#C8C8C8;}
</style>
<title>doctors</title>
<g id="ac566d13-8933-46af-adf2-3447414b00a2">
	<path class="st0" d="M185.1,427.7c1.2-3.9,1.3-4.3,1.9-6.5l1-5.1c0.7-3.6,1.8-7.1,3.2-10.5v-0.2c3.5-7.8,6.3-15.9,10.5-23.2
		c12.7-22.4,25.5-44.8,52.4-53.5c4.4-1.4,3.7-4.4,1.3-7.5c-6.7-8.4-12.6-17.5-17.7-26.9c-24.5-46.4-34.1-96.1-32.6-148.2
		c0.6-15.1,3.9-30,9.6-44.1c14.1-36.4,39.2-67.1,74.3-84.7c38.7-19.7,84.2-20.8,123.8-3.1c9,4.1,17.6,9.1,25.6,14.9
		c15.8,11.5,29.3,25.9,39.8,42.4c14,22,22.4,47.1,24.5,73.1c1.6,20.1-0.8,39.9-3.6,59.7c-5.9,41.8-19.8,80.6-45.1,114.7
		c-5.2,7-6.2,7.3,1.9,13.7c30.1,23.1,52.2,54.9,63.4,91.1c3.8,12.2,3.7,12.2-7.7,18.9c-17.9,10.6-26,32.1-19.6,51.9
		c6.1,19.3,25.3,31.4,46.8,29.5c20.2-1.9,36.4-17.8,38.7-38c2.4-20.8-9.2-41.2-29.1-46.7c-9.2-2.4-12.1-7.6-14.2-15.6
		c-6.4-24.5-18.1-47.3-34.3-66.8c-1.5-1.9-3.1-3.8-4.7-5.7c-0.8-1-1.4-2.1-0.5-3.1c0.9-1,2.2-0.3,3.3,0.2c1.4,0.7,2.9,1.5,4.3,2.4
		c23.3,13.6,44.7,30.1,63.7,49.3c33.1,33.5,56.3,72.9,71.6,117.2l0.5,1.4l2.1,6.1l0.8,3.1c2.1,7.5,3.8,15,5.4,22.6
		c0.8,4,1.8,8.5,2.8,12.7c0.8,3.6,3,8.3,1.9,12l-2.2,7.3c-2.6,1.4-3.8,4.4-5.4,6.7c-10.8,14.8-23.2,28.3-36.9,40.4
		c-36.4,32.4-81.5,51.7-128.3,63.5c-13,3.3-26,6.2-39.2,8.4c-5.1,0.8-10.3,1.6-15.5,2c-17.3,1.2-34.3,3-51.6,2.9
		c-26-0.2-52-0.2-77.9-2.4c-50.5-4.3-101.7-17.8-146.2-42.3c-3.1-1.7-6.1-3.5-9.1-5.3c-15.8-9.5-30.6-20.6-44.1-33.2
		c-6.8-6.4-13.2-13.2-19.2-20.3c-5.8-6.9-10.4-15.6-17.4-21.3c-0.7-3.5-1-7-1-10.5c0.4-4.9,2.8-10.3,3.7-15.2
		c1.2-6.1,2.2-12.2,3.4-18.5c2.3-12,6.5-22.4,10.8-33.7c4-10.7,7.7-21.4,12.8-31.8c10.3-20.9,23.1-40.5,38-58.5
		c21.2-25.8,46.9-46.2,75.2-63.5c1.2-0.7,2.7-0.2,3.3,0.9c0,0,0,0,0,0c0.3,0.8,0.5,1.6,0.6,2.4c0.1,0.7-0.2,1.5-0.8,2
		c-3.4,3.6-6.4,7.5-8.8,11.8c-18,27.7-25.9,58.8-28.1,91.3c-0.4,6.6-2.2,10.2-8.8,12.5c-9.6,3.3-17.9,9.4-23.9,17.5
		c-0.2,0.2-0.4,0.4-0.7,0.6c-4,2.2-5.9,6.2-8.2,9.8c-12.2,18.5-17.6,39.2-20.1,60.9c-1,8.3,0.6,17,8.4,21.4c1,0.4,1.9,1.1,2.4,2
		c0.7,1.5-0.3,3.9-0.5,5.5c-0.9,7.7,2.9,13.3,9.8,14.2c6.3,0.5,12-3.9,13.1-10.2c0.8-6.1-4.3-11.9-11.8-12.6
		c-3.1-0.3-1.3-0.4-4.1-1.8c-0.3-0.1-0.5-0.3-0.7-0.5c-4.6-4.4-5.4-9.8-4.9-16c1.9-25.5,11.5-49.9,27.5-69.8l0.3-0.3
		c8.1-7.3,12.2-12.7,22.7-15.9l15.2,0.1l8.4,2.4c0.2,0.1,0.4,0.1,0.5,0.2c12.7,7.7,23.3,18.5,30.6,31.4c5.1,8.8,9.1,18.2,11.9,28
		c2.8,10.4,4.2,21.1,4.2,31.8c0,4.2-5.1,5.9-7.2,9.1c-0.4,0.6-1.1,1-1.8,1c-2.3,0-4.6,0.2-6.8,0.6c-5.3,1.1-9.2,5.7-9.5,11.2
		c0.3,5.4,4.1,10,9.4,11.3c6.3,1.1,12.3-3.2,13.4-9.5c0.2-1.3,0.2-2.6,0-3.9c-0.3-1-0.4-2-0.6-3c-0.1-3,3.9-4.6,6-6.2
		c2.8-1.9,4.9-4.7,6.1-7.9c1.3-5.7,1.5-11.7,0.5-17.4c-0.2-1.5-0.5-3-0.8-4.4l-1-4.5c-2.7-12.6-5.8-26-11.8-37.5
		c-4.8-9.2-11-17.5-18.5-24.7c-3.2-3.3-6.8-6.3-10.7-8.7c-4.2-2.3-8.5-4.2-12.9-5.9c-1.3-0.6-2.7-1-4.1-1.4
		c-1.5-0.1-2.9-0.4-4.3-0.9c-1.7-1-2.8-2.7-3-4.6 M354.4,352.9c15-0.1,29.8-3.8,43.1-10.8c23.8-12.5,41.2-31.6,54.9-54.4
		c19.8-32.8,28.4-69.1,32-106.8c0.4-4,2.4-10.4-0.4-11.5c-4.9-1.9-6.1,5.1-9.5,7.7c-0.9,0.8-1.7,1.8-2.4,2.8c-1,1.3-2.2,2.8-3.9,2.4
		s-1.6-2.4-1.7-4c-1.8-28.1-15.6-51.7-28.6-75.5c-1.5-2.8-5-3.9-7.7-2.4c-0.2,0.1-0.4,0.2-0.5,0.3c-25.8,16.9-54.6,20.8-84.5,18.6
		c-25.6-2-50.8-8.1-74.5-17.9c-10.1-4.1-13.4-3.1-19.2,6c-3.4,5.6-5.8,11.7-6.9,18.2c-3,17.7-3.4,35.7-1.2,53.5
		c0.6,5.1,3.7,11.7,0,15.2c-2.7,2.7-7.3-3.1-11.7-4.3c-5.2-1.5-6.4-0.6-5.8,5.1c1.5,14.6,4.5,29,8.7,43.1
		c9,29.6,22.5,56.8,44.1,79.3C299.1,339,323.6,352.4,354.4,352.9L354.4,352.9z M290.3,355.4c-0.5-0.2-1-0.3-1.5-0.2
		c-2.7,0.6-4.2,1.9-3.3,4.7c0.6,1.5,1.4,2.9,2.4,4.1c19.5,27.1,39,54.2,58.5,81.3c4.6,6.3,5,6.2,10.3-0.7
		c20-26.3,39.8-52.6,59.6-78.9c1.9-2.6,6.9-5.4,4-9c-3.3-4-6.5,1-9.3,2.6c-38.3,22.3-76.4,22.3-114.5-0.3
		C294.7,357.6,292.2,356.4,290.3,355.4L290.3,355.4z M445.7,545.7c0-3.3,0-6.5,0-9.8c0-1.7-0.4-3.7-2-4.1c-6.7-1.7-13.7-1.7-20.4,0
		c-4.9,1.5-2.3,7.3-2.4,11.5c-0.2,3.3-0.3,6.5-0.1,9.8c0.5,6.8-3.5,8.4-10.9,7.2c-3.3-0.4-6.6-0.3-9.8,0.2c-2.3,0.3-7.8-0.8-8.6,3
		c-1.2,6.4-1.2,13-0.1,19.4c0.4,2.9,3.2,3.4,5.7,3.4c4.9,0,9.8,0,14.7,0c10.1,0.3,8.8,0.3,9.3,12.9c0.1,3.5,0,7.1-0.1,10.6
		c-0.1,4.2,1.8,6,5.8,5.9c2,0,4.1,0,6.1,0c15.2,0,13.3,0.5,13.3-12.9c0-18.2-2.2-16.4,16.1-16.5c13.2,0,13.2,0,13.2-13.3
		c0-1.2,0-2.4,0-3.7c-0.3-8.4-0.5-8.5-9.3-8.7c-1.6,0-3.3,0-4.9,0C445.1,560.6,445.6,562.7,445.7,545.7L445.7,545.7z M282.2,350.7
		c0.3-1.7-6.7-9.8-8.2-9.3c-0.4,0.1-0.7,0.4-0.8,0.7c-0.6,1.3,5.9,10,7.3,9.8C281.2,352,281.7,351.1,282.2,350.7z M426.9,351.5
		c0.2-0.3,0.7-0.6,0.7-0.9c0-0.3-0.5-0.6-0.7-0.9l-0.9,1.2L426.9,351.5z"/>
	<path class="st1" d="M563.1,480.6c0.1-15.7-12.5-28.6-28.2-28.8c-0.1,0-0.2,0-0.4,0c-16-0.2-29.1,12.6-29.3,28.6
		c-0.2,16,12.6,29.1,28.6,29.3s29.1-12.6,29.3-28.6C563.1,481,563.1,480.8,563.1,480.6z"/>
	<path class="st2" d="M291.1,706.9v-2.4c9.1-0.9,18.2-0.1,26.9,2.4H291.1z"/>
	<path class="st2" d="M335.1,1.7"/>
	<path class="st2" d="M325.3,4c-0.2-0.7-0.2-1.5,0-2.2"/>
	<path class="st2" d="M638,518.1"/>
	<path class="st2" d="M640.3,524.6"/>
	<path class="st2" d="M531.3,676.3"/>
	<path class="st2" d="M524.9,679.2"/>
	<path class="st2" d="M426.9,351.5l-0.8-0.5l0.9-1.2c0.2,0.3,0.7,0.6,0.7,0.9C427.7,350.9,427.2,351.2,426.9,351.5z"/>
	<path class="st0" d="M563.1,480.6c0,15.9-12.8,28.8-28.8,28.8c-15.9,0-28.8-12.8-28.8-28.8c0-15.9,12.8-28.8,28.8-28.8
		c0.1,0,0.2,0,0.3,0C550.3,452,563.1,464.8,563.1,480.6z"/>
</g>
</svg>
