<?xml version="1.0" encoding="utf-8"?>
<!-- Generator: Adobe Illustrator 23.0.1, SVG Export Plug-In . SVG Version: 6.00 Build 0)  -->
<svg version="1.1" id="f5e6a57e-3366-47cc-bf56-0971e286d4ed"
	 xmlns="http://www.w3.org/2000/svg" xmlns:xlink="http://www.w3.org/1999/xlink" x="0px" y="0px" viewBox="0 0 708.7 708.7"
	 style="enable-background:new 0 0 708.7 708.7;" xml:space="preserve">
<style type="text/css">
	.st0{fill:#494B74;}
</style>
<title>employees</title>
<path class="st0" d="M703.7,594.5h-496c-4.4,0-4.5,0-4.4-4.5c0.7-39.6,10.9-78.4,29.6-113.3c0.9-1,1.4-2.3,1.4-3.6h-4
	c-73.6,0-147.2,0-220.8,0c-3.4,0-4.1-0.9-3.9-4.1c3.4-70.2,35.2-123.4,95.7-159.2c23.7-14,50.6-22,78.1-23.3
	c69.1-3.6,124.3,23,165.7,78.3c1.7,2.3,2.7,2.6,5.3,1.4c126-57,274.3-1,331.3,125c4.6,10.1,8.5,20.6,11.7,31.2
	c5.3,17.5,8.6,35.6,9.9,53.9c0,0.6,0,1.4,0.6,1.8L703.7,594.5z"/>
<path class="st0" d="M462.9,113.5c4.9,1,9.5,1.7,14,3c34.5,10.2,56.7,32.8,64.8,67.8c6.4,26.5,0,54.4-17.3,75.4
	c-12.9,16.9-31.6,28.5-52.5,32.4c-28.1,6.1-57.4-1.8-78.5-21.3c-14.8-12.9-24.8-30.4-28.2-49.8c-5.5-25.7,0.9-52.5,17.4-73
	c14.7-19.1,36.6-31.3,60.6-33.8c0.5-0.2,1-0.4,1.5-0.6L462.9,113.5z"/>
<path class="st0" d="M199.9,113.5c2.5,0.9,5.1,1.5,7.7,1.8c27.2,7.3,44.9,24.6,50.6,52.1c5.5,26.3-2.9,48.7-23.7,66.1
	c-10.4,8.7-23.3,13.9-36.9,14.8c-17.9,1.7-35.8-4.1-49.3-16c-12.9-10.8-21.1-26.2-23-42.9c-4.5-35.9,20.1-69,55.8-75
	c1.3,0,2.8,0.4,3.8-0.7L199.9,113.5z"/>
</svg>
