<?xml version="1.0" encoding="utf-8"?>
<!-- Generator: Adobe Illustrator 23.0.1, SVG Export Plug-In . SVG Version: 6.00 Build 0)  -->
<svg version="1.1" id="b13f31e0-47bb-4f66-a3f5-b9b00e2b9fc2"
	 xmlns="http://www.w3.org/2000/svg" xmlns:xlink="http://www.w3.org/1999/xlink" x="0px" y="0px" viewBox="0 0 708.7 708.7"
	 style="enable-background:new 0 0 708.7 708.7;" xml:space="preserve">
<style type="text/css">
	.st0{fill:#494B74;}
</style>
<title>Feedback</title>
<path class="st0" d="M342.2,4.9h24.2c1.5,1.4,3.6,1.9,5.6,1.5c5.8-2,11.6,0.1,17.3,0.4c8.8,0.7,17.5,1.9,26.2,3.6
	c29.5,5,58.2,14,85.3,26.6c46.4,21.5,87.5,52.9,120.5,91.8c32.5,38.7,56.3,84,69.8,132.7c7.2,25.3,11.1,51.3,11.7,77.6
	c0,1-0.2,2.2,0.8,3v23.4c-0.6,0.6-0.9,1.4-0.8,2.2c-0.1,5.6-0.2,11.2-0.7,16.9c-0.9,11.3-2.4,22.6-4.5,33.8
	c-3.7,20.3-9.3,40.2-16.6,59.5c-7.8,20.6-17.5,40.4-29.1,59.1c-10.1,16.3-21.4,31.7-33.9,46.2c-11.8,13.7-24.7,26.4-38.5,38.1
	c-38.7,32.5-84,56.3-132.7,69.8c-25.3,7.1-51.3,11.1-77.6,11.7c-1.1,0-2.2-0.1-3,0.8h-24.2c-5.9-1.9-12.2-0.7-18.2-1.4
	c-9.9-1.1-20-2-29.8-3.8c-21.4-3.7-42.4-9.4-62.7-17c-20.8-7.8-40.9-17.6-59.8-29.2c-16.3-10.1-31.7-21.4-46.2-33.9
	c-29.2-25.1-53.9-55-73.1-88.4c-15.2-25.9-26.9-53.8-34.8-82.8c-7.1-25.3-11.1-51.3-11.7-77.6c0-1.1,0.2-2.2-0.8-3v-24.2
	c1.9-5.9,0.7-12.2,1.4-18.2c1.2-11.3,2.5-22.6,4.5-33.7c3.7-20.3,9.2-40.2,16.6-59.5c7.7-20.2,17.2-39.6,28.4-58.1
	c13.3-21.8,29-42.2,46.7-60.6c12.8-13.3,26.7-25.6,41.5-36.7c29-21.8,61.1-39,95.3-51c19.9-6.9,40.3-12,61.1-15.2
	c10.7-1.8,21.5-2.7,32.4-2.8C336.1,6.7,339.3,6.2,342.2,4.9z M337.4,51.8c-0.6,0.6-1.4,0.9-2.2,0.8c-6.2,0.1-12.3,0.6-18.4,1.6
	c-18.2,2.2-36.2,6.2-53.7,12c-42.7,13.7-81.9,36.6-114.7,67.2c-8.9,8.3-17.3,17.2-25.2,26.6C108.8,177,96.4,195.6,86,215.4
	c-9.3,17.7-16.7,36.3-22.2,55.6c-4.9,17.4-8.4,35.2-10.4,53.2c-0.5,4.5,0.4,9.1-1.4,13.3c-1.4,11.3-1.4,22.6,0,33.9
	c0.8,6.9,1.6,13.7,2.4,20.6c2.1,18.2,6,36.2,11.6,53.6c18,56.6,52.2,106.6,98.4,143.9c16.1,13.1,33.6,24.5,52,34
	c18.2,9.6,37.3,17.1,57.2,22.5c19.8,5.8,40.2,9.2,60.8,10.2c1.1,0,2.2-0.2,3,0.8c11.3,1.4,22.6,1.4,33.9,0c2.1-2,4.3,0.4,6.5,0
	c10.6-2.4,21.5-2.7,32.1-4.9c65.4-12.5,124.9-46.3,169.3-96c9.5-10.6,18.2-21.7,26.2-33.4c12.1-17.9,22.2-37,30.2-57.1
	c10.4-26.2,17.1-53.6,19.9-81.6c0.4-4.5-0.5-9.1,1.5-13.5c1.1-10.9,1.1-21.8,0-32.7c0,0-0.2-0.2-0.2-0.3c-0.6-0.6-0.9-1.4-0.8-2.2
	c-0.1-6.2-0.6-12.3-1.6-18.4c-2.2-18.2-6.1-36.2-11.8-53.7c-13.6-42.5-36.4-81.6-66.7-114.3c-9.8-10.6-20.4-20.5-31.6-29.6
	C528,106.1,510.5,94.6,491.9,85c-18.1-9.4-37.1-16.9-56.8-22.3c-16.4-4.5-33.1-7.6-50-9.4c-4.6-0.5-9.4,0.3-13.8-1.4
	c-0.3-0.2-0.7-0.6-1-0.6c-10.6-0.3-21.3-0.3-31.9,0C338,51.3,337.7,51.6,337.4,51.8L337.4,51.8z"/>
<path class="st0" d="M371.3,51.8h-33.9c0.3-0.2,0.7-0.6,1-0.6c10.6-0.3,21.3-0.3,31.9,0C370.6,51.3,370.9,51.6,371.3,51.8z"/>
<path class="st0" d="M51.8,337.4v33.9C50.4,360.1,50.4,348.7,51.8,337.4z"/>
<path class="st0" d="M337.4,656.9h33.9C360,658.3,348.6,658.3,337.4,656.9z"/>
<path class="st0" d="M657,370.4c0-11,0-22-0.1-33c-0.1-16.5,0.2,0.2,0.2,0.3C658.1,348.6,658.1,359.6,657,370.4z"/>
<path class="st0" d="M367.9,572.3c-3.9-0.7-8,0.9-12.4,0.8c-31.6-0.5-61.9-6.4-90.6-20.1c-17.9-8.5-34.5-19.5-49.3-32.7
	c-27.5-24.5-47.9-55.9-59.1-90.9c-3.9-11.7,0.4-21.5,9.6-25c10.3-3.9,21.8-1.5,26,11.7c6.4,20.2,16.5,39.1,29.8,55.6
	c15.9,20,36.2,36.1,59.3,47c15.4,7.3,31.8,12.3,48.6,14.9c4,0.6,8.1,0.2,12.1,2c2.1,1,5.3-0.6,8-0.4c21,0.9,42-2.5,61.8-9.9
	c20.1-7.2,38.7-18.1,54.7-32.2c16.4-14.5,29.9-31.9,39.9-51.4c4.2-8.1,7.6-16.6,10.2-25.3c1.8-7.7,8.7-13.1,16.5-12.9
	c16.1-0.3,23.9,10.4,19.1,25.9c-16.2,51.1-51.7,93.8-99.1,118.9c-20.6,11-42.9,18.4-66,22.1C380.7,571.7,374.3,572.3,367.9,572.3z"
	/>
<path class="st0" d="M251.7,277.8c-19.9,1.3-37.2-15.8-36.8-36.8c0.3-21.5,15.7-36.6,37.2-36.6s36.6,15.6,36.8,37
	S270.5,279.3,251.7,277.8z"/>
<path class="st0" d="M445.5,277.7c-15.9-2.2-28.4-14.6-30.9-30.4c-2.9-17.1,6.5-34,22.7-40.5c22.3-8.6,48.1,5.5,50.4,30
	c2.4,19-10.1,36.8-28.9,40.8c-0.7,0.1-1.3,0.2-2,0.2C453.1,276.5,449.2,276.5,445.5,277.7z"/>
<path class="st0" d="M445.5,277.7c3.6-1.2,7.5-1.2,11.2,0H445.5z"/>
</svg>
