<?xml version="1.0" encoding="utf-8"?>
<!-- Generator: Adobe Illustrator 23.0.1, SVG Export Plug-In . SVG Version: 6.00 Build 0)  -->
<svg version="1.1" id="abc5cf01-fb73-4457-be08-5f76ad400b88"
	 xmlns="http://www.w3.org/2000/svg" xmlns:xlink="http://www.w3.org/1999/xlink" x="0px" y="0px" viewBox="0 0 708.7 708.7"
	 style="enable-background:new 0 0 708.7 708.7;" xml:space="preserve">
<style type="text/css">
	.st0{fill:#494B74;}
	.st1{fill:#FEFEFE;}
</style>
<title>finishing up</title>
<path class="st0" d="M668.1,3.1l1,0c3.2,0,6.3,1.6,8.1,4.3c13.2,19.5,1.9,35.5-10.1,52.6c-67.6,96.2-135,192.7-202,289.3
	c-35.1,50.5-70.3,100.9-105.4,151.3c-3.7,5.3-6.1,10.4-13.8,2.9c-28.4-27.2-57.3-54-86.2-80.6c-6.4-5.8-6.8-9.1-0.4-15.7
	c55.8-57.1,111.3-114.5,166.5-172.1C476.5,182.5,527.6,130.3,577.6,77C598,55.2,619,34.1,639.7,12.6c1.5-1.5,3.2-2.8,4.3-4.5
	c2.1-3.1,5.4-5,9.1-5"/>
<path class="st0" d="M129.7,704.7"/>
<path class="st0" d="M117.8,705.5H35.5c-0.2,0-0.5,0-0.7-0.1c-14.3-3.8-9.5-9.1-1.8-16.6c49.5-49.1,91.3-103.5,118.5-168.4
	c14-33.3,43.9-49.5,78.7-46c31.5,3.2,62.5,31,70.4,64.3c9.5,40.1-7.3,72.3-33.3,100.6c-32.2,35.2-74.4,52.6-120.2,61.3
	c-0.9,0.2-2.2,0.4-3.1,0.8c-3.1,1.2-4.5,1.2-7.4,2.2c-1.8,0.6-3.2,0.9-4.9,1.1"/>
<path class="st1" d="M272.9,475.8c1.3-1.4,2.7-1.5,4,0H272.9z"/>
<path class="st0" d="M462.9,232.8c-0.3,1-0.7,0.7-1,0H462.9z"/>
</svg>
