<?xml version="1.0" encoding="utf-8"?>
<!-- Generator: Adobe Illustrator 23.0.1, SVG Export Plug-In . SVG Version: 6.00 Build 0)  -->
<svg version="1.1" id="Layer_1" xmlns="http://www.w3.org/2000/svg" xmlns:xlink="http://www.w3.org/1999/xlink" x="0px" y="0px"
	 viewBox="0 0 708.7 708.7" style="enable-background:new 0 0 708.7 708.7;" xml:space="preserve">
<style type="text/css">
	.st0{fill:#494B74;}
	.st1{fill:#FFFFFF;}
</style>
<g>
	<path class="st0" d="M0.4,564.7c0-8.3,0-16.5,0-24.8c1.4-5,3.2-10,4-15.1c14.5-94.7,45-184.2,89.3-268.8
		c28.2-53.7,63-103.1,115.5-136.2c131.5-82.6,290.5-47.3,378.4,84.1C656.4,307,693.7,421.7,709.2,543.7c5,39.5-19.9,81.4-55.9,98.3
		c-6.6,3.1-12.7,7.5-19,11.3c-9.4,0-18.9,0-28.3,0c-3.1-1.5-6-3.9-9.3-4.4c-37.7-6.1-75.3-13.6-113.3-17.4
		c-98.3-9.9-196.7-8.1-294.7,4.3c-27.7,3.5-54.8,11.6-82.2,17.6c-7.1,0-14.2,0-21.3,0c-4.1-1.9-8.1-4.2-12.4-5.6
		c-35.2-11.3-57.2-35.2-67.6-70.4C4.1,573,2.1,568.9,0.4,564.7z M526.6,595c-8-56.4-14-109.1-23.3-161.1
		c-9.9-55.2-24.7-109.3-55.1-157.5c-30.8-48.8-85.1-69-130.6-47.9c-29.1,13.5-51.3,35.5-65.9,64.3c-24.5,48.3-37.6,100.4-46.4,153.3
		c-8.1,48.5-12.9,97.5-19.5,148.9C299.8,582.5,412,582.6,526.6,595z M157.6,478.2c6.7-33.1,13.1-64.6,19.1-96.1
		c0.5-2.6-2-7.4-4.3-8.5c-24-10.8-48.2-21-75.5-32.8c-12.2,38-23.9,73.5-34.7,109.3c-0.9,3,3.3,10.8,6.1,11.3
		C97.4,467.5,126.8,472.6,157.6,478.2z M558,475.4c30.4-6.5,57.5-11.9,84.2-18.5c3.2-0.8,7.4-9.2,6.4-12.7
		c-9.1-30.3-18.9-60.5-29.6-90.3c-1.3-3.5-10.4-7.5-14.1-6.2c-21,7.4-41.8,15.7-62,25.1c-4,1.8-8.1,9.9-7.4,14.4
		c4,26.1,9.2,52,14.7,77.7C551.2,469.4,556,472.9,558,475.4z M669.5,543c-1.3-8.2-3.8-21.5-5.6-34.9c-1.4-10.9-6.6-13.3-17-10.6
		c-17.6,4.5-35.6,7.5-53.4,11.5c-39.8,8.8-40.8,10.5-32.3,51.3c7.2,34.7,30.8,51.8,65.2,47.4C649.3,604.8,669.9,576.6,669.5,543z
		 M153.5,535.2c1.7-11.2-1.2-17.2-14.2-19c-26.2-3.7-52-10-78.2-14c-4-0.6-12.2,4.8-13.1,8.6c-3.1,13.7-5.3,27.9-5.2,41.9
		c0.3,28.3,23.3,55,46.8,56.4c32.3,2,56.4-18.2,60.9-51.2C151.5,550.4,152.5,542.8,153.5,535.2z M187,334.7
		c15.3-30.4,29.3-58.1,43-86c1.3-2.6,1.2-7.4-0.4-9.5C217,222.6,203.8,206.4,190,189c-31.5,35.7-55.6,72.6-74.1,115.2
		C141,315,164.1,324.9,187,334.7z M522.6,335.9c9.8-3.8,19.1-7.2,28.3-10.9c50.3-20.2,50.8-20.5,22.1-67.7
		c-12.3-20.3-26.8-39.3-41.6-60.7c-16,19.6-29.7,35.7-42.6,52.5c-2.2,2.9-2.7,9.1-1.1,12.5C498.6,285.7,510.1,309.5,522.6,335.9z
		 M460.3,218.3c10.8-13.1,23.5-27.7,34.9-43.2c1.9-2.6-0.2-11.5-3.2-13.9c-28.8-22.4-61.9-35.7-97.7-41.9
		c-3.9-0.7-12.1,1.9-12.1,3.1c-0.5,19.1-0.2,38.3,0.4,57.5c0,1.2,3.8,2.2,5.8,3.3C411.5,194.4,434.4,205.7,460.3,218.3z
		 M261.6,212.9c17-9.2,31.2-17.4,45.9-24.6c10.2-5,25.8-5.7,30.5-13.5c5.6-9.2,2.1-23.9,2.5-36.2c0.1-3.5,1.2-8-0.5-10.4
		c-2.8-4-7.8-9.8-11.2-9.4c-39,5-74.8,18.2-107.4,43C235.5,179.7,248.5,196.2,261.6,212.9z"/>
	<path class="st1" d="M106.6,653.3c27.4-6,54.5-14.1,82.2-17.6c98-12.3,196.4-14.2,294.7-4.3c38,3.8,75.6,11.3,113.3,17.4
		c3.2,0.5,6.2,2.9,9.3,4.4"/>
</g>
</svg>
