<?xml version="1.0" encoding="utf-8"?>
<!-- Generator: Adobe Illustrator 23.0.1, SVG Export Plug-In . SVG Version: 6.00 Build 0)  -->
<svg version="1.1" id="e864dbc4-37a7-4be2-8d5d-266ed52882d4"
	 xmlns="http://www.w3.org/2000/svg" xmlns:xlink="http://www.w3.org/1999/xlink" x="0px" y="0px" viewBox="0 0 708.7 708.7"
	 style="enable-background:new 0 0 708.7 708.7;" xml:space="preserve">
<style type="text/css">
	.st0{fill:#494B74;}
</style>
<title>Job types</title>
<path class="st0" d="M165.6,342.1c-11.8-46.3-36-88.5-44.7-135.7C111,153,108.6,100.2,143.6,53.5c21.8-29,79.1-61,124-48.4
	c28.1,8,56.7,15.9,86.7,15.6c26-0.6,51.7-5.2,76.3-13.7c64.4-20.8,147.4,30,159.2,96.5c9.9,55,3.2,111.7-19.1,162.9
	c-10.3,24.4-21.7,48.6-23.8,75.6l-35.2-0.4h-9.2c-39,0-51.8-12.9-51.8-52.1c0-39.1-0.5-78.3,0-117.4c0.3-16.5-5.4-23.8-22.6-23.4
	c-49.2,0.7-98.5,0.7-147.8,0c-15,0-19.5,5.1-19.1,19.6c0.8,40.9,0.4,81.8,0,122.8c0,22.7-12,42.9-29,48.8c-11.4,4-23.5,0.9-35.2,1.8
	L165.6,342.1z M350,113.2c31.8,0,57.9-0.3,84.1,0c29.8,0.4,48.6,19.6,48.6,49.3c0,41,0,82,0,123c0,23.8,1.9,24.9,25.3,24.1
	c10-0.4,13.1-5.4,15.5-13.5c3-9.6,6.4-19,10.3-28.3c19.4-47.9,32.5-96.4,24.4-149.5c-7.5-51.6-55.5-87.3-107.1-79.8
	c-2.5,0.4-4.9,0.8-7.3,1.4c-27.6,6-54.7,13.4-83.6,13.4c-30.6-0.6-61.1-4.9-90.7-12.8c-43.5-10.7-88.7,10.1-108.9,50.1
	c-17.4,33.7-14.3,68.5-8.3,103.8c6.2,37,25,70.1,35.2,105.7c4.3,15,17.5,8.8,27.2,9.2c11.1,0.5,11.3-8.1,11.3-16.2
	c0-43.4,0-86.8,0-130.2c-0.3-22.5,15.4-42.1,37.5-46.8c30.5-6.8,61.6-0.5,86.7-2.8V113.2z"/>
<path class="st0" d="M511.4,341.7l35.2,0.4c-6.7,21-4.5,43.2-5.9,64.6c-5.6,84.8-14.3,168.9-36.9,251.1
	c-3.2,13.7-9.8,26.4-19.1,36.9c-17,18.1-42.9,14.9-54-7.2c-14.3-28.6-17.7-60.1-23-91c-8.8-51.6-14.8-103.8-36.1-152.6
	c-3.1-7.1-6-16.9-16.3-16.4c-9.5,0.5-12.6,8.5-16.4,16c-18.6,37.1-23.8,77.6-31.2,117.6s-9.5,79.9-25,117.5
	c-5.3,13.2-12.4,25.2-29.2,26.8s-27.2-7.3-35.6-20.4c-14.8-23.3-18.2-50.3-23.8-76.3c-12.6-57.1-20.1-115.2-22.4-173.6
	c-1.3-31-8.1-62-6.3-93.2l31.7-0.4c5.7,52.4,7.5,105.2,14,157.7c6.3,51.7,10.3,103.5,31.5,152.1c1.7,3.9-2.6,10.9,5.7,11
	c8.3,0.1,8.5-7,9.5-12.3c8.5-47.7,15.5-95.4,25.6-142.7c6.8-31.7,13.6-64,33.4-91.2c21.5-29.2,56.4-28.2,77.1,1.2
	c9,13.1,15.9,27.4,20.6,42.6c15.4,48.4,21.1,98.9,29.4,149c2.6,15.7,7.1,31.1,10.9,46.7c0.9,3.6,3.1,6.8,7.2,6.4
	c2,0,5.4-3.1,5.2-3.9c4.8-9.2,7.4-17.5,9.5-27.5c8.5-42.3,16.7-84.4,21.7-127.5C504.2,449.4,507,395.5,511.4,341.7z"/>
</svg>
