<?xml version="1.0" encoding="utf-8"?>
<!-- Generator: Adobe Illustrator 23.0.1, SVG Export Plug-In . SVG Version: 6.00 Build 0)  -->
<svg version="1.1" id="b9113eca-7442-4457-886f-4e2c186b2074"
	 xmlns="http://www.w3.org/2000/svg" xmlns:xlink="http://www.w3.org/1999/xlink" x="0px" y="0px" viewBox="0 0 470.9 435.3"
	 style="enable-background:new 0 0 470.9 435.3;" xml:space="preserve">
<style type="text/css">
	.st0{fill:#494B74;}
</style>
<title>labs</title>
<path class="st0" d="M47.4,205.2c-12.1,11.9-24.3,23.7-36.2,35.9c-3.2,3.3-5,3-7.8-0.2c-2.5-2.9-5.7-4.6-1.2-9.1
	C79,155.3,155.6,78.8,232.1,2.1c2.1-2.1,3.1-3.2,6.2-0.4c4.5,4.2,8.2,9.1,12.6,13.4C302.1,64.7,352,115.6,402.6,165.9
	c10.4,10.3,21,20.4,30.9,31.1c10.5,11.4,22.3,21.4,32.9,32.7c5.9,6.3,5.9,6,0.1,12c-2.5,2.6-4,2.3-6.3-0.1
	c-11.1-11.3-22.3-22.4-33.5-33.6c-1-1.1-2.2-2.1-3.5-3.3c-1.3,1.8-0.7,3.6-0.7,5.3c0,73,0,146,0.1,219c0,4.9-0.9,6.5-6.2,6.5
	c-120.7-0.2-241.3-0.2-362,0c-4.8,0-6.1-1.3-6.1-6.1c0.1-74.7,0.1-149.3,0-224C48.1,204.4,47.8,204.5,47.4,205.2z M60.5,306.5
	c0,37,0.1,74-0.1,111c0,4.7,1.5,5.7,5.9,5.8c34.6,0.4,69.3-1,103.9-0.9c6.4,0,6.4,0,6.4-6.6c0-48,0-96-0.1-144
	c0-4.4,1.1-5.6,5.5-5.6c35.3,0.2,70.7,0.2,106,0c4.9,0,5.6,1.7,5.6,6c-0.1,48.7,0,97.3-0.1,146c0,3.8,0.8,5.2,4.9,5.2
	c35-0.2,70-0.2,105,0c4.6,0,6.3-1.4,6.3-6.4c-0.2-73.8-0.2-147.6,0-221.4c0.1-3-1.1-5.9-3.3-7.9C350.6,131.9,294.8,76.1,239.2,20.3
	c-2.9-3-4.5-3-7.4,0c-55.9,56.1-111.8,112-167.9,167.9c-2.3,2.1-3.5,5.2-3.4,8.3C60.6,233.2,60.5,269.8,60.5,306.5z"/>
</svg>
