<?xml version="1.0" encoding="utf-8"?>
<!-- Generator: Adobe Illustrator 23.0.1, SVG Export Plug-In . SVG Version: 6.00 Build 0)  -->
<svg version="1.1" id="b142b8fa-58f4-4e0c-8d1e-229388a533f6"
	 xmlns="http://www.w3.org/2000/svg" xmlns:xlink="http://www.w3.org/1999/xlink" x="0px" y="0px" viewBox="0 0 708.7 708.7"
	 style="enable-background:new 0 0 708.7 708.7;" xml:space="preserve">
<style type="text/css">
	.st0{fill:#494B74;}
</style>
<title>materials</title>
<path class="st0" d="M40.2,264.1c103,33,170,39.5,291.6-0.4c0,18.5-0.2,36.4,0,54.4c1,8.4-5,16.1-13.4,17.1c-0.2,0-0.4,0-0.6,0.1
	c-63.2,11.7-74.9,52.7-70.3,110.9c4.9,62.1,0.5,125,1.6,187.8c0.3,18.9-3.3,26.8-24.7,28.9C168,669.2,111,661.6,58.2,641
	C47.9,637,40,631.1,40,617.7C40.5,499.8,40.2,382.2,40.2,264.1z"/>
<path class="st0" d="M593.8,184.7c0,32.9,0,65.9,0,98.9c0,6.7,2.6,16.9-10.7,12.1c-56.1-20.1-114.2-7.3-171.3-9.3
	c-14.2-0.5-16.2-3.5-15.8-15.4c0.6-18.1-0.4-36.3,0.3-54.4c0.9-21.2-3-38.7-18.1-56.3c-15.1-17.6-5.7-44.2-5.4-66.7
	c0-7.2,8.9-5.4,14.3-5.9c63.6-6.4,127.3-12.5,190.9-19.2c14.8-1.6,16.1,6,16,17.4C593.8,118.8,593.8,151.7,593.8,184.7z"/>
<path class="st0" d="M554.2,572.1c0,37.9-0.5,75.8,0,113.7c0.3,14.8-3.7,20.8-19.3,20.1c-26.3-1.1-52.7-0.9-79.1,0
	c-14.4,0.4-20.5-3.4-20.3-19.2c0.7-78.2,0.5-156.5,0-234.7c0-13.4,3.7-19.8,18.1-19.1c27.2,0.8,54.4,1,81.6,0
	c16.3-0.6,19.1,6.8,18.8,20.8C554.2,493,554.2,532.5,554.2,572.1z"/>
<path class="st0" d="M578.9,699.7c0-89,0-173.9,0-258.7c0-9,1.8-14.8,11.5-18.9c21.4-8.6,42.3-18.3,63-28.4
	c13.5-6.6,15.2-0.2,15.1,11.2c0,79.1,0,158.2,0,237.2c0.9,9.3-4.3,18.1-12.8,22C631.6,675.8,607,687,578.9,699.7z"/>
<path class="st0" d="M411.4,561.3c0,37.8-0.4,75.6,0.3,113.4c0.3,17.9-2.8,24.2-22,14.8c-62-29.7-62.3-29-62.2-97.9
	c0-60,1-120-0.4-180c-0.5-24.2,8.2-23.9,24.7-14.8c0.7,0.4,1.5,0.8,2.2,1.1c47.6,12.6,66,42.4,58,91.6
	C408.2,513.3,411.4,537.7,411.4,561.3z"/>
<path class="st0" d="M187.9,181.7c40.6-2,81.1,5,118.6,20.6c9.9,4.1,24.5,8,24.4,21.3c-0.1,13.3-14.4,17.6-24.6,21.4
	c-53.1,19.8-107.9,24.4-164.3,18.6c-26.8-2.9-53.2-8.9-78.6-17.9c-10.4-3.7-20.7-9.7-22-20.9c-1.5-12.9,10.7-17.4,20.2-21.6
	C101.3,185.7,143.3,180.4,187.9,181.7z"/>
<path class="st0" d="M644.8,366.5c-87.1,66.3-243.8,50.1-292-1.1C449.9,319.1,545.5,321.6,644.8,366.5z"/>
<path class="st0" d="M556.6,46.7c-42.8,3.8-85.9,7.5-129.1,11.3c-6.5,0.6-13.7-1-19.8,1.1c-47.2,16.7-77.6-14.5-115.5-38.6
	c60.3-5.8,116.3-9.9,172-17.1C504.1-1.6,529.5,23.4,556.6,46.7z"/>
<path class="st0" d="M262.6,32.9c28.5,17.3,53,31.9,77.1,47.2c7.2,4.6,9.9,52.6,4.5,58.8c-0.5,0.5-1.2,1.6-1.6,1.6
	c-24-4-48.4-6.6-71.9-12.6c-14-3.6-7.4-18.2-7.8-28C262.2,79.4,262.6,58.9,262.6,32.9z"/>
</svg>
