<?xml version="1.0" encoding="utf-8"?>
<!-- Generator: Adobe Illustrator 23.0.1, SVG Export Plug-In . SVG Version: 6.00 Build 0)  -->
<svg version="1.1" id="f0807411-0394-4e71-b9a9-b1182d2e18af"
	 xmlns="http://www.w3.org/2000/svg" xmlns:xlink="http://www.w3.org/1999/xlink" x="0px" y="0px" viewBox="0 0 708.7 708.7"
	 style="enable-background:new 0 0 708.7 708.7;" xml:space="preserve">
<style type="text/css">
	.st0{fill:#494B74;}
</style>
<title>Milling</title>
<path class="st0" d="M354.3,703.2C160.7,703.2,5.2,547.1,5.2,352.9C5.2,161.5,162.4,5.4,354.7,5.5C548,5.6,703.5,162.2,703.5,356.4
	C703.3,547.4,546.4,703.2,354.3,703.2z M121,147.9c-3.8,1.9-6,5.4-8.4,8.5C53.3,230.8,30.3,315,46.6,408.8
	c29.7,170.3,193,284,362.1,253.3c190.5-34.6,304.2-228,241-410.4c-13.4-38.7-33.3-73.9-61.6-103.9c-11.3-14.7-25.2-26.7-39.7-38
	c-70.5-55.4-150.7-76-238.8-64.5C252.3,52.8,201,76,156.2,112.9C143.4,123.4,130.4,133.9,121,147.9L121,147.9z"/>
<path class="st0" d="M425,479.3v-32.8c0-10.6-0.1-10.8-9.4-5.6c-38.5,21.8-76.9,43.6-115.3,65.5c-6.6,3.8-7.3,15.2-0.9,19.4
	c16.5,10.9,33.3,21.4,50,32.1c2.6,1.9,6.1,2.1,8.8,0.4c20.2-11,40.4-21.9,60.7-32.6c4.1-1.7,6.6-5.8,6.2-10.2
	C424.8,503.5,425,491.4,425,479.3z M295.4,339.2c0,7.8,0.3,15.6,0,23.3c-0.3,6.3,1.2,7.7,7.1,4.5c38.7-20.9,77.4-41.7,116.3-62.4
	c4.8-2.5,6.4-5.8,6.3-11c-0.3-14.7-0.4-29.4,0-44c0.3-7.9-2.1-7.9-8.1-4.6c-38,20.4-76.1,40.6-114.3,60.7c-5.6,2.9-7.9,6.5-7.4,12.9
	C295.9,325.4,295.4,332.3,295.4,339.2L295.4,339.2z M425,375.5c0-11.7-0.1-19.8,0-27.8c0.1-5.6-2-6.6-6.7-4
	c-7.6,4.1-15.2,8.2-22.8,12.2c-31.2,16.6-62.4,33.1-93.6,49.6c-3.5,1.7-6.5,3.6-6.5,8.2c0.1,16.7,0,33.3,0,50c0,4.1,1.8,5.2,5.4,3.4
	c5.1-2.7,10.1-5.5,15.1-8.2c28.8-15.6,57-32.6,86.8-45.9C422.7,404.1,429.5,392,425,375.5L425,375.5z"/>
<path class="st0" d="M588.1,147.8c-7.2,2.8-14.9,4.3-22.7,4.2c-28.8-0.1-57.5,0.2-86.3-0.2c-8.1-0.1-12.3,1.7-14.6,10.2
	c-4.2,15.2-10.1,29.9-14.7,44.9c-1.7,5.8-4.6,7.6-10.4,7.4c-10.9-0.4-21.9,0.2-32.8-0.2c-8.7-0.3-16.1,2.5-23.6,6.6
	c-27.2,14.9-54.6,29.5-82,44.1c-1.8,0.8-3.6,1.5-5.5,2c0-14.5-0.3-28.3,0.1-42c0.2-6.9-1.5-9.6-9-9.4c-16.9,0.4-16.9,0-22.1-16
	c-3.9-12.3-8.2-24.5-11.6-36.9c-1.6-5.8-4.5-7.5-10.4-7.4c-32.2,0.3-64.4,0.2-96.7,0.1c-8.9,0.1-17.6-2.5-25-7.4
	c9.5-14,22.5-24.5,35.3-35C201,76,252.3,52.8,309.7,45.3c88.1-11.5,168.3,9,238.8,64.4C562.9,121.1,576.9,133,588.1,147.8z"/>
<path class="st0" d="M425,479.3c0,12.1-0.2,24.2,0,36.3c0.4,4.4-2.1,8.5-6.2,10.2c-20.3,10.7-40.6,21.6-60.7,32.6
	c-2.7,1.7-6.3,1.5-8.8-0.4c-16.7-10.7-33.4-21.2-50-32.1c-6.4-4.2-5.7-15.7,0.9-19.4c38.4-21.9,76.9-43.7,115.3-65.4
	c9.3-5.2,9.4-5,9.4,5.6L425,479.3z"/>
<path class="st0" d="M295.4,339.2c0-6.9,0.4-13.8-0.1-20.7c-0.5-6.3,1.8-10,7.4-12.9c38.2-20.1,76.3-40.3,114.3-60.7
	c6-3.2,8.4-3.3,8.1,4.6c-0.4,14.7-0.3,29.4,0,44c0.1,5.2-1.6,8.5-6.3,11c-38.9,20.7-77.6,41.5-116.2,62.4c-5.9,3.2-7.4,1.7-7.1-4.5
	C295.7,354.8,295.4,347,295.4,339.2z"/>
<path class="st0" d="M425,375.5c4.5,16.5-2.3,28.6-22.2,37.4c-29.8,13.3-57.9,30.4-86.8,45.9c-5.1,2.7-10.1,5.5-15.1,8.2
	c-3.6,1.9-5.4,0.7-5.4-3.4c0-16.7,0-33.3,0-50c0-4.6,3.1-6.4,6.5-8.2c31.2-16.5,62.4-33.1,93.6-49.6c7.6-4,15.2-8.1,22.8-12.2
	c4.7-2.6,6.9-1.6,6.7,4C424.9,355.7,425,363.8,425,375.5z"/>
</svg>
