<svg id="Layer_1" data-name="Layer 1" xmlns="http://www.w3.org/2000/svg" viewBox="0 0 252.01 251.13"><defs><style>.cls-1{font-size:133px;stroke-width:3px;font-family:ITCAvantGardeStd-Demi, ITC Avant Garde Gothic Std;font-weight:300;}.cls-1,.cls-3{fill:#4a4d75;}.cls-1,.cls-2{stroke:#4a4d75;}.cls-1,.cls-2,.cls-3{stroke-miterlimit:10;}.cls-2{fill:none;stroke-width:12px;}.cls-3{stroke:#1c1e2d;stroke-width:6px;}</style></defs><title>my_3D_tasks</title><text class="cls-1" transform="translate(42.17 175.52)">3D</text><path class="cls-2" d="M8.08,125.38a119.48,119.48,0,0,1,239,0" transform="translate(-2.08 0.09)"/><path class="cls-3" d="M141.51,245a54.48,54.48,0,0,1,4.12-19.38,55.58,55.58,0,0,1,24.66-28.31,3.47,3.47,0,0,1,3.05,0c15.81,10.82,31.16,10.58,47.21-.88,17.72,8,30.69,29.35,30.54,48.55Z" transform="translate(-2.08 0.09)"/><path class="cls-3" d="M196.58,135.3c18,.1,31.86,14.31,31.71,32.47-.14,17.75-14.37,31.6-32.39,31.51a32,32,0,0,1,.68-64Z" transform="translate(-2.08 0.09)"/><path class="cls-2" d="M127.56,245a119.48,119.48,0,1,1,0-238.95" transform="translate(-2.08 0.09)"/></svg>