<svg id="Layer_1" data-name="Layer 1" xmlns="http://www.w3.org/2000/svg" viewBox="0 0 530.15 588.36"><defs><style>.cls-1{fill:#4a4c74;}</style></defs><title>mycollects</title><path class="cls-1" d="M152.56,403.69c12.56-3.23,24.12-6.23,35.71-9.17,5.62-1.43,11.39-2.39,16.9-4.17,17-5.48,33-.26,49,4.09,26,7.05,51.79,14.63,77.76,21.66a12.93,12.93,0,0,0,9-1.16c17-10,34.2-19.89,50.55-31,19-12.88,39.84-12.1,56.85,4.87l13.76-8c16.29-9.54,35.31-7.4,48.62,5.82,2.6,2.57,4.52,2.91,8,1.86a39.74,39.74,0,0,1,33.85,70.86c-52.57,36.4-104.79,73.34-160,105.75-7.51,4.41-15.4,8.17-22.88,12.64-18.38,11-37.66,13.34-58.65,8.89C260.71,576,210.15,566.14,159.67,556c-1.9-.38-3.8-.7-7.11-1.31,0,3.61,0,6.89,0,10.17,0,18.46-9.08,27.61-27.38,27.61-19.78,0-39.57,0-59.35,0-15.59,0-25.84-9.68-25.88-25.19q-.24-90.18,0-180.36c0-15.87,10.19-25.46,26.15-25.47q30.54,0,61.09,0c15.63,0,25.27,9.71,25.38,25.44C152.59,392.08,152.56,397.29,152.56,403.69Zm207.32,20.83c6.77,2.09,12.16,3.66,17.48,5.43,11.39,3.79,21.77,9.26,29.48,18.8,10.09,12.49,11.26,29.77,3.17,44.8a42.47,42.47,0,0,1-42.26,22c-12.9-1.4-25.81-2.81-38.69-4.43-20-2.51-40-5.08-59.93-7.87-5.41-.76-8.35-5-7.51-9.9.88-5.16,4.14-7.85,9.4-7.47,5,.37,10,1.13,15,1.73,28.28,3.37,56.55,6.87,84.85,10.07,10.86,1.22,21.17-5.71,25-16.06s.86-20.47-8.85-27A57,57,0,0,0,371.43,447q-68.32-19.84-136.84-39c-5.8-1.61-12.48-2.62-18.21-1.39C196.14,411,176.16,416.52,156,421.4c-3.85.93-3.47,3.49-3.47,6.2,0,34.33.08,68.66-.09,103,0,4.34,1.27,5.94,5.6,6.81,48.6,9.76,97,20.6,145.77,29.44,38.9,7,30.45,10.58,69.12-11.65s75.51-47.29,112.86-71.59c19.49-12.67,38.41-26.24,57.41-39.66a21.26,21.26,0,0,0,5.45-29c-6-9.53-18.37-13.18-28-8.1-4.25,2.25-8.3,4.87-12.45,7.32q-32,19-64,37.9c-5.43,3.19-10.41,2.21-13.21-2.26-2.94-4.68-1.35-9.77,4.25-13.14,8.3-5,16.65-9.91,25-14.86,12.46-7.4,24.91-14.82,37.47-22.29-7.58-7.79-16.48-9-26.12-3.4-17.24,10-34.34,20.34-51.52,30.48-6.43,3.8-11.88,3-14.65-2s-.87-9.52,5.38-13.29c6.88-4.16,13.8-8.27,20.86-12.49-6.63-6.43-14.65-8.38-22.25-4.06C393.11,404,377.23,414,359.88,424.52Zm-302,52.16q0,43.62,0,87.22c0,9.41,1.1,10.53,10.18,10.53q28.78,0,57.56,0c7.46,0,9.3-1.79,9.31-9.19q0-88.36,0-176.75c0-7.27-1.91-9.05-9.42-9.05q-28.78,0-57.56,0c-9,0-10,1.08-10.06,10Q57.89,433.08,57.9,476.68Z" transform="translate(-39.84 -4.1)"/><path class="cls-1" d="M293.48,311.52H262.81c-3.49,0-7,.06-10.47,0-12.63-.3-21.76-9.44-21.73-21.69s9.33-21.62,21.83-21.66c28.9-.11,57.8,0,86.69-.06,15.78,0,28.55-10.68,31.35-25.83,3.6-19.47-11-36.9-31.56-37.21-15.9-.24-31.81-.05-47.71-.05a74.77,74.77,0,0,1-75.15-73.71c-.71-41.23,31.79-75,73.34-76.21,1.13,0,2.26-.13,4.08-.25,0-9.65-.19-19.09,0-28.53.39-15.46,14.09-25.56,28.39-21.16C331.1,8,337,16.27,337.25,26.85c.11,4.65,0,9.31,0,14V55.09h5.84c11.24,0,22.49-.12,33.74,0A21.56,21.56,0,0,1,398.53,77a21.19,21.19,0,0,1-21.46,21.41c-27.74.2-55.47,0-83.2.1-17.41.07-29.59,9-33.47,24-4.63,18,7.87,37.12,26.44,38.39,17.37,1.19,34.88.53,52.32.62a75,75,0,0,1,42.66,13.12c26.42,17.91,38.89,51.43,30.33,81.7-9,31.85-36.6,53.8-69.27,55.12-1.7.07-3.4.24-5.61.4,0,9.84.21,19.32,0,28.79-.43,15.75-14.42,26-28.78,21.3-8.95-2.92-14.76-11.08-14.93-21.39C293.35,331.16,293.48,321.69,293.48,311.52Z" transform="translate(-39.84 -4.1)"/></svg>