<svg id="Layer_1" data-name="Layer 1" xmlns="http://www.w3.org/2000/svg" viewBox="0 0 549.27 504.83"><defs><style>.cls-1{fill:#4a4c74;stroke:#4a4c74;stroke-width:10px;}.cls-1,.cls-2{stroke-miterlimit:10;}.cls-2{fill:#4a4e76;stroke:#4a4e76;stroke-width:7px;}</style></defs><title>mytransactions</title><path class="cls-1" d="M318.84,62.75H499.41c34.22,0,60.25,21.32,67.23,55.19a63.88,63.88,0,0,1,1.58,12.74q.15,127.37,0,254.73c0,30.39-21.8,60.89-48.55,68.28a51.38,51.38,0,0,1-13.5,1.59q-106.4.14-212.81.06c-1.61,0-3.69.6-4.74-.18-2.66-2-4.85-4.59-7.23-7,2.39-2.4,4.43-5.45,7.28-7,2.1-1.13,5.26-.32,8-.32H499c29.23,0,53.75-23,53.91-52.57q.66-129.78,0-259.56c-.11-28-24.48-51-52.54-51-120.91,0-241.83.73-362.74-.49C105.72,77,85,103.24,85,130q0,52,0,104c0,2.42.76,5.35-.34,7.12-1.57,2.55-4.53,5.88-6.88,5.86s-5.06-3.45-6.9-5.92c-.92-1.23-.32-3.64-.32-5.52,0-35.47-.1-70.94,0-106.41.14-39.78,27.06-66.4,66.89-66.4Z" transform="translate(-24.04 -57.75)"/><path class="cls-1" d="M136.33,312.21c34.13,0,60.67,26.35,60.67,60.36A60.54,60.54,0,0,1,75.92,373C75.87,339,102.46,312.25,136.33,312.21Zm0,12A48.39,48.39,0,0,0,88,373.11c.12,26.29,22.27,48.16,48.71,48.1,26.74-.07,48.32-22,48.23-49.1A48.19,48.19,0,0,0,136.32,324.24Z" transform="translate(-24.04 -57.75)"/><path class="cls-1" d="M137.26,462.4c-43.52,0-81.37,26.79-92.75,66-1.86,6.42-2.66,13.2-3.36,19.87-.48,4.64-.38,9.81-6.61,9.21-5.91-.57-5.74-5.67-5.31-10.33,4-44,27.54-73.73,68.14-89.2,51.82-19.75,110,.92,135.7,47a92.11,92.11,0,0,1,12.13,44.7c0,4.26-.77,7.95-5.8,8-4.56,0-6-3.52-6-7.43C233.75,504.28,191.43,462.08,137.26,462.4Z" transform="translate(-24.04 -57.75)"/><path class="cls-2" d="M346.18,115.18q.15,8.11.29,16.22c0,1.39,0,2.78,0,4,7.39,1.34,14.63,2.21,21.61,4,21.6,5.56,37.07,17.74,44.3,38.24a54.42,54.42,0,0,1,3.24,20H396c-2.37,0-4.75-.1-7.11,0-1.95.11-2.78-.42-3-2.41a38.31,38.31,0,0,0-5.22-16.18c-6.26-10.42-15.7-16.43-28.31-17.91-.88-.1-1.75-.31-2.63-.4s-1.76-.12-3-.2c-.06,1.07-.16,2.05-.16,3,0,23.36,0,46.72-.06,70.08,0,2.25.61,3.19,3,3.82,15,4,29.94,8.16,43.72,15.17,17.4,8.84,26.43,22.88,27.84,41.45a84.25,84.25,0,0,1-4.65,36.12c-6.81,18.39-20.45,30.34-39.94,36-9.54,2.79-19.47,4.43-29.8,6.71v29.17H330.3V372.39c-4.43-.53-8.63-.9-12.78-1.54-17.21-2.66-33-8.21-45.1-20.74-9-9.33-13.79-20.55-15.71-32.88-1.06-6.78-1.44-13.66-2.15-20.7h30c1,6.32,1.82,12.49,2.87,18.63a36.38,36.38,0,0,0,10.64,20.2,39.83,39.83,0,0,0,10,6.85c6.77,3.37,14.2,4.85,22,5.47v-85c-4.19-.94-8.41-1.8-12.58-2.84-11.49-2.85-22.52-6.73-32.52-12.95-14.55-9-22.45-21.92-24.66-38.07-2-15,.67-29.15,9.23-42.12,11.43-17.34,27.81-27.33,49.34-29.64,3.7-.4,7.42-.65,11.32-1V115.18Zm.38,233.25a56.49,56.49,0,0,0,23.82-5.53,34.24,34.24,0,0,0,9.09-6.62,37.72,37.72,0,0,0,11.31-27.69c0-7.35-1.15-14.42-5.33-20.85-4.75-7.32-11.64-12.06-19.91-15.1-6.16-2.27-12.45-4.21-19-6.4ZM330.05,160.08c-3.28.38-6.24.57-9.14,1.08-9,1.6-16.79,5.26-22.29,12.48-6.54,8.59-9.51,18.11-8.13,28.7a27.06,27.06,0,0,0,6.57,15c8.65,9.53,20.39,13.45,33,16Z" transform="translate(-24.04 -57.75)"/></svg>