<svg id="Layer_1" data-name="Layer 1" xmlns="http://www.w3.org/2000/svg" viewBox="0 0 303.47 235.12"><defs><style>.cls-1{fill:#4a4d75;}</style></defs><title>operationsIcon</title><path class="cls-1" d="M285.94,145.13l-18.32,18.32c-4.79-3-9.64-6.15-14.51-9.24-3-1.92-6-3.89-9.08-5.71a3.12,3.12,0,0,0-2.33-.12c-2.58,1-5,2.21-7.65,3.11a3.16,3.16,0,0,0-2.26,2.61q-2.79,12.75-5.64,25.49c-.09.42-.25.82-.41,1.33-8.27,0-16.49,0-24.72,0-.42,0-1.1-.73-1.22-1.22-1.43-6.22-2.79-12.46-4.16-18.7,0-.24-.07-.5-.13-.74-.67-2.66-.62-5.94-2.22-7.79s-5-2.12-7.39-3.41a4.7,4.7,0,0,0-5.56.34c-6.83,4.57-13.82,8.89-20.75,13.3-.72.45-1.33,1.1-2.27.15-5.74-5.79-11.53-11.54-17.44-17.44l6-9.54c3-4.76,6.08-9.5,9-14.32a3,3,0,0,0,.09-2.32c-1-2.65-2.24-5.18-3.12-7.85a2.68,2.68,0,0,0-2.32-2c-8.56-1.88-17.11-3.78-25.67-5.63-.91-.2-1.44-.4-1.43-1.5,0-8.17,0-16.33,0-24.64,4.39-1,8.71-2,13-2.91,4.77-1.06,9.56-2,14.3-3.19a3.26,3.26,0,0,0,1.88-1.66c1.21-2.61,2.17-5.33,3.35-8a2.36,2.36,0,0,0-.15-2.56q-7-10.84-13.85-21.74c-.37-.58-.71-1.17-1.3-2.14,2.76-2.65,5.56-5.32,8.32-8,3-2.9,5.9-5.82,8.77-8.81a1.76,1.76,0,0,1,2.68-.34c7.32,4.74,14.71,9.38,22,14.13a2.72,2.72,0,0,0,3.06.12,61.28,61.28,0,0,1,7.12-2.94,3.12,3.12,0,0,0,2.37-2.65C196,18.46,197.88,10,199.68,1.59,200,.3,200.5,0,201.69,0q11.2.06,22.42,0c1.27,0,1.83.25,2.13,1.63C228,10,230,18.38,231.78,26.76a3.23,3.23,0,0,0,2.36,2.73,73.5,73.5,0,0,1,7.44,3.12,2.44,2.44,0,0,0,2.73-.21q10.44-6.73,20.91-13.4c2.6-1.67,2.57-1.65,4.76.55,5.31,5.35,10.64,10.66,16.07,16.09q-4.79,7.55-9.56,15.06c-1.89,3-3.83,5.89-5.63,8.9a2.83,2.83,0,0,0,0,2.16c1,2.69,2.31,5.28,3.28,8a2.59,2.59,0,0,0,2.22,1.86c8.5,1.86,17,3.78,25.5,5.59,1.27.27,1.61.74,1.61,2q-.08,11.3,0,22.61c0,1.2-.3,1.71-1.58,2-8.51,1.8-17,3.73-25.5,5.57a2.68,2.68,0,0,0-2.3,2,75.77,75.77,0,0,1-3.28,7.78,2.25,2.25,0,0,0,.17,2.54C276,129.51,281,137.4,285.94,145.13Zm-73-24.48a30.18,30.18,0,1,0-30.13-30.24A30.17,30.17,0,0,0,212.91,120.65Z"/><path class="cls-1" d="M12.83,126.08,22.21,117c1.21-1.18,2.34-2.45,3.64-3.53a2,2,0,0,1,1.83-.19q8.15,5.07,16.18,10.32a2.4,2.4,0,0,0,2.88.2A14.33,14.33,0,0,1,50.87,122c2.1-.44,2.63-1.74,3-3.61,1.3-6.25,2.78-12.46,4.21-18.77H77.37c1.52,6.68,3.1,13.35,4.54,20a2.44,2.44,0,0,0,1.83,2,31.4,31.4,0,0,1,4.67,1.93c1.43.79,2.46.48,3.73-.35,5.5-3.61,11.07-7.11,16.55-10.61l13.78,13.72-6.91,10.89c-1.4,2.23-2.86,4.42-4.18,6.7a2.72,2.72,0,0,0-.08,2c.63,1.77,1.58,3.43,2.1,5.23a2.88,2.88,0,0,0,2.59,2.19c6.5,1.38,13,2.83,19.53,4.27v19.41c-5.78,1.29-11.53,2.76-17.37,3.78-2.89.5-4.35,1.73-5.57,4.44-1.53,3.4-1.45,5.93.81,9,3.31,4.48,6.07,9.35,9,14l-14,13.61c-3.44-2.18-7.3-4.61-11.15-7.06-2-1.28-4-2.66-6-3.84a3,3,0,0,0-2.17-.1,46.26,46.26,0,0,0-5.55,2.29A3.18,3.18,0,0,0,82,215c-1.59,6.69-3.08,13.4-4.61,20.16H58.08c-1.43-6.39-2.9-12.72-4.24-19.08-.36-1.67-.81-2.92-2.75-3.2a7,7,0,0,1-2.78-1.09c-2.08-1.44-3.74-1.2-5.85.28-4.71,3.32-9.68,6.28-14.55,9.37a12.83,12.83,0,0,1-1.22.62L13.05,208.34c3.14-4.93,6.24-10,9.56-14.94a6.52,6.52,0,0,0,.91-6.75c-1.43-4-3.64-5.59-7.66-6.18-5.3-.78-10.52-2.23-15.86-3.4V157.68c5.75-1.29,11.5-2.78,17.33-3.79,3-.51,5-1.53,5.52-4.62a2.58,2.58,0,0,1,.43-1c1.88-2.5.94-4.57-.63-6.87C19.33,136.49,16.26,131.45,12.83,126.08ZM67.48,190a22.64,22.64,0,1,0-22.37-23A22.61,22.61,0,0,0,67.48,190Z"/><path class="cls-1" d="M91.7,13c0,3.68.06,7.13,0,10.57a2.77,2.77,0,0,0,1.12,2.31c2,2,4,1.91,6.44.81,2.1-1,4.37-1.54,6.51-2.43,1.12-.46,1.67-.15,2.25.81,1.53,2.51,3.15,5,4.85,7.64-2.4,2.44-4.81,4.87-7.21,7.32a4.42,4.42,0,0,0,1.27,6.92c3.07,1.41,6.12,2.86,9.26,4.34-.79,3.46-1.56,6.8-2.37,10.33H103.42c-2.43,0-4.77,3.3-4,5.57,1.16,3.23,2.34,6.45,3.57,9.84L93.79,82.9c-2.42-2.56-4.82-5.11-7.24-7.66-1.45-1.52-5.5-1-6.4.93-1.55,3.22-3,6.47-4.58,9.85l-10.4-2.37c0-3.59,0-7.1,0-10.6,0-2.13-3.39-4.51-5.41-3.79-2.83,1-5.66,2-8.47,3.1-.95.37-1.55.33-2.15-.63-1.6-2.54-3.32-5-5.07-7.63,2.43-2.48,4.71-5,7.16-7.25a3.43,3.43,0,0,0,1.16-3.2c-.16-2.74-1.67-3.83-4-4.69-2.57-1-5-2.3-7.66-3.54q.58-2.55,1.15-5.08c.38-1.71.75-3.42,1.17-5.31H53.46c2.48,0,4.78-3.25,4-5.58-1.14-3.18-2.29-6.36-3.54-9.82l9.17-5.88c2.26,2.38,4.55,4.77,6.82,7.18A4.41,4.41,0,0,0,77,19.84c1.44-3.05,2.89-6.1,4.36-9.19ZM78.5,59A10.67,10.67,0,0,0,89.17,48.35a10.71,10.71,0,1,0-21.41.09A10.6,10.6,0,0,0,78.5,59Z"/></svg>