<?xml version="1.0" encoding="utf-8"?>
<!-- Generator: Adobe Illustrator 23.0.1, SVG Export Plug-In . SVG Version: 6.00 Build 0)  -->
<svg version="1.1" id="Layer_1" xmlns="http://www.w3.org/2000/svg" xmlns:xlink="http://www.w3.org/1999/xlink" x="0px" y="0px"
	 viewBox="0 0 400 400" style="enable-background:new 0 0 400 400;" xml:space="preserve">
<style type="text/css">
	.st0{fill:#4A4D75;}
</style>
<g>
	<path class="st0" d="M36,364c3,0,5.2,0,7.3,0c115.3,0,230.6,0,345.9,0c10,0,10.7,0.7,10.7,10.9c0,5.2,0,10.3,0,15.5
		c0,8.3-1.3,9.6-9.4,9.6c-41.8,0-83.7,0-125.5,0c-85.2,0-170.3,0-255.5,0c-8.3,0-9.6-1.3-9.6-9.4c0-127,0-254,0-380.9
		C0,1.3,1.3,0,9.4,0c6.5,0,13-0.1,19.5,0c4.9,0.1,6.9,2.1,7,7c0.1,1.3,0,2.7,0,4c0,115.3,0,230.6,0,345.9C36,359.1,36,361.3,36,364z
		"/>
	<path class="st0" d="M72.9,171c-6.9-8.4-13.5-16.3-20.4-24.6c7-5.8,13.6-11.5,20.4-17.1c29.2-24.3,58.4-48.5,87.7-72.7
		c2.8-2.3,6-4.4,9.4-5.3c6.5-1.6,12,0.9,16.3,6.2c10.8,13.3,21.6,26.6,32.5,39.9c0.7,0.9,1.5,1.7,2.6,3c23-19.1,45.9-38.1,69.4-57.6
		c-4.5-4.6-8.9-8.8-13-13.2c-1.2-1.3-2.7-3.6-2.3-5c0.4-1.3,2.9-2.4,4.7-2.7c21.2-3.3,42.4-6.5,63.7-9.7c5.1-0.8,6.7,0.7,6,5.6
		c-3.2,21.4-6.4,42.8-9.7,64.2c-0.3,1.7-1.4,3.9-2.8,4.6c-1,0.5-3.4-0.9-4.6-2c-6.3-6.2-12.3-12.6-18.7-19.1
		c-7.8,6.5-15.1,12.5-22.4,18.5c-20.1,16.7-40.2,33.4-60.3,50.2c-9.4,7.8-18.3,7.1-26-2.3c-10.6-12.9-21-25.8-31.5-38.8
		c-0.8-1-1.7-2-2.9-3.2C138.2,116.8,105.9,143.7,72.9,171z"/>
	<path class="st0" d="M257.7,347.8c-26,0-51.5,0-77.6,0c0-2,0-3.8,0-5.5c0-50.3,0-100.6,0-151c0-9.1,1.4-10.5,10.3-10.5
		c19.8,0,39.7,0.1,59.5,0.1c5.6,0,8.1,2.3,8.1,7.7c0,51.7,0,103.3,0,155C257.9,344.8,257.8,346.1,257.7,347.8z"/>
	<path class="st0" d="M152.4,347.8c-25.8,0-51.3,0-77.4,0c0-1.9,0-3.7,0-5.4c0-34.1,0-68.3,0-102.4c0-8.2,1.7-9.9,9.9-9.9
		c20,0,40,0,60,0c5.6,0,8,2.3,8,7.9c0.1,35.8,0,71.6,0,107.4C152.8,346,152.6,346.6,152.4,347.8z"/>
	<path class="st0" d="M362.7,347.8c-26,0-51.4,0-77.3,0c-0.1-1.8-0.2-3.4-0.2-5c0-34.3,0-68.6,0-102.9c0-8,1.8-9.8,9.6-9.8
		c20,0,40,0,60,0c6,0,8.2,2.1,8.2,8c0,35.5,0,71,0,106.4C363,345.4,362.9,346.4,362.7,347.8z"/>
</g>
</svg>
