<?xml version="1.0" encoding="utf-8"?>
<!-- Generator: Adobe Illustrator 23.0.1, SVG Export Plug-In . SVG Version: 6.00 Build 0)  -->
<svg version="1.1" id="f9b92695-5968-4fad-9869-15f787828b74"
	 xmlns="http://www.w3.org/2000/svg" xmlns:xlink="http://www.w3.org/1999/xlink" x="0px" y="0px" viewBox="0 0 221.8 192.8"
	 style="enable-background:new 0 0 221.8 192.8;" xml:space="preserve">
<style type="text/css">
	.st0{fill:#494B74;}
</style>
<title>Quality Control</title>
<path class="st0" d="M139.7,137.1c-3.1,7.3-3,14.5-4.4,21.4c-1.6,7.5-2.8,15-5.9,22.1c-2.9,6.6-7.4,11.8-15.1,12.2
	c-8,0.4-14.5-3.2-19-10c-7.2-10.8-9.6-23.2-11-35.8c-0.7-6.4-0.9-12.9-2.1-19.3c-2.2-12-9.9-20-20-25.9c-2.2-1.3-3.3,0-4.7,1.3
	c-14.9,14.3-29.8,28.5-44.7,42.8c-0.9,1-1.9,1.9-3,2.6c-3.1,1.7-6.3,1.9-8.4-1.3c-1.8-2.6-2-5.8,0.5-8.2c12.4-12.1,24.9-24,37.4-36
	c3.3-3.1,6.5-6.3,9.8-9.2c1.9-1.7,2.2-3.1,0.6-5.4c-7.4-10.6-10.1-22.4-9.5-35.4c0.4-10.5,4-20.7,10.2-29.2
	C62.2,7.5,78.5-0.5,98.5,0c16.7,0.4,30.5,7.3,41.3,20.1c2,2.4,2.9,2.4,5.5,1c12.1-6.3,24.8-6.6,37.8-3.5
	c20.4,4.8,34.2,16.9,37.7,37.8c3.3,19.8-1.2,38.6-14.1,54.4c-6.8,8.3-9.8,17.5-11.3,27.7c-2.3,15.1-4.8,30.1-12.5,43.8
	c-3.8,6.8-9.1,11.8-16.9,11.2c-8.6-0.6-15.1-5.6-18.5-14c-3.8-9.3-5.3-19.2-5.9-29.1C141.2,145.5,141.1,141.6,139.7,137.1z
	 M209.4,69.1c0-14.7-3.7-25.2-13.9-32.4c-13.1-9.3-27.5-10.9-42.6-5.4c-3.2,1.2-4.6,3.5-2.9,7.1c1.4,3.2,2.3,6.6,2.7,10
	c2.9,21.8-4.6,39.6-21.4,53.3c-10,8.3-22.8,12.4-35.8,11.3c-2.4-0.2-5.4-0.3-3.7,3.5c4.9,10.6,3.7,22.2,5.4,33.2
	c1.6,9.9,3.6,19.7,10.2,27.6c3.8,4.5,8.1,3.5,10.5-1.8s3.4-10.8,4.4-16.3c1.8-9.4,2.6-19.1,6-28.2c3.4-8.7,10.9-12.1,17-7.4
	c3.6,2.7,5.6,6.5,6.8,10.7c1.8,6.3,0.7,12.9,2,19.3c1.4,7,1.7,14.2,5.1,20.7c1.5,2.8,3.3,5.2,6.6,5.4s4.6-2.9,6.1-5.1
	c0.5-0.7,0.9-1.4,1.2-2.2c5.1-10.4,7.3-21.7,8.9-33c1.9-13.1,4.3-26,13.5-36.3S208.3,80,209.4,69.1L209.4,69.1z M140.4,57
	c0.2-23.5-18-44.1-43.8-44c-25,0.1-43.9,18.9-43.8,44.1c0.1,25,19.1,43.2,43.4,43.5c24,0.4,43.8-18.7,44.2-42.7
	C140.4,57.6,140.4,57.3,140.4,57z"/>
</svg>
