<svg id="Layer_1" data-name="Layer 1" xmlns="http://www.w3.org/2000/svg" viewBox="0 0 517.18 517.61"><defs><style>.cls-1,.cls-2{fill:#4a4c75;}.cls-1{stroke:#4a4c75;stroke-miterlimit:10;stroke-width:12px;}</style></defs><title>rejected</title><path class="cls-1" d="M309.28,12.25c8.36,1.07,16.76,1.84,25.06,3.26,90.54,15.43,156,64.63,193.85,148.13C586.77,292.72,522.77,448.22,391,499.91,242.12,558.33,79.35,468.57,49.16,311.38c-18.81-97.95,24.67-201,107.78-256,37.3-24.7,78.09-38.88,122.72-42A40.08,40.08,0,0,0,285,12.25ZM297.44,492.87c125.75-.24,227.43-102.07,227.39-227.72,0-125.95-102.35-227.72-228.75-227.56-125.21.15-226.71,102.85-226.54,229.2C69.71,391.28,172.36,493.11,297.44,492.87Z" transform="translate(-38.82 -6.25)"/><path class="cls-2" d="M298.7,320.47c-11.81,12-23.27,23.62-34.79,35.21s-23.11,23.19-34.72,34.74c-5.27,5.25-8.13,5.27-13.48,0q-18.6-18.47-37.07-37.05c-5.17-5.19-5.24-8.25,0-13.54q32.7-32.87,65.5-65.6c1.28-1.29,2.51-2.63,4.65-4.87-9.41-9.11-18.71-17.95-27.82-27q-21.18-21-42.15-42.13c-5.55-5.59-5.56-8.3,0-13.89q18.27-18.4,36.67-36.68c5.59-5.55,8.39-5.54,13.91,0q32.82,32.74,65.59,65.52c1.27,1.27,2.61,2.46,4.35,4.1,12.58-12.68,24.85-25.08,37.15-37.45q15.75-15.85,31.56-31.65c6-6,8.9-6.15,14.75-.33q18.39,18.28,36.67,36.69c5.19,5.23,5.15,8.33,0,13.51q-32.16,32.22-64.39,64.38c-1.68,1.66-3.94,2.75-5.92,4.11l-.09,2.66c3.65,3,7.54,5.84,10.89,9.17,19.6,19.42,39.06,39,58.58,58.49,6.5,6.5,6.53,8.92,0,15.52q-17.73,17.78-35.52,35.5c-6,6-8.7,6.06-14.72,0q-32.76-32.81-65.49-65.63C301.72,323.2,300.62,322.25,298.7,320.47Z" transform="translate(-38.82 -6.25)"/></svg>