<svg id="Layer_1" data-name="Layer 1" xmlns="http://www.w3.org/2000/svg" viewBox="0 0 670.1 599.17"><defs><style>.cls-1{fill:#494b74;}</style></defs><title>repeatcauses</title><path class="cls-1" d="M221.13,617.65H399c3.39,0,7.54-1,9.92.33,4.4,2.47,10.43,6.4,10.69,9.88s-5.66,7.63-9.81,10.32c-2.26,1.46-6.53.45-9.93.45H41.67c-9.17,0-21.11,1.35-21.36-10.1-.13-12.23,12.06-10.88,21.74-10.88Z" transform="translate(-19.3 -62.92)"/><path class="cls-1" d="M219.63,360.13H40.41c-3.77,0-8.29,1-11.18-.56-3.9-2-8.67-5.95-8.92-9.31s4-8.08,7.79-9.88c4.15-1.9,9.8-1.34,14.83-1.34q177.2-.18,354.53,0c4.65,0,10.05-.9,13.57,1,3.9,2,8.67,6.84,8.42,10.21s-5.66,7.06-9.68,9.42c-2.38,1.35-6.53.34-9.93.34C339.9,360.13,279.7,360.13,219.63,360.13Z" transform="translate(-19.3 -62.92)"/><path class="cls-1" d="M219.63,499.36H40.41c-3.39,0-7.54,1-9.92-.33-4.15-2.47-9.81-6.17-10.06-9.65s4.78-8.08,8.8-10.44c3-1.79,8.17-.89,12.32-.89h357c2.89,0,5.9-.12,8.8.11,7.66.56,14.07,4,12.19,11.11-1.14,4-7.29,8.64-12.19,9.76-7.55,1.68-15.84.45-23.88.45Q301.68,499.3,219.63,499.36Z" transform="translate(-19.3 -62.92)"/><path class="cls-1" d="M219.63,200.94H399c3.77,0,8.29-1,11.18.56,3.77,1.91,8.67,5.83,8.8,9s-4.15,8-7.79,9.76-9.05.89-13.58.89H40.29c-3.77,0-8.42,1-11.19-.56-4-2.24-9.17-6.39-9.17-9.76s5.28-7.29,9.3-9.42c2.76-1.46,7.41-.45,11.18-.45Z" transform="translate(-19.3 -62.92)"/><path class="cls-1" d="M113.31,83.23H35c-8.17,0-15.83-.57-15.71-10.21.13-8.53,7-10.1,15-10.1h159.1c8,0,14.58,1.91,14.45,10.43-.12,8.75-7,9.76-14.95,9.76Q153.08,83.29,113.31,83.23Z" transform="translate(-19.3 -62.92)"/><path class="cls-1" d="M432.65,62.92c54,44.62,105.76,87.41,159.17,131.5-53,43.75-105,86.8-158.56,131.16-.26-5.48-.52-8.87-.52-12.26v-58.8c0-13.83-.87-14.52-14.7-13.13-73.32,7.48-132.28,59.23-146.72,131.68-16.79,84,34.09,167.07,119.15,189.51,84.71,22.27,170.64-25.74,197-109.24,4-12.78,5.39-26.35,7.48-39.66.78-4.78,1.48-8,7.39-7.91,28.09.17,56.27.09,87.06.09-1.83,16.17-2.17,31.74-5.57,46.7C660.18,558.06,596,626.68,491.62,654.25,359.68,689,219.57,604.24,184,473c-35.4-130.46,36.27-264.49,159.07-309.37,25.22-9.22,51.23-15,78.19-15.13,8.79,0,11.83-3,11.66-11.83C432.39,113.19,432.65,89.71,432.65,62.92Z" transform="translate(-19.3 -62.92)"/></svg>