<?xml version="1.0" encoding="utf-8"?>
<!-- Generator: Adobe Illustrator 23.0.1, SVG Export Plug-In . SVG Version: 6.00 Build 0)  -->
<svg version="1.1" id="Layer_1" xmlns="http://www.w3.org/2000/svg" xmlns:xlink="http://www.w3.org/1999/xlink" x="0px" y="0px"
	 viewBox="0 0 708.7 708.7" style="enable-background:new 0 0 708.7 708.7;" xml:space="preserve">
<style type="text/css">
	.st0{fill:#494B74;}
</style>
<g>
	<path class="st0" d="M11.3,354.5c51.3-62.1,100.5-121.6,151.2-183c50.3,60.9,99.8,120.7,150.8,182.3c-6.3,0.3-10.2,0.6-14.1,0.6
		c-22.5,0-45.1,0-67.6,0c-15.9,0-16.7,1-15.1,16.9c8.6,84.3,68.1,152.1,151.4,168.7c96.6,19.3,192.1-39.2,217.9-137
		c25.6-97.4-29.6-196.2-125.6-226.5c-14.7-4.6-30.3-6.2-45.6-8.6c-5.5-0.9-9.2-1.7-9.1-8.5c0.2-32.3,0.1-64.7,0.1-100.1
		c18.6,2.1,36.5,2.5,53.7,6.4c121.3,27.2,200.2,101,231.9,221c40,151.7-57.5,312.8-208.4,353.7c-150,40.7-304.1-41.7-355.7-182.9
		c-10.6-29-17.2-58.9-17.4-89.9c0-10.1-3.4-13.6-13.6-13.4C69.1,354.8,42.1,354.5,11.3,354.5z"/>
</g>
</svg>
