<?xml version="1.0" encoding="utf-8"?>
<!-- Generator: Adobe Illustrator 23.0.1, SVG Export Plug-In . SVG Version: 6.00 Build 0)  -->
<svg version="1.1" id="Layer_1" xmlns="http://www.w3.org/2000/svg" xmlns:xlink="http://www.w3.org/1999/xlink" x="0px" y="0px"
	 viewBox="0 0 708.7 708.7" style="enable-background:new 0 0 708.7 708.7;" xml:space="preserve">
<style type="text/css">
	.st0{fill:#494B74;}
</style>
<g>
	<path class="st0" d="M221.1,617.6c59.3,0,118.5,0,177.8,0c3.4,0,7.5-1,9.9,0.3c4.4,2.5,10.4,6.4,10.7,9.9c0.1,3.4-5.7,7.6-9.8,10.3
		c-2.3,1.5-6.5,0.4-9.9,0.4c-119.4,0-238.8,0-358.2,0c-9.2,0-21.1,1.3-21.4-10.1c-0.1-12.2,12.1-10.9,21.7-10.9
		C101.7,617.6,161.4,617.6,221.1,617.6z"/>
	<path class="st0" d="M219.6,360.1c-59.7,0-119.4,0-179.2,0c-3.8,0-8.3,1-11.2-0.6c-3.9-2-8.7-5.9-8.9-9.3c-0.3-3.3,4-8.1,7.8-9.9
		c4.1-1.9,9.8-1.3,14.8-1.3c118.1-0.1,236.4,0,354.5,0c4.6,0,10.1-0.9,13.6,1c3.9,2,8.7,6.8,8.4,10.2c-0.1,3.4-5.7,7.1-9.7,9.4
		c-2.4,1.3-6.5,0.3-9.9,0.3C339.9,360.1,279.7,360.1,219.6,360.1z"/>
	<path class="st0" d="M219.6,499.4c-59.7,0-119.4,0-179.2,0c-3.4,0-7.5,1-9.9-0.3c-4.1-2.5-9.8-6.2-10.1-9.6
		c-0.3-3.5,4.8-8.1,8.8-10.4c3-1.8,8.2-0.9,12.3-0.9c119,0,238,0,357,0c2.9,0,5.9-0.1,8.8,0.1c7.7,0.6,14.1,4,12.2,11.1
		c-1.1,4-7.3,8.6-12.2,9.8c-7.5,1.7-15.8,0.4-23.9,0.4C329,499.4,274.3,499.4,219.6,499.4z"/>
	<path class="st0" d="M219.6,200.9c59.8,0,119.5,0,179.3,0c3.8,0,8.3-1,11.2,0.6c3.8,1.9,8.7,5.8,8.8,9c0.1,3.3-4.1,8-7.8,9.8
		c-3.6,1.8-9,0.9-13.6,0.9c-119.1,0-238.3,0-357.3,0c-3.8,0-8.4,1-11.2-0.6c-4-2.2-9.2-6.4-9.2-9.8c0-3.3,5.3-7.3,9.3-9.4
		c2.8-1.5,7.4-0.4,11.2-0.4C100.1,200.9,159.9,200.9,219.6,200.9z"/>
	<path class="st0" d="M113.3,83.2c-26.1,0-52.2,0-78.3,0c-8.2,0-15.8-0.6-15.7-10.2c0.1-8.5,7-10.1,15-10.1c53,0,106.1,0,159.1,0
		c8,0,14.6,1.9,14.5,10.4c-0.1,8.8-7,9.8-15,9.8C166.3,83.2,139.8,83.2,113.3,83.2z"/>
</g>
<g>
	<path class="st0" d="M432.7,62.9c54,44.6,105.8,87.4,159.2,131.5c-53,43.7-105,86.8-158.6,131.2c-0.3-5.5-0.5-8.9-0.5-12.3
		c0-19.6,0-39.2,0-58.8c0-13.8-0.9-14.5-14.7-13.1c-73.3,7.5-132.3,59.2-146.7,131.7c-16.8,84,34.1,167.1,119.2,189.5
		c84.7,22.3,170.6-25.7,197-109.2c4-12.8,5.4-26.4,7.5-39.7c0.8-4.8,1.5-8,7.4-7.9c28.1,0.2,56.3,0.1,87.1,0.1
		c-1.8,16.2-2.2,31.7-5.6,46.7C660.2,558.1,596,626.7,491.6,654.3C359.7,689,219.6,604.2,184,473
		c-35.4-130.5,36.3-264.5,159.1-309.4c25.2-9.2,51.2-15,78.2-15.1c8.8,0,11.8-3,11.7-11.8C432.4,113.2,432.7,89.7,432.7,62.9z"/>
</g>
</svg>
