<svg id="Layer_1" data-name="Layer 1" xmlns="http://www.w3.org/2000/svg" viewBox="0 0 502.44 339.43"><defs><style>.cls-1,.cls-2{fill:#494b74;}.cls-1{stroke:#494b74;stroke-miterlimit:10;stroke-width:4px;}</style></defs><title>scan_list</title><path class="cls-1" d="M8.4,198.72c2.8-4.28,5.3-8.78,8.44-12.78,6.08-7.72,12.54-15.13,18.79-22.72,5.45-6.61,11.9-9.82,21-9.83,24.25,0,48.61.05,72.71-2.21,13.72-1.29,27.25-6.4,40.47-11,27.94-9.64,56.27-18.29,85.89-18.65,40.39-.49,80.83.76,121.22,2.06,28.47.91,56.91,3.08,85.35,4.84,11.14.69,22.29,1.58,33.38,2.78,7.51.82,8.93,3.94,5.35,10.52-4.95,9.09-10,18.14-15.55,28.23,5.41,0,9.86,0,14.32,0,6.58.05,8.77,3.32,5.82,9.22-6.62,13.25-13.26,26.51-20.37,39.5-1.16,2.11-4.75,4-7.26,4.06-13.48.26-27,.09-40.46-.37-4.15-.15-6.75,1-7.8,4.9-2.15,7.92-7.24,10.08-15.13,9.54-10-.69-20-.2-30.06-.1-3.51,0-6.29-.9-6.64-4.75s2.22-5.58,5.76-5.66c9.62-.23,19.25-.52,28.88-.35,4.21.08,6.57-1.15,8.38-5.14,6-13.27,12.47-26.35,19.22-40.48-10.37-.53-19.83-1.36-29.31-1.45-47.19-.46-94.41-1.57-141.58-.74-28.22.5-56.39,4.2-84.59,6.32-3.91.29-5.28,1.79-5.25,5.73.1,10.2-.08,20.42-.34,30.63-.19,7.08-3.21,8.89-9.72,6-16.54-7.41-33.3-14.58-51.48-16.27-16.27-1.52-32.68-1.51-49-2-5.19-.14-9.74-.72-13.35-5.23-2.61-3.26-13.06-2.76-17.36-.53-4.68,2.42-9.6,4.79-14.7,5.9-7.21,1.58-12.83-1.08-14.95-8.87Zm171.13-24.51c8.16-1.05,15.54-2.5,23-2.85,37.32-1.77,74.65-4.61,112-4.5,50.83.14,101.66,2.63,152.49,4,2.09,0,5.32-.3,6.12-1.62,5.27-8.67,10-17.66,15.39-27.37-2.85-.49-4.83-1-6.84-1.15-25-1.69-49.94-3.8-74.94-4.87C363,134,319.3,132.61,275.6,131.38c-31.16-.88-61.18,5.78-90.68,15.12-2,.63-5.07,2.27-5.15,3.59C179.28,157.9,179.53,165.75,179.53,174.21Zm-10.95-21.68c-3,.89-5.38,1.68-7.78,2.25-11.38,2.68-22.68,6.88-34.19,7.62-23.43,1.52-47,1-70.46,1.75-3.33.1-7.61,1.4-9.72,3.71-8.31,9.09-15.94,18.8-23.78,28.31-.24.29,0,1,0,2.45,2.71-1.18,5.47-1.59,7-3.18,5.18-5.49,11.62-5,18.16-4.75,2.69.12,5.42-.14,8.08.22,1.78.24,4.23.77,5,2,3,4.69,7.13,5,12,4.88,32-.9,63.48,1.87,93.07,15.61.56.26,1.35,0,2.66,0Zm268.33,59.62c13.65,0,25.55,0,37.45-.06a3.71,3.71,0,0,0,2.8-1.39c5-9.44,9.81-19,15.28-29.63-13.74,0-26.13,0-38.52.07a3.62,3.62,0,0,0-2.69,1.59C446.63,192,442.18,201.26,436.91,212.15Z" transform="translate(-6.4 -119.46)"/><path class="cls-2" d="M269.78,458.89c-4.71-1.05-9.4-2.22-14.14-3.15C198.86,444.63,157,394.9,155.45,339.31c-1.67-59.06,37.68-112.67,97.69-125.7,70.64-15.35,139,33.2,148.25,105,9,69.35-39.44,130.74-109.31,138.69-1.73.19-3.38,1.08-5.06,1.64ZM170.29,334.68A108.68,108.68,0,0,0,279.42,443.45c64.26-.29,109.56-54.68,108.52-110.27-1.1-58.9-49.52-107.79-108.86-107.77C219.05,225.43,170.22,274.47,170.29,334.68Z" transform="translate(-6.4 -119.46)"/><path class="cls-2" d="M279.22,349.74c-7,.12-12.73-4.53-15.24-11.29-1.35-3.64-3.38-7.54-6.24-10-13.36-11.64-27.09-22.84-40.73-34.16-4.15-3.44-8.95-7.3-4.36-12.83,4.73-5.7,9.66-2,14.1,1.72Q246.81,300,267,316.69a15.27,15.27,0,0,0,20.21-.81q12.74-12.67,25.25-25.6c3.49-3.6,7.56-5.6,11.51-1.73,4.11,4,2.57,8.45-1.25,12.27-6.62,6.64-13,13.5-19.76,20-4.86,4.73-9.12,9.14-9.56,16.85C293,345,286.29,349.62,279.22,349.74Z" transform="translate(-6.4 -119.46)"/></svg>