<?xml version="1.0" encoding="utf-8"?>
<!-- Generator: Adobe Illustrator 23.0.1, SVG Export Plug-In . SVG Version: 6.00 Build 0)  -->
<svg version="1.1" id="b0405882-0f84-4865-b45e-fb36d3acc5ff"
	 xmlns="http://www.w3.org/2000/svg" xmlns:xlink="http://www.w3.org/1999/xlink" x="0px" y="0px" viewBox="0 0 708.7 708.7"
	 style="enable-background:new 0 0 708.7 708.7;" xml:space="preserve">
<style type="text/css">
	.st0{fill:#494B74;}
</style>
<title>Sintering</title>
<path class="st0" d="M212.8,622.4c-31.7,0-63.4,0.2-95.1,0.7c-11,0.2-12.7-8.1-15.8-15.4C74,542.4,75.3,474.9,88.3,407
	c9.3-51.4,31.8-99.5,65.2-139.7c33.5-40.2,66.7-80.7,103.4-125.4c0,21,0.4,36.2,0,51.5c-0.5,12.6,4.1,13.9,14.2,8.6
	c24-12.9,41.2-32.4,54.8-55.4c20.5-34.9,30.2-73.3,36.2-112.9l4.3-28h8.1c106.2,51.9,129.3,145.5,126.5,252
	c-0.8,29.7-3.7,59.5,4.5,88.7c7.1,25.4,22,33.4,43.3,25c7.5-3,12.2-6.7,13.4-15.5c2.1-14.6,5.6-29.1,8.8-45
	c13.5,6.1,19.7,18.3,25.8,29.6c30.7,56.1,37.1,116.2,27.2,178.6c-4.5,28.6-9.8,57.1-22.2,83.8c-6.6,14.4-16,21.4-33,20.6
	c-27.6-1.3-55.3-0.2-83,0c7.5-47.2,21.4-93.9,12.2-143.8c-16.2,11.6-29.5,23.1-44.6,31.7c-32.7,18.5-62.9,11.4-85.6-18.2
	c-16.9-21.3-26.2-47.7-26.4-74.9c-0.6-47.3,1.5-94.4,20.5-140.8C231,342.8,169.8,486.5,212.8,622.4z"/>
<path class="st0" d="M70.4,703c-8.7-7.5-24.3-11.4-18.9-27.1c5.4-15.1,17.6-22,34.8-21.9c177.6,0.4,355.1,0.5,532.7,0.2h2
	c15.7-1.1,28.4,5,35.4,18.7c7.4,14.6-7.8,20.8-14.3,30.1H70.4z"/>
</svg>
