<svg id="Layer_1" data-name="Layer 1" xmlns="http://www.w3.org/2000/svg" viewBox="0 0 327.8 558.46"><defs><style>.cls-1{fill:#4a4e76;stroke:#4a4e76;stroke-miterlimit:10;stroke-width:7px;}</style></defs><title>transaction</title><path class="cls-1" d="M313.51,24.6q.27,15.59.54,31.17c.05,2.68,0,5.35,0,7.6,14.2,2.58,28.12,4.25,41.52,7.7,41.51,10.69,71.25,34.1,85.15,73.49A104.54,104.54,0,0,1,446.94,183H409.19c-4.56,0-9.13-.19-13.67.06-3.74.2-5.35-.81-5.72-4.64a73.7,73.7,0,0,0-10-31.09c-12-20-30.17-31.57-54.42-34.42-1.69-.2-3.35-.59-5-.78s-3.4-.22-5.85-.37c-.11,2-.3,3.94-.3,5.82,0,44.89,0,89.79-.13,134.69,0,4.31,1.19,6.13,5.73,7.33,28.79,7.67,57.53,15.68,84,29.14,33.44,17,50.8,44,53.51,79.68,1.8,23.71-.61,46.95-8.94,69.41-13.09,35.33-39.29,58.31-76.75,69.26-18.35,5.36-37.42,8.5-57.28,12.9v56.06H283V518.91c-8.52-1-16.58-1.73-24.56-3-33.07-5.12-63.37-15.77-86.68-39.87-17.34-17.92-26.5-39.49-30.19-63.17-2-13-2.77-26.25-4.13-39.78H195.1c1.86,12.14,3.49,24,5.51,35.79a69.92,69.92,0,0,0,20.45,38.83,77,77,0,0,0,19.23,13.16c13,6.47,27.3,9.32,42.19,10.52V308c-8.06-1.8-16.16-3.46-24.18-5.44-22.08-5.48-43.28-12.95-62.5-24.9-28-17.37-43.13-42.12-47.38-73.15-3.95-28.89,1.28-56,17.73-81,22-33.31,53.46-52.51,94.82-57,7.11-.76,14.26-1.25,21.76-1.89V24.6Zm.71,448.27A108.73,108.73,0,0,0,360,462.23a65.6,65.6,0,0,0,17.46-12.72c14.75-14.85,21.83-32.79,21.73-53.22-.06-14.13-2.2-27.7-10.23-40.07-9.13-14.05-22.38-23.16-38.27-29-11.84-4.36-23.93-8.09-36.48-12.29Zm-31.72-362c-6.31.73-12,1.1-17.57,2.09-17.32,3.07-32.27,10.1-42.84,24-12.56,16.52-18.28,34.81-15.62,55.16,1.4,10.69,5.19,20.67,12.64,28.88,16.61,18.32,39.18,25.84,63.39,30.82Z" transform="translate(-133.55 -21.1)"/></svg>