<?xml version="1.0" encoding="utf-8"?>
<!-- Generator: Adobe Illustrator 23.0.1, SVG Export Plug-In . SVG Version: 6.00 Build 0)  -->
<svg version="1.1" id="Capa_1" xmlns="http://www.w3.org/2000/svg" xmlns:xlink="http://www.w3.org/1999/xlink" x="0px" y="0px"
	 viewBox="0 0 473.7 473.7" style="enable-background:new 0 0 473.7 473.7;" xml:space="preserve">
<style type="text/css">
	.st0{fill:#494B74;}
</style>
<g>
	<g>
		<path class="st0" d="M41.7,102.6c-15.3,22.2-26.9,47.1-33.9,73.8h107.7L41.7,102.6z"/>
		<path class="st0" d="M170.5,9.5c-27.3,7.9-52.6,20.6-74.8,37.2l74.8,74.8V9.5z"/>
		<path class="st0" d="M101.3,431c20.9,14.6,44.2,25.9,69.3,33.2V361.7L101.3,431z"/>
		<path class="st0" d="M10.5,306.8c7.8,25.4,19.8,48.9,35.2,69.8l69.8-69.8H10.5z"/>
	</g>
</g>
<g>
</g>
<g>
	<g>
		<polygon class="st0" points="170.5,306.1 169.8,306.8 170.5,306.8 		"/>
		<polygon class="st0" points="190.1,286.5 190.8,286.5 190.8,285.8 		"/>
		<polygon class="st0" points="281.2,196.7 280.5,196.7 280.5,197.4 		"/>
		<polygon class="st0" points="171.2,176.5 170.5,175.8 170.5,176.5 		"/>
		<polygon class="st0" points="190.8,196 190.8,196.7 191.5,196.7 		"/>
	</g>
</g>
<g>
	<g>
		<path class="st0" d="M300.8,411.8v53.1c25.4-7.1,49-18.3,70.2-32.9l-57.5-57.5C308.9,390.6,307.2,398.9,300.8,411.8z"/>
		<path class="st0" d="M313.8,108.5l62.8-62.8C354,29.1,328.5,16.6,300.8,8.8v54.5C308.2,78.1,308.8,89.4,313.8,108.5z"/>
		<path class="st0" d="M427,378c15.8-21.3,28.1-45.3,36.1-71.2H355.8L427,378z"/>
		<path class="st0" d="M465.9,176.5c-7.2-27.3-19.1-52.7-34.9-75.2l-75.2,75.2H465.9z"/>
	</g>
</g>
<path class="st0" d="M321.7,156.3l84.7-84.7c-7.6-7.8-15.8-15.1-24.4-21.8l-66.5,66.6C318.4,128.7,319.7,142.8,321.7,156.3z"/>
<g>
	<g>
		<path class="st0" d="M225,0.3C229,0.1,232.9,0,236.8,0C232.9,0,228.9,0.1,225,0.3z"/>
		<path class="st0" d="M236.8,473.7c-3.9,0-7.9-0.1-11.8-0.3C228.9,473.6,232.9,473.7,236.8,473.7z"/>
		<path class="st0" d="M236.8,473.7c14.9,0,29.5-1.4,43.7-4.1v-27.3C268.1,455.8,253.5,473.7,236.8,473.7z"/>
	</g>
</g>
<g>
	<g>
		<path class="st0" d="M470.2,196.7H327.9c1.9,29.7,1.7,60.2-0.7,89.8h141.2c3.4-16,5.3-32.6,5.3-49.6
			C473.7,223.2,472.5,209.8,470.2,196.7z"/>
		<path class="st0" d="M327.6,290.5c-1.3,14-5.9,24.9-8.2,38.1l80.2,80.2c7.9-7.5,15.3-15.6,22.2-24.1l-77.9-77.9L327.6,290.5z"/>
	</g>
</g>
<path class="st0" d="M280.5,30.3V4.1C266.4,1.4,251.8,0,236.8,0C253.5,0,268.1,16.8,280.5,30.3z"/>
<g>
	<g>
		<path class="st0" d="M300.8,422c6.4-12.8,11.9-27.6,16.5-43.8l-16.5-16.5V422z"/>
		<path class="st0" d="M319.4,102.9c-5-19.1-11.2-36.4-18.6-51.2v69.8L319.4,102.9z"/>
	</g>
</g>
<path class="st0" d="M280.5,452.4V289.7l46.3,46.3c2.3-13.2,4.1-26.9,5.4-40.9l-8.6-8.6h9.3c2.3-29.5,2.6-60,0.7-89.8h-52.4
	l47.5-47.5c-2-13.5-4.5-26.5-7.4-38.8l-40.7,40.7V21.2C268.1,7.8,253.5,0,236.8,0c-3.9,0-7.9,0.1-11.8,0.3
	c-11.6,0.6-23.1,2-34.2,4.2V196l-124-124c-7.6,7.9-14.7,16.2-21.2,25.1l79.3,79.3l20.3,20.3H3.4c-2.2,13-3.4,26.4-3.4,40.1
	c0,17,1.8,33.6,5.3,49.6h184.8L70.8,405.7c7.8,7.7,16.1,14.8,24.9,21.3l95-95v137.1c11.2,2.2,22.6,3.6,34.2,4.2
	c3.9,0.2,7.9,0.3,11.8,0.3C253.5,473.7,268.1,465.9,280.5,452.4z"/>
<image style="overflow:visible;" width="1920" height="1080" xlink:href="B9EC4C6E.jpg"  transform="matrix(1 0 0 1 574.931 -117.993)">
</image>
</svg>
