<svg id="Layer_1" data-name="Layer 1" xmlns="http://www.w3.org/2000/svg" viewBox="0 0 892.18 715.85"><defs><style>.cls-1{fill:#4a4d75;}</style></defs><title>vouchers</title><path class="cls-1" d="M597.06,598.69l132-491.21L700.57,99.8C681.16,94.55,661.73,89.37,642.35,84c-7.8-2.15-11.53-8.76-9.41-16,2-6.95,8.7-10.69,16.15-8.7,25.52,6.81,51,13.76,76.5,20.64,6.73,1.82,13.5,3.52,20.23,5.37,10.1,2.78,13.54,8.67,10.87,18.62q-14.91,55.59-29.87,111.19Q698,322.45,669.06,429.77c-7.78,28.86-15.75,57.66-23.5,86.53-9,33.52-17.86,67.08-26.77,100.62a7,7,0,0,0,.14,4.92q121.2-193.3,242.63-387c-11.55-7.19-22.68-14.12-33.82-21s-22.08-13.66-33.08-20.55c-7.12-4.45-9.2-12-5.2-18.36s11.26-8,18.35-3.64q38.94,23.93,77.7,48.14c7.45,4.65,8.65,11.84,3.65,19.83Q864.53,278.64,839.85,318q-63.65,101.47-127.3,203-58,92.44-115.81,185c-4.37,7-9.61,10-17.87,9.94-46.31-.25-92.62-.12-138.93-.12H15.69C4.56,715.71,0,711.09,0,699.92Q0,577.7,0,455.5V292.08Q0,183.63,0,75.18,0,45.71,0,16.24C0,4.5,4.51,0,16.28,0H579.46c12.23,0,16.64,4.32,16.64,16.35v582.3ZM25.88,689.6H570.27V26H25.88Z" transform="translate(0 0)"/><path class="cls-1" d="M626.39,165a32.71,32.71,0,0,1,3.61.76c12.08,3.6,24.17,7.2,36.23,10.9,7.34,2.25,11.7,10,9.56,16.7s-8.82,9.89-16.55,7.58c-12.71-3.8-25.41-7.63-38-11.77-6.44-2.11-9.74-7.73-8.68-13.41C613.76,169.28,619.19,164.8,626.39,165Z" transform="translate(0 0)"/><path class="cls-1" d="M298.2,96.87q-85.71,0-171.43,0c-8.89,0-14.42-4.6-14.82-12.12-.43-8,5.09-13.76,13.58-13.84,13.32-.11,26.65,0,40,0H369.41q50.2,0,100.4,0c11.3,0,17.86,10,12.73,19.31A12.39,12.39,0,0,1,471,96.83q-60.21,0-120.44-.06H298.2Z" transform="translate(0 0)"/><path class="cls-1" d="M345.93,217.75q75.69,0,151.39,0c7.05,0,11.87,3.84,13.33,10.38a12.37,12.37,0,0,1-7.22,13.92,25.76,25.76,0,0,1-9.23,1.43q-88.93.13-177.87.08H225.39c-10,0-19.93.1-29.89,0-6.59-.09-11.5-3.85-13.11-9.57A12.17,12.17,0,0,1,187.64,220a18.58,18.58,0,0,1,8.94-2.2Q271.25,217.65,345.93,217.75Z" transform="translate(0 0)"/><path class="cls-1" d="M244.71,416.4H382.12c4.66,0,9.32-.08,14,.1,7.87.3,13.08,5.46,13.1,12.75,0,7.51-5.35,12.93-13.39,13-14,.14-27.94,0-41.92,0l-190.88,0c-22.78,0-45.55,0-68.33-.09-10-.05-15.92-7.13-13.72-16.16a12,12,0,0,1,10.92-9.4c4.14-.34,8.32-.22,12.48-.22H244.71Z" transform="translate(0 0)"/><path class="cls-1" d="M176.57,472.88q44.48,0,89,0c6.31,0,11.15,3.7,12.63,9.3,1.59,6-.47,11.72-5.72,14.57a14.61,14.61,0,0,1-6.63,1.7q-89.2.25-178.4.28c-7.92,0-13.42-5.59-13.38-13.06s5.59-12.79,13.59-12.8Q132.1,472.83,176.57,472.88Z" transform="translate(0 0)"/><path class="cls-1" d="M414.84,299.87q-43.72,0-87.45,0c-9.19,0-15-5.17-14.87-13.11.16-7.73,6-12.82,14.76-12.82q87.44,0,174.89,0c7.7,0,12.65,3.12,14.54,9,1.63,5.12.1,11.39-4.63,14.16a22.66,22.66,0,0,1-10.78,2.65c-21.49.24-43,.12-64.47.12Z" transform="translate(0 0)"/><path class="cls-1" d="M177.09,367.75c29,0,58,.21,86.94-.13,8.7-.1,14.32,5.22,14.76,12.8.43,7.39-5.83,13.12-14.46,13.12q-77.19,0-154.38-.13c-7.82,0-15.65.27-23.46,0A12.71,12.71,0,0,1,74.16,383c-1-5.52,1.63-11.56,6.78-13.76a23,23,0,0,1,8.71-1.44C118.8,367.7,147.94,367.74,177.09,367.75Z" transform="translate(0 0)"/><path class="cls-1" d="M414.94,168.83q43.71,0,87.43,0c9.2,0,14.68,4.72,14.8,12.55.12,8.13-5.46,13.38-14.63,13.39q-87.93.06-175.85,0c-8.24,0-14.11-5.49-14.21-13s5.85-13,14.53-13Q371,168.81,414.94,168.83Z" transform="translate(0 0)"/><path class="cls-1" d="M114.2,222A40,40,0,0,1,74,181.64c0-22.25,17.86-40,40.42-40.21,21.81-.15,40.46,18.28,40.39,39.91A40.48,40.48,0,0,1,114.2,222Zm.1-25.83a14.52,14.52,0,0,0,14.56-14.55c-.15-7.78-7.24-14.69-14.87-14.49A14.51,14.51,0,0,0,99.91,181.6,14.13,14.13,0,0,0,114.3,196.12Z" transform="translate(0 0)"/><path class="cls-1" d="M436.61,380.43a40.3,40.3,0,0,1,80.59-.31c0,22.78-17.82,40.8-40.35,40.75A40.33,40.33,0,0,1,436.61,380.43ZM477,395a14.3,14.3,0,0,0,14.5-14.44,14.73,14.73,0,0,0-14.55-14.61c-7.72,0-14.63,7-14.58,14.63A14.54,14.54,0,0,0,477,395Z" transform="translate(0 0)"/><path class="cls-1" d="M114.52,246.72a39.91,39.91,0,0,1,40.13,40.43c-.34,24-19.18,40-40.05,40-22.8,0-40.68-17.78-40.59-40.43A40.08,40.08,0,0,1,114.52,246.72Zm-.29,25.7a14.35,14.35,0,0,0-14.32,14.75,14.54,14.54,0,0,0,14.22,14.42,15,15,0,0,0,14.76-15.11A14.8,14.8,0,0,0,114.23,272.42Z" transform="translate(0 0)"/><path class="cls-1" d="M517.19,486.14c-.24,22.67-18.14,40-41.11,39.84-21.88-.18-39.71-18.52-39.43-40.58.28-22.44,18.55-40.36,40.68-39.91C500,446,517.43,463.74,517.19,486.14Zm-25.79-.33a14.52,14.52,0,0,0-14.54-14.61,14.88,14.88,0,0,0-14.51,14.29,14.72,14.72,0,0,0,14.45,14.8A14.3,14.3,0,0,0,491.4,485.81Z" transform="translate(0 0)"/><path class="cls-1" d="M447.21,643.1c-16.81,0-33.61.13-50.42-.05-9.88-.11-16.07-9.19-12.33-17.85,2.66-6.13,7.91-8.06,14.22-8.05q34.44,0,68.89,0c10,0,20-.22,29.94.15s15.76,8.77,12.53,17.51c-1.89,5.09-6.3,8.18-12.42,8.21-16.8.08-33.61,0-50.41,0Z" transform="translate(0 0)"/><path class="cls-1" d="M358.59,367.75c12.16,0,24.32,0,36.48,0,8.62,0,14.1,5,14.11,12.68s-5.39,13.06-13.84,13.1q-36.72.18-73.44.07c-7.15,0-12.63-4.12-13.84-9.93-1.3-6.26,1.2-12,6.83-14.61a16.62,16.62,0,0,1,6.73-1.26C334,367.7,346.27,367.76,358.59,367.75Z" transform="translate(0 0)"/><path class="cls-1" d="M232.57,169c12.48,0,25-.08,37.45,0,5.72.05,10.34,2.05,12.49,8,3.22,8.87-2.66,17.73-12.15,17.76q-36.95.14-73.89,0c-7.34,0-12.45-3.64-14.1-9.64-2.26-8.23,3.84-16.18,12.73-16.27,12.49-.13,25,0,37.47,0Z" transform="translate(0 0)"/><path class="cls-1" d="M232.46,299.86c-12.16,0-24.32,0-36.48,0-8.39,0-13.95-5.25-13.94-12.95s5.65-12.93,14-12.95q36.48-.07,72.95,0c8.79,0,14.43,5.2,14.43,13.06s-5.64,12.86-14.5,12.88Q250.7,299.9,232.46,299.86Z" transform="translate(0 0)"/><path class="cls-1" d="M358.68,472.88c12.15,0,24.31,0,36.47,0,8.46,0,14,5.08,14,12.82s-5.46,13.05-13.85,13.08q-36.72.09-73.45,0c-8.43,0-14-5.31-14.05-12.94,0-8,5.48-12.94,14.38-13C334.36,472.87,346.52,472.89,358.68,472.88Z" transform="translate(0 0)"/></svg>