<?xml version="1.0" encoding="utf-8"?>
<!-- Generator: Adobe Illustrator 19.0.0, SVG Export Plug-In . SVG Version: 6.00 Build 0)  -->
<svg version="1.1" id="Layer_1" xmlns="http://www.w3.org/2000/svg" xmlns:xlink="http://www.w3.org/1999/xlink" x="0px" y="0px"
	 viewBox="-157 468.7 260 257" style="enable-background:new -157 468.7 260 257;" xml:space="preserve">
<style type="text/css">
	.st0{opacity:0.11;}
	.st1{fill:#35B34A;}
	.st2{fill:#3D3C3E;}
</style>
<g id="XMLID_1_" class="st0">
	<path id="XMLID_4_" class="st1" d="M66.7,611.1l-95.1-45.8l-97-46.7l-5.5,11.5l-5.3,11.1c-6.9,14.3-0.9,31.5,13.4,38.4l2.7,1.3
		l92.4,44.5l97,46.7l10.9-22.6C87.1,635.2,81.1,618.1,66.7,611.1L66.7,611.1"/>
	<path id="XMLID_3_" class="st1" d="M-98.6,637.1l83.4,40.3L-26.1,700c-6.9,14.3-24.1,20.3-38.4,13.4h0l-83.4-40.3l10.9-22.7
		C-130,636.1-112.9,630.1-98.6,637.1"/>
	<path id="XMLID_2_" class="st1" d="M8.5,477.3l83.4,40.3l-10.9,22.7c-6.9,14.3-24.1,20.2-38.4,13.3l-83.4-40.3l10.9-22.7
		C-23,476.4-5.8,470.4,8.5,477.3"/>
</g>
<g id="XMLID_76_">
	<path id="XMLID_79_" class="st1" d="M8.7,572.7l-35.3-17l-36-17.4l-2.1,4.3l-2,4.1c-2.6,5.3-0.3,11.7,5,14.3l1,0.5l34.3,16.5
		l36,17.4l4-8.4C16.2,581.7,14,575.3,8.7,572.7L8.7,572.7"/>
	<path id="XMLID_78_" class="st1" d="M-52.7,582.3l31,15l-4,8.4c-2.6,5.3-9,7.5-14.3,5h0l-31-15l4.1-8.4
		C-64.4,582-58.1,579.8-52.7,582.3"/>
	<path id="XMLID_77_" class="st1" d="M-13,523l31,15l-4.1,8.4c-2.6,5.3-8.9,7.5-14.3,4.9l-31-15l4.1-8.4
		C-24.7,522.6-18.3,520.4-13,523"/>
</g>
<g id="XMLID_72_">
	<g id="XMLID_89_">
		<polygon id="XMLID_28_" class="st2" points="-80.6,656.8 -74.4,656.8 -74.4,648.3 -74.4,642.9 -74.4,636.6 -80.6,636.6 		"/>
	</g>
	<g id="XMLID_85_">
		<path id="XMLID_29_" class="st2" d="M50.4,636.6h-8.2l-13.7,20.2h7.8l2.6-4.2h14.9l2.6,4.2h7.7L50.4,636.6z M41.1,649.4l5.1-8.5
			h0.6l4.9,8.6L41.1,649.4z"/>
	</g>
	<path id="XMLID_24_" class="st2" d="M-90.3,651c0,3.1-4.5,6.4-14.5,6.4c-6.5,0-11.1-2-12.3-2.6l2.5-2.4c0.9,0.5,4.5,2.2,9.4,2.2
		c4.6,0,6.9-1.2,6.9-3.8c0-1.8-3-2.3-6.7-3c-4.8-0.9-10.8-1.9-10.8-6.1c0-2.7,4.5-5.6,12.9-5.6h0.1c6,0,10.4,1.8,11.6,2.3l-2.2,2.4
		c-0.9-0.4-4.4-1.7-8.9-1.7c-0.4,0-0.8,0-1.1,0c-3.7,0.2-4.2,1.5-4.2,2.6c0,1.3,1.3,2,3.3,2.6c1.1,0.3,2.5,0.6,3.9,0.9
		C-95.8,646-90.3,647.1-90.3,651z"/>
	<g id="XMLID_82_">
		<path id="XMLID_23_" class="st2" d="M-45.7,636c-10.8,0-19,4.6-19,10.7c0,6.1,8.2,10.7,19,10.7c6.8,0,11.8-2,12.8-2.5v-9.6h-13.2
			v2.8h7v5.4l-0.2,0.1c-0.1,0-2.5,0.8-5.9,0.8c-7.3,0-11.4-3-11.4-7.7c0-4.8,4.1-7.7,11.4-7.7c4,0,7.1,1,7.9,1.3l2.5-2.4
			C-36.1,637.4-40,636-45.7,636z"/>
	</g>
	<g id="XMLID_80_">
		<polygon id="XMLID_22_" class="st2" points="11.4,656.8 18.9,656.8 14.9,636.6 7.9,636.6 -1.8,649.5 -2.4,649.5 -2.5,649.4 
			-12.1,636.6 -19.2,636.6 -23.2,656.8 -15.5,656.8 -14.1,642.7 -13.5,642.7 -13.4,642.8 -5,653.8 0.8,653.8 9.3,642.7 9.9,642.7 		
			"/>
	</g>
</g>
</svg>
