<?xml version="1.0" encoding="utf-8"?>
<!-- Generator: Adobe Illustrator 26.1.0, SVG Export Plug-In . SVG Version: 6.00 Build 0)  -->
<svg version="1.1" id="Layer_1" xmlns="http://www.w3.org/2000/svg" xmlns:xlink="http://www.w3.org/1999/xlink" x="0px" y="0px"
	 viewBox="0 0 250 61.2" style="enable-background:new 0 0 250 61.2;" xml:space="preserve">
<style type="text/css">
	.st0{fill:#37B44A;}
	.st1{fill:#FFFFFF;}
</style>
<g id="XMLID_79_">
	<path id="XMLID_82_" class="st0" d="M52,34.3L29.9,23.6L7.3,12.8L6,15.4L4.8,18c-1.6,3.3-0.2,7.3,3.1,8.9l0.6,0.3l21.5,10.4
		l22.6,10.9l2.5-5.2C56.7,39.9,55.3,35.9,52,34.3L52,34.3"/>
	<path id="XMLID_81_" class="st0" d="M13.6,40.3L33,49.7L30.4,55c-1.6,3.3-5.6,4.7-8.9,3.1l0,0L2.1,48.7l2.5-5.3
		C6.2,40.1,10.2,38.7,13.6,40.3"/>
	<path id="XMLID_80_" class="st0" d="M38.5,3.1l19.4,9.4l-2.5,5.3c-1.6,3.3-5.6,4.7-8.9,3.1L27,11.5l2.5-5.3
		C31.1,2.9,35.1,1.5,38.5,3.1"/>
</g>
<g id="XMLID_22_">
	<g id="XMLID_76_">
		<path id="XMLID_281_" class="st1" d="M93.9,48.7l-0.1-0.3l0.4,0c0.4,0,0.6-0.1,0.8-0.3c0.1-0.1,0.1-0.5,0.1-1v-5.8
			c0-0.7-0.1-0.9-0.2-1c-0.2-0.2-0.4-0.3-0.7-0.3h-0.3l-0.1-0.3l3.8,0c1.4,0,2.4,0.2,3.1,0.5c0.7,0.3,1.3,0.8,1.7,1.6
			c0.4,0.7,0.7,1.6,0.7,2.5c0,0.7-0.1,1.3-0.3,1.9c-0.2,0.6-0.6,1.1-1,1.5c-0.4,0.4-1,0.7-1.6,1c-0.6,0.2-1.4,0.3-2.2,0.3
			C97.9,48.7,93.9,48.7,93.9,48.7z M97.8,40.2c-0.2,0-0.4,0-0.6,0c-0.2,0-0.5,0.1-0.7,0.1l0,7.6c0.5,0.1,1,0.1,1.4,0.1
			c0.5,0,1-0.1,1.4-0.3c0.4-0.2,0.8-0.5,1.1-0.8c0.3-0.3,0.6-0.8,0.8-1.3c0.2-0.5,0.3-1,0.3-1.7c0-0.6-0.1-1.2-0.3-1.7
			c-0.2-0.5-0.4-0.9-0.8-1.3c-0.3-0.3-0.7-0.6-1.1-0.8C98.9,40.2,98.4,40.2,97.8,40.2z"/>
		<path id="XMLID_276_" class="st1" d="M97.6,39.6c1.4,0,2.4,0.2,3.1,0.5c0.7,0.3,1.3,0.8,1.7,1.5c0.4,0.7,0.7,1.5,0.7,2.5
			c0,0.7-0.1,1.3-0.3,1.8c-0.2,0.6-0.5,1-1,1.4c-0.4,0.4-1,0.7-1.6,0.9c-0.6,0.2-1.4,0.3-2.2,0.3h-4.1v-0.2h0.3
			c0.4,0,0.7-0.1,0.8-0.4c0.1-0.1,0.1-0.5,0.1-1v-5.8c0-0.6-0.1-0.9-0.2-1.1c-0.2-0.2-0.4-0.3-0.8-0.3h-0.3v-0.2H97.6 M97.9,48.2
			c0.5,0,1-0.1,1.4-0.3c0.4-0.2,0.8-0.5,1.1-0.8c0.3-0.3,0.6-0.8,0.8-1.3c0.2-0.5,0.3-1.1,0.3-1.7c0-0.6-0.1-1.2-0.3-1.7
			s-0.4-0.9-0.8-1.3c-0.3-0.3-0.7-0.6-1.2-0.8c-0.5-0.2-0.9-0.3-1.5-0.3c-0.2,0-0.4,0-0.6,0c-0.2,0-0.5,0.1-0.7,0.1V48
			C97,48.1,97.5,48.2,97.9,48.2 M97.6,39.5h-3.7h-0.1v0.1v0.2v0.1h0.1h0.3c0.3,0,0.6,0.1,0.7,0.3c0.1,0.1,0.2,0.3,0.2,1V47
			c0,0.6-0.1,0.8-0.1,0.9c-0.1,0.2-0.4,0.3-0.7,0.3h-0.3h-0.1v0.1v0.2v0.1h0.1h4.1c0.8,0,1.6-0.1,2.3-0.3c0.6-0.2,1.2-0.6,1.6-1
			c0.4-0.4,0.8-0.9,1-1.5c0.2-0.6,0.3-1.2,0.3-1.9c0-1-0.2-1.8-0.7-2.5c-0.4-0.7-1-1.3-1.8-1.6C100,39.7,98.9,39.5,97.6,39.5
			L97.6,39.5z M96.6,40.4c0.2-0.1,0.4-0.1,0.6-0.1c0.2,0,0.4,0,0.6,0c0.5,0,1,0.1,1.4,0.3c0.4,0.2,0.8,0.4,1.1,0.8
			c0.3,0.3,0.6,0.8,0.7,1.2c0.2,0.5,0.3,1,0.3,1.6c0,0.6-0.1,1.2-0.3,1.6c-0.2,0.5-0.4,0.9-0.7,1.2s-0.7,0.6-1.1,0.8
			c-0.4,0.2-0.9,0.3-1.4,0.3c-0.4,0-0.8-0.1-1.3-0.2L96.6,40.4L96.6,40.4z"/>
	</g>
	<g id="XMLID_73_">
		<path id="XMLID_272_" class="st1" d="M104.1,48.7l-0.1-0.3c0.2,0,0.3-0.1,0.4-0.1c0.1,0,0.2,0,0.2-0.1c0.1,0,0.1-0.1,0.1-0.1
			c0,0,0.1-0.1,0.1-0.2c0.1-0.1,0.1-0.4,0.1-0.7v-2.4c0-0.4,0-0.7,0-0.9c0-0.2,0-0.4-0.1-0.5c0-0.1-0.1-0.2-0.1-0.2
			c-0.1,0-0.1,0-0.2,0c-0.1,0-0.3,0-0.4,0.1l-0.2-0.3l1.9-0.8l0.3,0l0.1,5c0,0.2,0,0.4,0,0.5c0,0.1,0,0.2,0.1,0.3
			c0,0.1,0.1,0.1,0.1,0.1c0,0,0.1,0.1,0.1,0.1c0.1,0.1,0.3,0.1,0.6,0.1l0.1,0.3v0L104.1,48.7L104.1,48.7z M105.6,40.6
			c-0.1,0-0.2,0-0.3-0.1s-0.2-0.1-0.2-0.2c-0.1-0.1-0.1-0.1-0.2-0.2c0-0.1-0.1-0.2-0.1-0.3c0-0.1,0-0.2,0.1-0.3
			c0-0.1,0.1-0.2,0.2-0.2c0.1-0.1,0.1-0.1,0.2-0.2c0.1,0,0.2-0.1,0.3-0.1c0.1,0,0.2,0,0.3,0.1c0.1,0,0.2,0.1,0.2,0.2
			c0.1,0.1,0.1,0.1,0.2,0.2s0.1,0.2,0.1,0.3c0,0.1,0,0.2-0.1,0.3c0,0.1-0.1,0.2-0.2,0.2c-0.1,0.1-0.1,0.1-0.2,0.2
			C105.8,40.5,105.7,40.6,105.6,40.6z"/>
		<path id="XMLID_267_" class="st1" d="M105.6,39.2c0.1,0,0.2,0,0.3,0.1c0.1,0,0.2,0.1,0.2,0.1c0.1,0.1,0.1,0.1,0.1,0.2
			c0,0.1,0.1,0.2,0.1,0.3c0,0.1,0,0.2-0.1,0.3c0,0.1-0.1,0.2-0.1,0.2c-0.1,0.1-0.1,0.1-0.2,0.1c-0.1,0-0.2,0.1-0.3,0.1
			s-0.2,0-0.3-0.1s-0.2-0.1-0.2-0.1c-0.1-0.1-0.1-0.1-0.1-0.2s-0.1-0.2-0.1-0.3c0-0.1,0-0.2,0.1-0.3s0.1-0.2,0.1-0.2
			c0.1-0.1,0.1-0.1,0.2-0.1C105.4,39.2,105.5,39.2,105.6,39.2 M106.1,42.4v4.9c0,0.2,0,0.4,0,0.5c0,0.1,0,0.2,0.1,0.3
			c0,0.1,0.1,0.1,0.1,0.2c0,0,0.1,0.1,0.1,0.1c0.1,0.1,0.3,0.1,0.6,0.1v0.2h-3v-0.2c0.2,0,0.3,0,0.4,0c0.1,0,0.2,0,0.2-0.1
			c0.1,0,0.1-0.1,0.1-0.1c0,0,0.1-0.1,0.1-0.2c0.1-0.1,0.1-0.4,0.1-0.8v-2.4c0-0.4,0-0.7,0-0.9c0-0.2,0-0.4-0.1-0.5
			c0-0.1-0.1-0.2-0.1-0.2c-0.1,0-0.1,0-0.2,0c-0.1,0-0.3,0-0.5,0.1l-0.1-0.2l1.9-0.7L106.1,42.4 M105.6,39.1c-0.1,0-0.2,0-0.3,0.1
			c-0.1,0-0.2,0.1-0.3,0.2c-0.1,0.1-0.1,0.2-0.2,0.2c0,0.1-0.1,0.2-0.1,0.3c0,0.1,0,0.2,0.1,0.3c0,0.1,0.1,0.2,0.2,0.2
			c0.1,0.1,0.2,0.1,0.2,0.2c0.1,0,0.2,0.1,0.3,0.1s0.2,0,0.3-0.1s0.2-0.1,0.2-0.2c0.1-0.1,0.1-0.2,0.2-0.2c0-0.1,0.1-0.2,0.1-0.3
			c0-0.1,0-0.2-0.1-0.3c0-0.1-0.1-0.2-0.2-0.2c-0.1-0.1-0.2-0.1-0.2-0.2C105.8,39.1,105.7,39.1,105.6,39.1L105.6,39.1z M106.2,42.3
			L106.2,42.3h-0.4h0l0,0L104,43l-0.1,0l0,0.1l0.1,0.2l0,0.1l0.1,0c0.2-0.1,0.3-0.1,0.4-0.1c0.1,0,0.2,0,0.2,0c0,0,0.1,0.1,0.1,0.1
			c0,0.1,0.1,0.3,0.1,0.5c0,0.2,0,0.5,0,0.9v2.4c0,0.4,0,0.6-0.1,0.7c0,0.1-0.1,0.1-0.1,0.2c0,0-0.1,0.1-0.1,0.1
			c-0.1,0-0.1,0-0.2,0.1c-0.1,0-0.2,0-0.4,0H104v0.1v0.2v0.1h0.1h3h0.1v-0.1v-0.2v-0.1h-0.1c-0.3,0-0.5,0-0.6-0.1
			c0,0-0.1-0.1-0.1-0.1c0,0-0.1-0.1-0.1-0.1c0-0.1,0-0.2-0.1-0.3c0-0.1,0-0.3,0-0.5L106.2,42.3L106.2,42.3L106.2,42.3z"/>
	</g>
	<g id="XMLID_69_">
		<path id="XMLID_300_" class="st1" d="M110.5,51.6c-0.3,0-0.6,0-1-0.1c-0.3-0.1-0.6-0.2-0.9-0.3c-0.3-0.1-0.5-0.3-0.7-0.4
			c-0.2-0.2-0.3-0.3-0.3-0.5c0-0.1,0-0.1,0-0.2c0-0.1,0.1-0.2,0.1-0.2c0-0.1,0.1-0.2,0.2-0.3c0.1-0.1,0.2-0.2,0.3-0.3
			c0,0,0.3-0.3,0.7-0.7c-0.2-0.1-0.4-0.2-0.5-0.3c-0.1-0.1-0.2-0.3-0.2-0.4c0-0.1,0-0.2,0-0.3c0-0.1,0.1-0.2,0.2-0.3
			c0.1-0.1,0.2-0.2,0.3-0.4c0.1-0.1,0.3-0.3,0.6-0.5c-0.4-0.1-0.7-0.4-0.9-0.7c-0.2-0.3-0.3-0.7-0.3-1.1c0-0.3,0.1-0.6,0.2-0.9
			c0.1-0.3,0.3-0.5,0.5-0.7c0.2-0.2,0.5-0.4,0.8-0.5c0.3-0.1,0.6-0.2,1-0.2c0.6,0,1.1,0.1,1.6,0.4l1.3,0l0.2,0c0.1,0,0.1,0,0.1,0
			l0,0.1l0.1,0c0,0,0,0.1,0,0.2l0,0.2c0,0.1,0,0.1-0.1,0.1c0,0-0.1,0-0.2,0.1c-0.1,0-0.2,0-0.3,0h-0.8c0.3,0.3,0.4,0.7,0.4,1.2
			c0,0.3-0.1,0.6-0.2,0.8c-0.1,0.3-0.3,0.5-0.5,0.7c-0.2,0.2-0.5,0.3-0.8,0.5c-0.3,0.1-0.6,0.2-1,0.2c-0.3,0-0.6,0-0.9-0.1
			c-0.2,0.2-0.3,0.3-0.3,0.4c-0.1,0.1-0.1,0.2-0.1,0.3c0,0.1,0,0.1,0,0.1c0,0,0.1,0.1,0.2,0.1c0.1,0,0.2,0.1,0.4,0.1
			c0.2,0,0.5,0,0.8,0c0.5,0,0.8,0,1.1,0c0.3,0,0.5,0,0.7,0.1c0.2,0,0.4,0.1,0.6,0.2c0.2,0.1,0.3,0.2,0.4,0.3
			c0.1,0.1,0.2,0.3,0.3,0.4c0.1,0.2,0.1,0.3,0.1,0.5c0,0.5-0.2,1-0.7,1.4C112.6,51.3,111.7,51.6,110.5,51.6z M109.4,48.7
			c-0.4,0.4-0.6,0.8-0.6,1.1c0,0.1,0.1,0.3,0.2,0.4c0.1,0.1,0.3,0.2,0.5,0.3c0.2,0.1,0.5,0.1,0.7,0.2c0.3,0,0.6,0.1,0.9,0.1
			c0.4,0,0.8,0,1-0.1c0.3-0.1,0.5-0.2,0.7-0.3c0.2-0.1,0.3-0.3,0.4-0.4c0.1-0.1,0.1-0.3,0.1-0.4c0-0.1,0-0.2-0.1-0.3
			c0-0.1-0.1-0.1-0.2-0.2c-0.1,0-0.3-0.1-0.5-0.1c-0.2,0-0.5,0-0.9-0.1c-0.5,0-1,0-1.3-0.1C110,48.8,109.7,48.7,109.4,48.7z
			 M110.7,42.7c-0.2,0-0.3,0-0.4,0.1c-0.1,0.1-0.3,0.2-0.4,0.3c-0.1,0.1-0.2,0.3-0.2,0.5c-0.1,0.2-0.1,0.4-0.1,0.7
			c0,0.3,0,0.6,0.1,0.8c0.1,0.2,0.1,0.5,0.3,0.6c0.1,0.2,0.2,0.3,0.4,0.4c0.2,0.1,0.3,0.1,0.5,0.1c0.2,0,0.3,0,0.5-0.1
			c0.1-0.1,0.3-0.2,0.4-0.3c0.1-0.1,0.2-0.3,0.2-0.5c0.1-0.2,0.1-0.4,0.1-0.7c0-0.3,0-0.6-0.1-0.8c-0.1-0.3-0.1-0.5-0.3-0.7
			c-0.1-0.2-0.2-0.3-0.4-0.4C111.1,42.8,110.9,42.7,110.7,42.7z"/>
		<path id="XMLID_283_" class="st1" d="M110.8,42.4c0.6,0,1.1,0.1,1.5,0.4h1.3c0.1,0,0.2,0,0.2,0c0.1,0,0.1,0,0.1,0s0,0,0,0
			c0,0,0,0,0,0c0,0,0,0.1,0,0.2c0,0.1,0,0.1,0,0.2c0,0,0,0.1,0,0.1c0,0-0.1,0-0.1,0s-0.2,0-0.3,0h-0.8c0.3,0.3,0.4,0.7,0.4,1.2
			c0,0.3-0.1,0.5-0.2,0.8c-0.1,0.3-0.3,0.5-0.5,0.7c-0.2,0.2-0.5,0.3-0.8,0.4c-0.3,0.1-0.6,0.2-1,0.2c-0.3,0-0.6,0-0.9-0.1
			c-0.2,0.2-0.3,0.3-0.4,0.4s-0.1,0.2-0.1,0.3c0,0.1,0,0.1,0,0.2s0.1,0.1,0.2,0.1c0.1,0,0.2,0.1,0.4,0.1c0.2,0,0.5,0,0.8,0
			c0.5,0,0.8,0,1.1,0c0.3,0,0.5,0,0.7,0.1c0.2,0,0.4,0.1,0.6,0.2c0.2,0.1,0.3,0.2,0.4,0.3c0.1,0.1,0.2,0.3,0.3,0.4s0.1,0.3,0.1,0.5
			c0,0.5-0.2,1-0.7,1.4c-0.7,0.6-1.6,1-2.7,1c-0.3,0-0.6,0-0.9-0.1c-0.3-0.1-0.6-0.2-0.9-0.3c-0.3-0.1-0.5-0.2-0.6-0.4
			s-0.2-0.3-0.2-0.5c0-0.1,0-0.1,0-0.2c0-0.1,0.1-0.1,0.1-0.2c0-0.1,0.1-0.2,0.2-0.3c0.1-0.1,0.2-0.2,0.3-0.3c0,0,0.3-0.3,0.7-0.7
			c-0.2-0.1-0.4-0.3-0.5-0.4c-0.1-0.1-0.1-0.2-0.1-0.4c0-0.1,0-0.2,0-0.2c0-0.1,0.1-0.2,0.1-0.3c0.1-0.1,0.2-0.2,0.3-0.4
			c0.1-0.1,0.3-0.3,0.6-0.5c-0.4-0.2-0.7-0.4-0.9-0.8c-0.2-0.3-0.3-0.7-0.3-1.1c0-0.3,0.1-0.6,0.2-0.9c0.1-0.3,0.3-0.5,0.5-0.7
			s0.5-0.4,0.8-0.5C110.1,42.4,110.4,42.4,110.8,42.4 M110.8,46.3c0.2,0,0.3,0,0.5-0.1s0.3-0.2,0.4-0.3c0.1-0.1,0.2-0.3,0.2-0.5
			s0.1-0.4,0.1-0.7c0-0.3,0-0.6-0.1-0.8c-0.1-0.3-0.1-0.5-0.3-0.7c-0.1-0.2-0.3-0.3-0.4-0.4c-0.2-0.1-0.4-0.2-0.6-0.2
			c-0.2,0-0.3,0-0.5,0.1c-0.1,0.1-0.3,0.2-0.4,0.3c-0.1,0.1-0.2,0.3-0.2,0.5s-0.1,0.4-0.1,0.7c0,0.3,0,0.6,0.1,0.8
			c0.1,0.3,0.1,0.5,0.3,0.7c0.1,0.2,0.3,0.3,0.4,0.4C110.4,46.3,110.6,46.3,110.8,46.3 M111.1,50.8c0.4,0,0.8,0,1.1-0.1
			c0.3-0.1,0.5-0.2,0.7-0.3c0.2-0.1,0.3-0.3,0.4-0.4c0.1-0.2,0.1-0.3,0.1-0.5c0-0.1,0-0.2-0.1-0.3s-0.1-0.1-0.3-0.2
			c-0.1-0.1-0.3-0.1-0.5-0.1s-0.5,0-0.9-0.1c-0.5,0-1,0-1.3-0.1c-0.4,0-0.7-0.1-1-0.1c-0.4,0.5-0.6,0.8-0.6,1.2
			c0,0.1,0.1,0.3,0.2,0.4c0.1,0.1,0.3,0.2,0.5,0.3c0.2,0.1,0.5,0.2,0.7,0.2C110.5,50.8,110.8,50.8,111.1,50.8 M110.8,42.3
			c-0.4,0-0.7,0.1-1,0.2c-0.3,0.1-0.6,0.3-0.8,0.5c-0.2,0.2-0.4,0.5-0.5,0.7c-0.1,0.3-0.2,0.6-0.2,0.9c0,0.4,0.1,0.8,0.3,1.1
			c0.2,0.3,0.4,0.5,0.8,0.7c-0.2,0.2-0.3,0.3-0.5,0.4c-0.1,0.1-0.3,0.3-0.3,0.4c-0.1,0.1-0.1,0.2-0.2,0.3c0,0.1,0,0.2,0,0.3
			c0,0.2,0.1,0.3,0.2,0.4c0.1,0.1,0.2,0.2,0.4,0.3c-0.5,0.5-0.6,0.6-0.6,0.6c-0.1,0.1-0.2,0.2-0.3,0.3c-0.1,0.1-0.1,0.2-0.2,0.3
			c0,0.1-0.1,0.2-0.1,0.2c0,0.1,0,0.2,0,0.2c0,0.2,0.1,0.4,0.3,0.6c0.2,0.2,0.4,0.3,0.7,0.4c0.3,0.1,0.6,0.2,0.9,0.3
			c0.3,0.1,0.6,0.1,1,0.1c1.1,0,2.1-0.3,2.8-1c0.5-0.5,0.7-1,0.7-1.5c0-0.2,0-0.4-0.1-0.5c-0.1-0.2-0.2-0.3-0.3-0.4
			c-0.1-0.1-0.3-0.2-0.5-0.3c-0.2-0.1-0.4-0.1-0.6-0.2c-0.1,0-0.4,0-0.7-0.1c-0.3,0-0.7,0-1.1,0c-0.3,0-0.6,0-0.8,0
			c-0.2,0-0.3,0-0.4-0.1c-0.1,0-0.1-0.1-0.1-0.1c0,0,0-0.1,0-0.1c0-0.1,0-0.2,0.1-0.3c0.1-0.1,0.2-0.2,0.3-0.4
			c0.3,0.1,0.6,0.1,0.9,0.1c0.4,0,0.7-0.1,1-0.2c0.3-0.1,0.6-0.3,0.8-0.5c0.2-0.2,0.4-0.4,0.5-0.7c0.1-0.3,0.2-0.5,0.2-0.8
			c0-0.4-0.1-0.8-0.3-1.1h0.6c0.1,0,0.2,0,0.3,0c0.1,0,0.1,0,0.2-0.1c0,0,0.1-0.1,0.1-0.2c0,0,0-0.1,0-0.2c0-0.1,0-0.2-0.1-0.3l0,0
			l0,0c0,0-0.1-0.1-0.1-0.1c0,0-0.1,0-0.1,0c-0.1,0-0.1,0-0.2,0h-1.3C111.9,42.4,111.4,42.3,110.8,42.3L110.8,42.3z M110.8,46.2
			c-0.2,0-0.4,0-0.5-0.1c-0.2-0.1-0.3-0.2-0.4-0.4c-0.1-0.2-0.2-0.4-0.3-0.6c-0.1-0.2-0.1-0.5-0.1-0.8c0-0.3,0-0.5,0.1-0.7
			c0.1-0.2,0.1-0.3,0.2-0.5c0.1-0.1,0.2-0.2,0.3-0.3c0.1-0.1,0.3-0.1,0.4-0.1c0.2,0,0.4,0,0.5,0.1c0.2,0.1,0.3,0.2,0.4,0.4
			c0.1,0.2,0.2,0.4,0.3,0.6c0.1,0.2,0.1,0.5,0.1,0.8c0,0.3,0,0.5-0.1,0.7c-0.1,0.2-0.1,0.3-0.2,0.5c-0.1,0.1-0.2,0.2-0.3,0.3
			C111.1,46.2,111,46.2,110.8,46.2L110.8,46.2z M111.1,50.7c-0.3,0-0.6,0-0.9-0.1c-0.3,0-0.5-0.1-0.7-0.2c-0.2-0.1-0.4-0.2-0.5-0.3
			c-0.1-0.1-0.2-0.2-0.2-0.3c0-0.3,0.2-0.6,0.6-1.1c0.3,0,0.6,0.1,0.9,0.1c0.4,0,0.8,0,1.3,0.1c0.3,0,0.6,0,0.9,0.1
			c0.2,0,0.4,0.1,0.5,0.1c0.1,0,0.2,0.1,0.2,0.2c0,0.1,0.1,0.1,0.1,0.2c0,0.1,0,0.3-0.1,0.4c-0.1,0.1-0.2,0.3-0.4,0.4
			c-0.2,0.1-0.4,0.2-0.7,0.3C111.9,50.6,111.5,50.7,111.1,50.7L111.1,50.7z"/>
	</g>
	<g id="XMLID_66_">
		<path id="XMLID_263_" class="st1" d="M114.8,48.7l-0.1-0.3c0.2,0,0.3-0.1,0.4-0.1c0.1,0,0.2,0,0.2-0.1c0.1,0,0.1-0.1,0.1-0.1
			c0,0,0.1-0.1,0.1-0.2c0.1-0.1,0.1-0.4,0.1-0.7v-2.4c0-0.4,0-0.7,0-0.9c0-0.2,0-0.4-0.1-0.5c0-0.1-0.1-0.2-0.1-0.2
			c-0.1,0-0.1,0-0.2,0c-0.1,0-0.3,0-0.4,0.1l-0.2-0.3l1.9-0.8l0.3,0l0.1,5c0,0.2,0,0.4,0,0.5c0,0.1,0,0.2,0.1,0.3
			c0,0.1,0.1,0.1,0.1,0.1c0,0,0.1,0.1,0.1,0.1c0.1,0.1,0.3,0.1,0.6,0.1l0.1,0.3v0L114.8,48.7L114.8,48.7z M116.3,40.6
			c-0.1,0-0.2,0-0.3-0.1s-0.2-0.1-0.2-0.2c-0.1-0.1-0.1-0.1-0.2-0.2c0-0.1-0.1-0.2-0.1-0.3c0-0.1,0-0.2,0.1-0.3
			c0-0.1,0.1-0.2,0.2-0.2c0.1-0.1,0.1-0.1,0.2-0.2c0.1,0,0.2-0.1,0.3-0.1c0.1,0,0.2,0,0.3,0.1c0.1,0,0.2,0.1,0.2,0.2
			c0.1,0.1,0.1,0.1,0.2,0.2s0.1,0.2,0.1,0.3c0,0.1,0,0.2-0.1,0.3c0,0.1-0.1,0.2-0.2,0.2c-0.1,0.1-0.1,0.1-0.2,0.2
			C116.5,40.5,116.4,40.6,116.3,40.6z"/>
		<path id="XMLID_258_" class="st1" d="M116.3,39.2c0.1,0,0.2,0,0.3,0.1c0.1,0,0.2,0.1,0.2,0.1c0.1,0.1,0.1,0.1,0.1,0.2
			c0,0.1,0.1,0.2,0.1,0.3c0,0.1,0,0.2-0.1,0.3c0,0.1-0.1,0.2-0.1,0.2c-0.1,0.1-0.1,0.1-0.2,0.1c-0.1,0-0.2,0.1-0.3,0.1
			s-0.2,0-0.3-0.1s-0.2-0.1-0.2-0.1c-0.1-0.1-0.1-0.1-0.1-0.2s-0.1-0.2-0.1-0.3c0-0.1,0-0.2,0.1-0.3s0.1-0.2,0.1-0.2
			c0.1-0.1,0.1-0.1,0.2-0.1C116.1,39.2,116.2,39.2,116.3,39.2 M116.9,42.4v4.9c0,0.2,0,0.4,0,0.5c0,0.1,0,0.2,0.1,0.3
			c0,0.1,0.1,0.1,0.1,0.2c0,0,0.1,0.1,0.1,0.1c0.1,0.1,0.3,0.1,0.6,0.1v0.2h-3v-0.2c0.2,0,0.3,0,0.4,0c0.1,0,0.2,0,0.2-0.1
			c0.1,0,0.1-0.1,0.1-0.1c0,0,0.1-0.1,0.1-0.2c0.1-0.1,0.1-0.4,0.1-0.8v-2.4c0-0.4,0-0.7,0-0.9c0-0.2,0-0.4-0.1-0.5
			c0-0.1-0.1-0.2-0.1-0.2c-0.1,0-0.1,0-0.2,0c-0.1,0-0.3,0-0.5,0.1l-0.1-0.2l1.9-0.7L116.9,42.4 M116.3,39.1c-0.1,0-0.2,0-0.3,0.1
			c-0.1,0-0.2,0.1-0.3,0.2c-0.1,0.1-0.1,0.2-0.2,0.2c0,0.1-0.1,0.2-0.1,0.3c0,0.1,0,0.2,0.1,0.3c0,0.1,0.1,0.2,0.2,0.2
			c0.1,0.1,0.2,0.1,0.2,0.2c0.1,0,0.2,0.1,0.3,0.1s0.2,0,0.3-0.1s0.2-0.1,0.2-0.2c0.1-0.1,0.1-0.2,0.2-0.2c0-0.1,0.1-0.2,0.1-0.3
			c0-0.1,0-0.2-0.1-0.3c0-0.1-0.1-0.2-0.2-0.2c-0.1-0.1-0.2-0.1-0.2-0.2C116.5,39.1,116.4,39.1,116.3,39.1L116.3,39.1z M117,42.3
			L117,42.3h-0.4h0l0,0l-1.9,0.7l-0.1,0l0,0.1l0.1,0.2l0,0.1l0.1,0c0.2-0.1,0.3-0.1,0.4-0.1c0.1,0,0.2,0,0.2,0c0,0,0.1,0.1,0.1,0.1
			c0,0.1,0.1,0.3,0.1,0.5c0,0.2,0,0.5,0,0.9v2.4c0,0.4,0,0.6-0.1,0.7c0,0.1-0.1,0.1-0.1,0.2c0,0-0.1,0.1-0.1,0.1
			c-0.1,0-0.1,0-0.2,0.1c-0.1,0-0.2,0-0.4,0h-0.1v0.1v0.2v0.1h0.1h3h0.1v-0.1v-0.2v-0.1h-0.1c-0.3,0-0.5,0-0.6-0.1
			c0,0-0.1-0.1-0.1-0.1c0,0-0.1-0.1-0.1-0.1c0-0.1,0-0.2-0.1-0.3c0-0.1,0-0.3,0-0.5L117,42.3L117,42.3L117,42.3z"/>
	</g>
	<g id="XMLID_64_">
		<path id="XMLID_212_" class="st1" d="M120.4,48.8c-0.1,0-0.2,0-0.3,0c-0.1,0-0.2-0.1-0.3-0.1c-0.1-0.1-0.2-0.1-0.3-0.2
			c-0.1-0.1-0.1-0.2-0.2-0.3c-0.1-0.2-0.1-0.5-0.1-1V43l-0.9,0l-0.1-0.3c0.3-0.1,0.5-0.3,0.8-0.5c0.3-0.2,0.5-0.5,0.7-0.8
			c0-0.1,0.1-0.2,0.2-0.4c0.1-0.2,0.2-0.3,0.2-0.6l0.3,0l0.1,2.1l1.4,0l0.1,0.5l-1.5,0l0.1,3.9c0,0.2,0,0.4,0,0.5
			c0,0.1,0.1,0.2,0.1,0.3c0,0.1,0.1,0.1,0.2,0.1s0.1,0,0.2,0c0.1,0,0.3,0,0.4-0.1c0.1-0.1,0.2-0.2,0.3-0.4l0.3,0
			c0,0.3-0.1,0.5-0.3,0.7c-0.1,0.2-0.2,0.3-0.4,0.4c-0.1,0.1-0.3,0.2-0.4,0.3C120.7,48.8,120.6,48.8,120.4,48.8z"/>
		<path id="XMLID_200_" class="st1" d="M120.4,40.5v2h1.4V43h-1.4v4c0,0.2,0,0.4,0,0.5c0,0.1,0.1,0.2,0.1,0.3s0.1,0.1,0.2,0.2
			c0.1,0,0.2,0,0.2,0c0.1,0,0.3,0,0.4-0.1c0.1-0.1,0.2-0.2,0.3-0.4h0.3c-0.1,0.2-0.2,0.4-0.3,0.6c-0.1,0.2-0.2,0.3-0.4,0.4
			c-0.1,0.1-0.3,0.2-0.4,0.2c-0.2,0.1-0.3,0.1-0.5,0.1c-0.1,0-0.2,0-0.3,0s-0.2-0.1-0.3-0.1c-0.1-0.1-0.2-0.1-0.3-0.2
			s-0.1-0.2-0.2-0.3c-0.1-0.2-0.1-0.5-0.1-1V43h-1v-0.2c0.2-0.1,0.5-0.3,0.8-0.5c0.3-0.2,0.5-0.5,0.7-0.8c0-0.1,0.1-0.2,0.2-0.4
			c0.1-0.2,0.2-0.3,0.2-0.6L120.4,40.5 M120.5,40.4L120.5,40.4h-0.3h-0.1l0,0.1c-0.1,0.2-0.2,0.4-0.2,0.6c-0.1,0.2-0.1,0.3-0.2,0.3
			c-0.2,0.3-0.4,0.6-0.7,0.8c-0.2,0.2-0.5,0.4-0.7,0.5l-0.1,0v0.1V43v0.1h0.1h0.9v4c0,0.5,0,0.8,0.2,1c0,0.1,0.1,0.2,0.2,0.3
			c0.1,0.1,0.2,0.2,0.3,0.2s0.2,0.1,0.3,0.1c0.1,0,0.2,0,0.3,0c0.2,0,0.3,0,0.5-0.1c0.2-0.1,0.3-0.1,0.5-0.3
			c0.1-0.1,0.3-0.3,0.4-0.4c0.1-0.2,0.2-0.4,0.3-0.6l0.1-0.1H122h-0.3h-0.1l0,0.1c-0.1,0.2-0.2,0.3-0.3,0.4
			c-0.1,0.1-0.2,0.1-0.4,0.1c-0.1,0-0.1,0-0.2,0c-0.1,0-0.1-0.1-0.1-0.1c0-0.1-0.1-0.2-0.1-0.3c0-0.1,0-0.3,0-0.5v-3.9h1.3h0.1V43
			v-0.5v-0.1h-0.1h-1.3v-1.9L120.5,40.4L120.5,40.4z"/>
	</g>
	<g id="XMLID_61_">
		<path id="XMLID_249_" class="st1" d="M123.9,48.8c-0.2,0-0.4,0-0.6-0.1c-0.2-0.1-0.3-0.2-0.5-0.3c-0.1-0.1-0.2-0.3-0.3-0.5
			c-0.1-0.2-0.1-0.4-0.1-0.7c0-0.2,0-0.3,0.1-0.5c0-0.2,0.1-0.3,0.2-0.4c0.1-0.1,0.2-0.3,0.4-0.4c0.1-0.1,0.3-0.2,0.5-0.4
			c0.5-0.3,1.2-0.6,2.3-1l0-0.2c0-0.3,0-0.6-0.1-0.8c-0.1-0.2-0.1-0.4-0.2-0.5s-0.2-0.2-0.3-0.2c-0.1,0-0.3-0.1-0.5-0.1
			c-0.1,0-0.3,0-0.4,0.1c-0.1,0-0.2,0.1-0.3,0.2c-0.1,0.1-0.1,0.1-0.2,0.2c0,0.1-0.1,0.2-0.1,0.3l0,0.4c0,0.2-0.1,0.4-0.2,0.5
			c-0.1,0.1-0.3,0.2-0.4,0.2c-0.2,0-0.3-0.1-0.4-0.2c-0.1-0.1-0.2-0.3-0.2-0.5c0-0.2,0.1-0.4,0.2-0.6c0.1-0.2,0.3-0.4,0.5-0.5
			c0.2-0.1,0.4-0.3,0.7-0.4s0.6-0.1,1-0.1c0.5,0,0.9,0.1,1.2,0.2c0.3,0.1,0.6,0.4,0.7,0.7c0.1,0.2,0.1,0.6,0.1,1.2v2.1
			c0,0.3,0,0.5,0,0.7c0,0.2,0,0.3,0,0.4c0,0.1,0.1,0.2,0.1,0.2c0,0,0.1,0.1,0.1,0.1c0,0,0.1,0,0.1,0c0,0,0.1,0,0.1-0.1
			c0.1,0,0.1-0.1,0.2-0.2l0.3-0.3l0.1,0.4c-0.5,0.7-1,1-1.5,1c-0.2,0-0.4-0.1-0.6-0.2c-0.1-0.2-0.2-0.4-0.2-0.8
			c-0.6,0.5-1,0.8-1.1,0.9C124.5,48.8,124.2,48.8,123.9,48.8z M125.8,45.1c-0.3,0.1-0.6,0.2-0.8,0.3c-0.2,0.1-0.4,0.2-0.5,0.2
			c-0.3,0.2-0.6,0.4-0.7,0.6c-0.1,0.2-0.2,0.4-0.2,0.7c0,0.2,0,0.3,0.1,0.4c0.1,0.1,0.1,0.2,0.2,0.3c0.1,0.1,0.2,0.2,0.3,0.2
			c0.1,0.1,0.2,0.1,0.3,0.1c0.3,0,0.8-0.2,1.3-0.7L125.8,45.1z"/>
		<path id="XMLID_244_" class="st1" d="M124.9,42.4c0.5,0,0.9,0.1,1.2,0.2c0.3,0.1,0.6,0.4,0.7,0.7c0.1,0.2,0.1,0.6,0.1,1.2v2.1
			c0,0.3,0,0.5,0,0.7c0,0.2,0,0.3,0,0.4c0,0.1,0.1,0.2,0.1,0.3s0.1,0.1,0.2,0.1c0,0,0.1,0,0.1,0c0,0,0.1,0,0.1-0.1s0.1-0.1,0.2-0.2
			c0.1-0.1,0.2-0.2,0.3-0.3v0.4c-0.5,0.7-1,1-1.4,1c-0.2,0-0.4-0.1-0.5-0.2s-0.2-0.4-0.2-0.8c-0.6,0.5-1,0.8-1.2,0.8
			c-0.2,0.1-0.5,0.2-0.8,0.2c-0.2,0-0.4,0-0.6-0.1c-0.2-0.1-0.3-0.2-0.5-0.3c-0.1-0.1-0.2-0.3-0.3-0.5c-0.1-0.2-0.1-0.4-0.1-0.6
			c0-0.2,0-0.3,0.1-0.5s0.1-0.3,0.2-0.4s0.2-0.3,0.4-0.4c0.1-0.1,0.3-0.2,0.5-0.4c0.5-0.3,1.2-0.6,2.3-1v-0.2c0-0.3,0-0.6-0.1-0.8
			c-0.1-0.2-0.1-0.4-0.2-0.5c-0.1-0.1-0.2-0.2-0.4-0.3s-0.3-0.1-0.5-0.1c-0.1,0-0.3,0-0.4,0.1s-0.2,0.1-0.3,0.2
			c-0.1,0.1-0.1,0.1-0.2,0.2c0,0.1-0.1,0.2-0.1,0.3l0,0.4c0,0.2-0.1,0.4-0.2,0.5c-0.1,0.1-0.2,0.2-0.4,0.2c-0.2,0-0.3-0.1-0.4-0.2
			c-0.1-0.1-0.2-0.3-0.2-0.5c0-0.2,0.1-0.4,0.2-0.6c0.1-0.2,0.2-0.3,0.4-0.5c0.2-0.1,0.4-0.3,0.7-0.4
			C124.3,42.4,124.6,42.4,124.9,42.4 M124.5,48c0.3,0,0.8-0.2,1.3-0.7V45c-0.3,0.1-0.6,0.2-0.8,0.3c-0.2,0.1-0.4,0.2-0.5,0.2
			c-0.4,0.2-0.6,0.4-0.8,0.6c-0.2,0.2-0.2,0.4-0.2,0.7c0,0.2,0,0.3,0.1,0.4c0.1,0.1,0.1,0.3,0.2,0.4c0.1,0.1,0.2,0.2,0.3,0.2
			C124.3,48,124.4,48,124.5,48 M124.9,42.3c-0.4,0-0.7,0-1,0.1c-0.3,0.1-0.5,0.2-0.7,0.4c-0.2,0.2-0.4,0.3-0.5,0.5
			c-0.1,0.2-0.2,0.4-0.2,0.6c0,0.2,0.1,0.4,0.2,0.5c0.1,0.1,0.3,0.2,0.5,0.2c0.2,0,0.4-0.1,0.5-0.2c0.1-0.1,0.2-0.3,0.2-0.5l0-0.4
			c0-0.1,0-0.2,0.1-0.2c0-0.1,0.1-0.1,0.2-0.2c0.1-0.1,0.2-0.1,0.3-0.1c0.1,0,0.2-0.1,0.4-0.1c0.2,0,0.3,0,0.5,0.1
			c0.1,0,0.2,0.1,0.3,0.2c0.1,0.1,0.2,0.3,0.2,0.5c0,0.2,0.1,0.4,0.1,0.7v0.2c-1,0.4-1.8,0.7-2.2,1c-0.2,0.1-0.4,0.2-0.5,0.4
			c-0.2,0.1-0.3,0.3-0.4,0.4c-0.1,0.1-0.2,0.3-0.2,0.4c-0.1,0.2-0.1,0.3-0.1,0.5c0,0.2,0,0.5,0.1,0.7c0.1,0.2,0.2,0.4,0.3,0.5
			c0.1,0.1,0.3,0.3,0.5,0.3c0.2,0.1,0.4,0.1,0.6,0.1c0.3,0,0.6-0.1,0.8-0.2c0.2-0.1,0.5-0.3,1.1-0.7c0,0.3,0.1,0.5,0.2,0.6
			c0.2,0.2,0.4,0.3,0.6,0.3c0.5,0,1-0.3,1.5-1l0,0v0v-0.4v-0.2l-0.2,0.2c-0.1,0.1-0.2,0.2-0.3,0.3c-0.1,0.1-0.1,0.1-0.2,0.2
			c-0.1,0-0.1,0.1-0.1,0.1c0,0-0.1,0-0.1,0c0,0-0.1,0-0.1,0c0,0-0.1-0.1-0.1-0.2c0-0.1,0-0.2,0-0.4c0-0.2,0-0.4,0-0.7v-2.1
			c0-0.6,0-1-0.1-1.2c-0.2-0.4-0.4-0.6-0.8-0.8C125.9,42.3,125.4,42.3,124.9,42.3L124.9,42.3z M124.5,47.9c-0.1,0-0.2,0-0.3-0.1
			c-0.1,0-0.2-0.1-0.3-0.2c-0.1-0.1-0.1-0.2-0.2-0.3c0-0.1-0.1-0.3-0.1-0.4c0-0.2,0.1-0.4,0.2-0.6c0.1-0.2,0.4-0.4,0.7-0.6
			c0.1-0.1,0.3-0.1,0.5-0.2c0.2-0.1,0.4-0.2,0.7-0.3v2.1C125.3,47.7,124.9,47.9,124.5,47.9L124.5,47.9z"/>
	</g>
	<g id="XMLID_59_">
		<path id="XMLID_196_" class="st1" d="M128.6,48.7l-0.1-0.3c0.2,0,0.4-0.1,0.5-0.1c0.1,0,0.2-0.1,0.2-0.2c0.1-0.1,0.1-0.2,0.1-0.3
			c0-0.1,0-0.3,0-0.6v-5.5c0-0.3,0-0.6,0-0.8c0-0.2,0-0.3,0-0.4c0-0.1-0.1-0.2-0.1-0.3c-0.1,0-0.1-0.1-0.2-0.1c-0.1,0-0.3,0-0.4,0.1
			l-0.2-0.3l1.9-0.8l0.3,0l0.1,8.1c0,0.2,0,0.4,0,0.5c0,0.1,0,0.2,0.1,0.3c0,0.1,0.1,0.1,0.1,0.2c0,0,0.1,0.1,0.1,0.1
			c0.1,0.1,0.3,0.1,0.6,0.1l0.1,0.3v0L128.6,48.7L128.6,48.7z"/>
		<path id="XMLID_193_" class="st1" d="M130.6,39.2v8.1c0,0.2,0,0.4,0,0.5s0,0.2,0.1,0.3c0,0.1,0.1,0.1,0.1,0.2c0,0,0.1,0.1,0.2,0.1
			c0.1,0.1,0.3,0.1,0.7,0.1v0.2h-3v-0.2c0.2,0,0.4,0,0.5,0c0.1,0,0.2-0.1,0.3-0.2s0.1-0.2,0.1-0.3c0-0.1,0-0.3,0-0.6v-5.5
			c0-0.3,0-0.6,0-0.8c0-0.2,0-0.4,0-0.4c0-0.2-0.1-0.3-0.2-0.3c-0.1-0.1-0.2-0.1-0.3-0.1c-0.1,0-0.3,0-0.4,0.1l-0.1-0.2l1.8-0.7
			L130.6,39.2 M130.7,39.1h-0.1h-0.3h0l0,0l-1.8,0.7l-0.1,0l0,0.1l0.1,0.2l0,0.1l0.1,0c0.2-0.1,0.3-0.1,0.4-0.1c0.1,0,0.1,0,0.2,0.1
			c0,0,0.1,0.1,0.1,0.3c0,0,0,0.2,0,0.4c0,0.2,0,0.5,0,0.8v5.5c0,0.2,0,0.4,0,0.6c0,0.1-0.1,0.2-0.1,0.3c-0.1,0.1-0.1,0.1-0.2,0.1
			c-0.1,0-0.3,0-0.5,0h-0.1v0.1v0.2v0.1h0.1h3h0.1v-0.1v-0.2v-0.1h-0.1c-0.4,0-0.5,0-0.6-0.1c-0.1,0-0.1-0.1-0.1-0.1
			c0,0-0.1-0.1-0.1-0.1c0-0.1,0-0.2-0.1-0.3c0-0.1,0-0.3,0-0.5L130.7,39.1L130.7,39.1L130.7,39.1z"/>
	</g>
	<g id="XMLID_56_">
		<path id="XMLID_235_" class="st1" d="M139,48.7l-0.1-0.3l0.4,0c0.4,0,0.6-0.1,0.8-0.3c0.1-0.1,0.1-0.5,0.1-1v-5.8
			c0-0.7-0.1-0.9-0.2-1c-0.2-0.2-0.4-0.3-0.7-0.3H139l-0.1-0.3l3.8,0c1.4,0,2.4,0.2,3.1,0.5c0.7,0.3,1.3,0.8,1.7,1.6
			c0.4,0.7,0.7,1.6,0.7,2.5c0,0.7-0.1,1.3-0.3,1.9c-0.2,0.6-0.6,1.1-1,1.5c-0.4,0.4-1,0.7-1.6,1c-0.6,0.2-1.4,0.3-2.2,0.3
			C143.1,48.7,139,48.7,139,48.7z M143,40.2c-0.2,0-0.4,0-0.6,0c-0.2,0-0.5,0.1-0.7,0.1l0,7.6c0.5,0.1,1,0.1,1.4,0.1
			c0.5,0,1-0.1,1.4-0.3c0.4-0.2,0.8-0.5,1.1-0.8c0.3-0.3,0.6-0.8,0.8-1.3c0.2-0.5,0.3-1,0.3-1.7c0-0.6-0.1-1.2-0.3-1.7
			c-0.2-0.5-0.4-0.9-0.7-1.3c-0.3-0.3-0.7-0.6-1.1-0.8C144,40.2,143.6,40.2,143,40.2z"/>
		<path id="XMLID_230_" class="st1" d="M142.8,39.6c1.4,0,2.4,0.2,3.1,0.5c0.7,0.3,1.3,0.8,1.7,1.5c0.4,0.7,0.7,1.5,0.7,2.5
			c0,0.7-0.1,1.3-0.3,1.8s-0.5,1-1,1.4c-0.4,0.4-1,0.7-1.6,0.9c-0.6,0.2-1.4,0.3-2.2,0.3H139v-0.2h0.3c0.4,0,0.7-0.1,0.8-0.4
			c0.1-0.1,0.1-0.5,0.1-1v-5.8c0-0.6-0.1-0.9-0.2-1.1c-0.2-0.2-0.4-0.3-0.8-0.3H139v-0.2H142.8 M143.1,48.2c0.5,0,1-0.1,1.4-0.3
			c0.4-0.2,0.8-0.5,1.1-0.8c0.3-0.3,0.6-0.8,0.8-1.3s0.3-1.1,0.3-1.7c0-0.6-0.1-1.2-0.3-1.7c-0.2-0.5-0.4-0.9-0.8-1.3
			s-0.7-0.6-1.2-0.8c-0.5-0.2-0.9-0.3-1.5-0.3c-0.2,0-0.4,0-0.6,0c-0.2,0-0.5,0.1-0.7,0.1V48C142.2,48.1,142.7,48.2,143.1,48.2
			 M142.8,39.5H139h-0.1v0.1v0.2v0.1h0.1h0.3c0.3,0,0.6,0.1,0.7,0.3c0.1,0.1,0.2,0.3,0.2,1V47c0,0.6-0.1,0.8-0.1,0.9
			c-0.1,0.2-0.4,0.3-0.7,0.3H139h-0.1v0.1v0.2v0.1h0.1h4.1c0.8,0,1.6-0.1,2.3-0.3c0.6-0.2,1.2-0.6,1.6-1c0.4-0.4,0.8-0.9,1-1.5
			c0.2-0.6,0.3-1.2,0.3-1.9c0-1-0.2-1.8-0.7-2.5c-0.4-0.7-1-1.3-1.8-1.6C145.2,39.7,144.1,39.5,142.8,39.5L142.8,39.5z M141.7,40.4
			c0.2-0.1,0.4-0.1,0.6-0.1c0.2,0,0.4,0,0.6,0c0.5,0,1,0.1,1.4,0.3c0.4,0.2,0.8,0.4,1.1,0.8c0.3,0.3,0.6,0.8,0.7,1.2
			c0.2,0.5,0.3,1,0.3,1.6c0,0.6-0.1,1.2-0.3,1.6c-0.2,0.5-0.4,0.9-0.7,1.2c-0.3,0.3-0.7,0.6-1.1,0.8c-0.4,0.2-0.9,0.3-1.4,0.3
			c-0.4,0-0.8-0.1-1.3-0.2L141.7,40.4L141.7,40.4z"/>
	</g>
	<g id="XMLID_53_">
		<path id="XMLID_226_" class="st1" d="M152,48.9c-0.4,0-0.7-0.1-1.1-0.2c-0.3-0.2-0.6-0.4-0.9-0.6c-0.2-0.3-0.4-0.6-0.6-1
			s-0.2-0.8-0.2-1.3c0-0.5,0.1-1,0.2-1.4c0.1-0.4,0.4-0.8,0.6-1.1c0.3-0.3,0.6-0.5,0.9-0.7c0.4-0.1,0.7-0.2,1.1-0.2
			c0.3,0,0.7,0.1,1,0.2s0.6,0.3,0.8,0.5c0.2,0.2,0.4,0.5,0.5,0.8c0.1,0.3,0.2,0.7,0.2,1l-4.3,0c0.1,0.4,0.1,0.8,0.2,1.2
			c0.1,0.4,0.3,0.7,0.5,0.9c0.2,0.2,0.4,0.4,0.7,0.6c0.3,0.1,0.5,0.2,0.8,0.2c0.4,0,0.7-0.1,1-0.3c0.3-0.2,0.5-0.6,0.7-1.1l0.3,0.1
			c0,0.4-0.1,0.7-0.3,0.9c-0.1,0.3-0.3,0.6-0.5,0.8c-0.2,0.2-0.5,0.4-0.8,0.6C152.6,48.8,152.3,48.9,152,48.9z M151.7,42.9
			c-0.2,0-0.4,0-0.5,0.1c-0.2,0.1-0.3,0.2-0.4,0.3c-0.1,0.1-0.2,0.3-0.3,0.5c-0.1,0.2-0.1,0.4-0.2,0.7l2.8-0.1
			c-0.1-0.3-0.1-0.6-0.2-0.8c-0.1-0.2-0.3-0.4-0.5-0.6C152.2,42.9,152,42.9,151.7,42.9z"/>
		<path id="XMLID_221_" class="st1" d="M152.1,42.3c0.3,0,0.7,0.1,0.9,0.2c0.3,0.1,0.5,0.3,0.8,0.5c0.2,0.2,0.4,0.5,0.5,0.8
			c0.1,0.3,0.2,0.6,0.2,1h-4.3c0,0.5,0.1,0.9,0.2,1.2c0.1,0.4,0.3,0.7,0.5,0.9c0.2,0.3,0.4,0.4,0.7,0.6c0.3,0.1,0.6,0.2,0.9,0.2
			c0.4,0,0.8-0.1,1.1-0.3c0.3-0.2,0.5-0.6,0.8-1.1l0.2,0.1c0,0.3-0.1,0.6-0.3,0.9c-0.1,0.3-0.3,0.5-0.5,0.8
			c-0.2,0.2-0.5,0.4-0.8,0.5c-0.3,0.1-0.6,0.2-0.9,0.2c-0.4,0-0.7-0.1-1-0.2s-0.6-0.4-0.9-0.6c-0.2-0.3-0.4-0.6-0.6-1
			s-0.2-0.8-0.2-1.3c0-0.5,0.1-1,0.2-1.4c0.1-0.4,0.3-0.8,0.6-1c0.3-0.3,0.6-0.5,0.9-0.6C151.3,42.4,151.7,42.3,152.1,42.3
			 M150.2,44.4h2.9c0-0.4-0.1-0.7-0.1-0.8c-0.1-0.2-0.3-0.4-0.5-0.6c-0.2-0.1-0.5-0.2-0.7-0.2c-0.2,0-0.4,0-0.5,0.1
			c-0.2,0.1-0.3,0.2-0.5,0.3s-0.3,0.3-0.3,0.5C150.3,44,150.3,44.2,150.2,44.4 M152.1,42.2c-0.4,0-0.8,0.1-1.2,0.2
			c-0.4,0.2-0.7,0.4-0.9,0.7c-0.3,0.3-0.5,0.7-0.6,1.1c-0.1,0.4-0.2,0.9-0.2,1.4c0,0.5,0.1,0.9,0.2,1.3c0.1,0.4,0.4,0.7,0.6,1
			c0.3,0.3,0.6,0.5,0.9,0.7c0.3,0.2,0.7,0.2,1.1,0.2c0.4,0,0.7-0.1,1-0.2c0.3-0.1,0.6-0.3,0.8-0.6c0.2-0.2,0.4-0.5,0.6-0.8
			c0.1-0.3,0.2-0.6,0.3-0.9l0-0.1l-0.1,0l-0.2-0.1l-0.1-0.1l0,0.1c-0.2,0.5-0.4,0.9-0.7,1.1c-0.3,0.2-0.6,0.3-1,0.3
			c-0.3,0-0.6-0.1-0.8-0.2c-0.3-0.1-0.5-0.3-0.7-0.5c-0.2-0.2-0.4-0.5-0.5-0.9c-0.1-0.3-0.2-0.7-0.2-1.1h4.2h0.1v-0.1
			c0-0.4-0.1-0.7-0.2-1.1c-0.1-0.3-0.3-0.6-0.5-0.8c-0.2-0.2-0.5-0.4-0.8-0.5C152.8,42.3,152.5,42.2,152.1,42.2L152.1,42.2z
			 M150.3,44.3c0-0.2,0.1-0.4,0.2-0.5c0.1-0.2,0.2-0.3,0.3-0.5c0.1-0.1,0.3-0.2,0.4-0.3c0.2-0.1,0.3-0.1,0.5-0.1
			c0.2,0,0.4,0.1,0.6,0.2c0.2,0.1,0.4,0.3,0.5,0.5c0.1,0.1,0.1,0.4,0.1,0.7H150.3L150.3,44.3z"/>
	</g>
	<g id="XMLID_51_">
		<path id="XMLID_191_" class="st1" d="M158.7,48.7l-0.1-0.3l0.2,0c0.2,0,0.4,0,0.5-0.1c0.1,0,0.2-0.1,0.2-0.2
			c0.1-0.1,0.1-0.2,0.1-0.3c0-0.1,0-0.3,0-0.5v-2.5c0-0.5-0.1-0.9-0.2-1.2c-0.1-0.2-0.4-0.4-0.7-0.4c-0.5,0-1,0.3-1.6,0.8l0,3.2
			c0,0.5,0,0.7,0.1,0.7c0,0.1,0.1,0.1,0.1,0.2c0,0,0.1,0.1,0.1,0.1c0.1,0,0.1,0,0.2,0.1c0.1,0,0.2,0,0.4,0l0.1,0.3l-3.1,0l-0.1-0.3
			l0.2,0c0.2,0,0.3,0,0.4-0.1c0.1,0,0.2-0.1,0.2-0.2c0.1-0.1,0.1-0.2,0.1-0.3c0-0.1,0-0.3,0-0.5V45c0-0.7,0-1.2-0.1-1.3
			c0-0.1-0.1-0.2-0.1-0.3c-0.1-0.1-0.1-0.1-0.2-0.1c-0.1,0-0.3,0-0.4,0.1l-0.2-0.3l1.9-0.8l0.3,0l0.1,1.3c0.6-0.9,1.3-1.3,2-1.3
			c0.2,0,0.5,0,0.7,0.1c0.2,0.1,0.4,0.2,0.5,0.4c0.1,0.2,0.3,0.4,0.3,0.7c0.1,0.3,0.1,0.7,0.1,1.1v2.6c0,0.3,0,0.5,0,0.6
			c0,0.1,0.1,0.2,0.1,0.3c0.1,0.1,0.1,0.1,0.3,0.1c0.1,0,0.3,0,0.4,0l0.1,0.3v0C161.8,48.7,158.7,48.7,158.7,48.7z"/>
		<path id="XMLID_180_" class="st1" d="M159.2,42.4c0.2,0,0.4,0,0.6,0.1s0.4,0.2,0.5,0.4c0.1,0.2,0.3,0.4,0.3,0.7
			c0.1,0.3,0.1,0.7,0.1,1.1v2.6c0,0.3,0,0.5,0,0.6c0,0.2,0.1,0.3,0.2,0.3c0.1,0.1,0.2,0.1,0.3,0.1c0.1,0,0.3,0,0.5,0v0.2h-3v-0.2
			h0.1c0.2,0,0.4,0,0.5-0.1c0.1,0,0.2-0.1,0.3-0.2c0.1-0.1,0.1-0.2,0.1-0.3s0-0.3,0-0.6v-2.5c0-0.6-0.1-1-0.2-1.2s-0.4-0.4-0.7-0.4
			c-0.5,0-1.1,0.3-1.6,0.9v3.2c0,0.4,0,0.7,0.1,0.8c0,0.1,0.1,0.1,0.1,0.2c0,0,0.1,0.1,0.2,0.1s0.2,0,0.3,0.1c0.1,0,0.2,0,0.4,0v0.2
			h-3v-0.2h0.1c0.2,0,0.3,0,0.4-0.1c0.1,0,0.2-0.1,0.2-0.2s0.1-0.2,0.1-0.3c0-0.1,0-0.3,0-0.5V45c0-0.7,0-1.2-0.1-1.3
			c0-0.2-0.1-0.3-0.2-0.3c-0.1-0.1-0.2-0.1-0.3-0.1c-0.1,0-0.3,0-0.5,0.1l-0.1-0.2l1.9-0.7h0.3v1.3
			C157.8,42.8,158.5,42.4,159.2,42.4 M159.2,42.3c-0.6,0-1.3,0.4-2,1.1v-1v-0.1h-0.1h-0.3h0l0,0l-1.9,0.7l-0.1,0l0,0.1l0.1,0.2
			l0,0.1l0.1,0c0.2-0.1,0.3-0.1,0.4-0.1c0.1,0,0.2,0,0.2,0.1c0,0,0.1,0.1,0.1,0.3c0,0.1,0.1,0.4,0.1,1.3v2.3c0,0.2,0,0.4,0,0.5
			c0,0.1-0.1,0.2-0.1,0.3c0,0.1-0.1,0.1-0.2,0.1c-0.1,0-0.2,0-0.4,0h-0.1H155v0.1v0.2v0.1h0.1h3h0.1v-0.1v-0.2v-0.1h-0.1
			c-0.2,0-0.3,0-0.4,0c-0.1,0-0.2,0-0.2-0.1c-0.1,0-0.1-0.1-0.1-0.1c0,0-0.1-0.1-0.1-0.2c0-0.1-0.1-0.2-0.1-0.7v-3.2
			c0.5-0.5,1-0.8,1.5-0.8c0.3,0,0.5,0.1,0.7,0.3c0.1,0.2,0.2,0.6,0.2,1.2v2.5c0,0.2,0,0.4,0,0.5c0,0.1,0,0.2-0.1,0.3
			c0,0.1-0.1,0.1-0.2,0.1c-0.1,0-0.3,0-0.4,0h-0.1h-0.1v0.1v0.2v0.1h0.1h3h0.1v-0.1v-0.2v-0.1h-0.1c-0.2,0-0.3,0-0.4,0
			c-0.1,0-0.2-0.1-0.2-0.1c-0.1-0.1-0.1-0.2-0.1-0.3c0-0.1,0-0.3,0-0.6v-2.6c0-0.4,0-0.8-0.1-1.1c-0.1-0.3-0.2-0.6-0.4-0.7
			c-0.2-0.2-0.3-0.3-0.5-0.4C159.6,42.3,159.4,42.3,159.2,42.3L159.2,42.3z"/>
	</g>
	<g id="XMLID_49_">
		<path id="XMLID_177_" class="st1" d="M164.1,48.8c-0.1,0-0.2,0-0.3,0c-0.1,0-0.2-0.1-0.3-0.1c-0.1-0.1-0.2-0.1-0.3-0.2
			c-0.1-0.1-0.1-0.2-0.2-0.3c-0.1-0.2-0.1-0.5-0.1-1V43l-0.9,0l-0.1-0.3c0.3-0.1,0.5-0.3,0.8-0.5c0.3-0.2,0.5-0.5,0.7-0.8
			c0-0.1,0.1-0.2,0.2-0.4c0.1-0.2,0.2-0.3,0.2-0.6l0.3,0l0.1,2.1l1.4,0l0.1,0.5l-1.5,0L164,47c0,0.2,0,0.4,0,0.5
			c0,0.1,0.1,0.2,0.1,0.3c0,0.1,0.1,0.1,0.2,0.1c0.1,0,0.1,0,0.2,0c0.1,0,0.3,0,0.4-0.1c0.1-0.1,0.2-0.2,0.3-0.4l0.3,0
			c0,0.3-0.1,0.5-0.3,0.7c-0.1,0.2-0.2,0.3-0.4,0.4c-0.1,0.1-0.3,0.2-0.4,0.3C164.4,48.8,164.2,48.8,164.1,48.8z"/>
		<path id="XMLID_174_" class="st1" d="M164,40.5v2h1.4V43H164v4c0,0.2,0,0.4,0,0.5c0,0.1,0.1,0.2,0.1,0.3c0.1,0.1,0.1,0.1,0.2,0.2
			c0.1,0,0.2,0,0.2,0c0.1,0,0.3,0,0.4-0.1c0.1-0.1,0.2-0.2,0.3-0.4h0.3c-0.1,0.2-0.2,0.4-0.3,0.6c-0.1,0.2-0.2,0.3-0.4,0.4
			c-0.1,0.1-0.3,0.2-0.4,0.2c-0.2,0.1-0.3,0.1-0.5,0.1c-0.1,0-0.2,0-0.3,0c-0.1,0-0.2-0.1-0.3-0.1c-0.1-0.1-0.2-0.1-0.3-0.2
			c-0.1-0.1-0.1-0.2-0.2-0.3c-0.1-0.2-0.1-0.5-0.1-1V43h-1v-0.2c0.2-0.1,0.5-0.3,0.8-0.5c0.3-0.2,0.5-0.5,0.7-0.8
			c0-0.1,0.1-0.2,0.2-0.4c0.1-0.2,0.2-0.3,0.2-0.6L164,40.5 M164.1,40.4H164h-0.2h-0.1l0,0.1c-0.1,0.2-0.2,0.4-0.2,0.6
			c-0.1,0.2-0.1,0.3-0.2,0.3c-0.2,0.3-0.4,0.6-0.7,0.8c-0.2,0.2-0.5,0.4-0.7,0.5l-0.1,0v0.1V43v0.1h0.1h0.9v4c0,0.5,0,0.8,0.1,1
			c0,0.1,0.1,0.2,0.2,0.3c0.1,0.1,0.2,0.2,0.3,0.2c0.1,0.1,0.2,0.1,0.3,0.1c0.1,0,0.2,0,0.3,0c0.2,0,0.3,0,0.5-0.1
			c0.2-0.1,0.3-0.1,0.5-0.3c0.1-0.1,0.3-0.3,0.4-0.4s0.2-0.4,0.3-0.6l0.1-0.1h-0.1h-0.3h-0.1l0,0.1c-0.1,0.2-0.2,0.3-0.3,0.4
			c-0.1,0.1-0.2,0.1-0.4,0.1c-0.1,0-0.1,0-0.2,0c-0.1,0-0.1-0.1-0.1-0.1c0-0.1-0.1-0.2-0.1-0.3c0-0.1,0-0.3,0-0.5v-3.9h1.3h0.1V43
			v-0.5v-0.1h-0.1h-1.3L164.1,40.4L164.1,40.4L164.1,40.4z"/>
	</g>
	<g id="XMLID_46_">
		<path id="XMLID_207_" class="st1" d="M167.6,48.8c-0.2,0-0.4,0-0.6-0.1s-0.3-0.2-0.5-0.3c-0.1-0.1-0.2-0.3-0.3-0.5
			c-0.1-0.2-0.1-0.4-0.1-0.7c0-0.2,0-0.3,0.1-0.5c0-0.2,0.1-0.3,0.2-0.4c0.1-0.1,0.2-0.3,0.4-0.4c0.1-0.1,0.3-0.2,0.5-0.4
			c0.5-0.3,1.2-0.6,2.3-1l0-0.2c0-0.3,0-0.6-0.1-0.8c0-0.2-0.1-0.4-0.2-0.5c-0.1-0.1-0.2-0.2-0.3-0.2c-0.1,0-0.3-0.1-0.5-0.1
			c-0.1,0-0.3,0-0.4,0.1c-0.1,0-0.2,0.1-0.3,0.2c-0.1,0.1-0.1,0.1-0.2,0.2c0,0.1-0.1,0.2-0.1,0.3l0,0.4c0,0.2-0.1,0.4-0.2,0.5
			c-0.1,0.1-0.3,0.2-0.4,0.2c-0.2,0-0.3-0.1-0.4-0.2c-0.1-0.1-0.2-0.3-0.2-0.5c0-0.2,0.1-0.4,0.2-0.6s0.3-0.4,0.5-0.5
			c0.2-0.1,0.4-0.3,0.7-0.4c0.3-0.1,0.6-0.1,1-0.1c0.5,0,0.9,0.1,1.2,0.2c0.3,0.1,0.6,0.4,0.7,0.7c0.1,0.2,0.1,0.6,0.1,1.2v2.1
			c0,0.3,0,0.5,0,0.7c0,0.2,0,0.3,0,0.4c0,0.1,0.1,0.2,0.1,0.2c0,0,0.1,0.1,0.1,0.1c0,0,0.1,0,0.1,0c0,0,0.1,0,0.1-0.1
			c0.1,0,0.1-0.1,0.2-0.2l0.3-0.3l0.1,0.4c-0.5,0.7-1,1-1.5,1c-0.2,0-0.4-0.1-0.6-0.2c-0.1-0.2-0.2-0.4-0.2-0.8
			c-0.6,0.5-1,0.8-1.1,0.9C168.1,48.8,167.8,48.8,167.6,48.8z M169.5,45.1c-0.3,0.1-0.6,0.2-0.8,0.3c-0.2,0.1-0.4,0.2-0.5,0.2
			c-0.3,0.2-0.6,0.4-0.7,0.6c-0.1,0.2-0.2,0.4-0.2,0.7c0,0.2,0,0.3,0.1,0.4c0.1,0.1,0.1,0.2,0.2,0.3c0.1,0.1,0.2,0.2,0.3,0.2
			c0.1,0.1,0.2,0.1,0.3,0.1c0.3,0,0.8-0.2,1.3-0.7L169.5,45.1z"/>
		<path id="XMLID_202_" class="st1" d="M168.6,42.4c0.5,0,0.9,0.1,1.2,0.2c0.3,0.1,0.6,0.4,0.7,0.7c0.1,0.2,0.1,0.6,0.1,1.2v2.1
			c0,0.3,0,0.5,0,0.7c0,0.2,0,0.3,0,0.4c0,0.1,0.1,0.2,0.1,0.3s0.1,0.1,0.2,0.1c0,0,0.1,0,0.1,0c0,0,0.1,0,0.1-0.1s0.1-0.1,0.2-0.2
			c0.1-0.1,0.2-0.2,0.3-0.3v0.4c-0.5,0.7-1,1-1.4,1c-0.2,0-0.4-0.1-0.5-0.2s-0.2-0.4-0.2-0.8c-0.6,0.5-1,0.8-1.2,0.8
			c-0.2,0.1-0.5,0.2-0.8,0.2c-0.2,0-0.4,0-0.6-0.1c-0.2-0.1-0.3-0.2-0.5-0.3c-0.1-0.1-0.2-0.3-0.3-0.5c-0.1-0.2-0.1-0.4-0.1-0.6
			c0-0.2,0-0.3,0.1-0.5s0.1-0.3,0.2-0.4c0.1-0.1,0.2-0.3,0.4-0.4c0.1-0.1,0.3-0.2,0.5-0.4c0.5-0.3,1.2-0.6,2.3-1v-0.2
			c0-0.3,0-0.6-0.1-0.8c-0.1-0.2-0.1-0.4-0.2-0.5c-0.1-0.1-0.2-0.2-0.4-0.3c-0.1-0.1-0.3-0.1-0.5-0.1c-0.1,0-0.3,0-0.4,0.1
			c-0.1,0-0.2,0.1-0.3,0.2c-0.1,0.1-0.1,0.1-0.2,0.2c0,0.1-0.1,0.2-0.1,0.3l0,0.4c0,0.2-0.1,0.4-0.2,0.5c-0.1,0.1-0.2,0.2-0.4,0.2
			c-0.2,0-0.3-0.1-0.4-0.2c-0.1-0.1-0.2-0.3-0.2-0.5c0-0.2,0.1-0.4,0.2-0.6c0.1-0.2,0.2-0.3,0.4-0.5s0.4-0.3,0.7-0.4
			C167.9,42.4,168.2,42.4,168.6,42.4 M168.2,48c0.3,0,0.8-0.2,1.3-0.7V45c-0.3,0.1-0.6,0.2-0.8,0.3c-0.2,0.1-0.4,0.2-0.5,0.2
			c-0.4,0.2-0.6,0.4-0.8,0.6c-0.2,0.2-0.2,0.4-0.2,0.7c0,0.2,0,0.3,0.1,0.4c0.1,0.1,0.1,0.3,0.2,0.4c0.1,0.1,0.2,0.2,0.3,0.2
			C167.9,48,168.1,48,168.2,48 M168.6,42.3c-0.4,0-0.7,0-1,0.1c-0.3,0.1-0.5,0.2-0.7,0.4c-0.2,0.2-0.4,0.3-0.5,0.5
			c-0.1,0.2-0.2,0.4-0.2,0.6c0,0.2,0.1,0.4,0.2,0.5c0.1,0.1,0.3,0.2,0.5,0.2c0.2,0,0.4-0.1,0.5-0.2c0.1-0.1,0.2-0.3,0.2-0.5l0-0.4
			c0-0.1,0-0.2,0.1-0.2c0-0.1,0.1-0.1,0.2-0.2c0.1-0.1,0.2-0.1,0.3-0.1c0.1,0,0.2-0.1,0.4-0.1c0.2,0,0.3,0,0.5,0.1
			c0.1,0,0.2,0.1,0.3,0.2c0.1,0.1,0.2,0.3,0.2,0.5c0,0.2,0.1,0.4,0.1,0.7v0.2c-1,0.4-1.8,0.7-2.2,1c-0.2,0.1-0.4,0.2-0.5,0.4
			s-0.3,0.3-0.4,0.4c-0.1,0.1-0.2,0.3-0.2,0.4c-0.1,0.2-0.1,0.3-0.1,0.5c0,0.2,0,0.5,0.1,0.7c0.1,0.2,0.2,0.4,0.3,0.5
			c0.1,0.1,0.3,0.3,0.5,0.3c0.2,0.1,0.4,0.1,0.6,0.1c0.3,0,0.6-0.1,0.8-0.2c0.2-0.1,0.5-0.3,1.1-0.7c0,0.3,0.1,0.5,0.2,0.6
			c0.2,0.2,0.4,0.3,0.6,0.3c0.5,0,1-0.3,1.5-1l0,0v0v-0.4v-0.2l-0.2,0.2c-0.1,0.1-0.2,0.2-0.3,0.3c-0.1,0.1-0.1,0.1-0.2,0.2
			c-0.1,0-0.1,0.1-0.1,0.1c0,0-0.1,0-0.1,0c0,0-0.1,0-0.1,0c0,0-0.1-0.1-0.1-0.2c0,0,0-0.1,0-0.4c0-0.2,0-0.4,0-0.7v-2.1
			c0-0.6,0-1-0.1-1.2c-0.2-0.4-0.4-0.6-0.8-0.8C169.5,42.3,169.1,42.3,168.6,42.3L168.6,42.3z M168.2,47.9c-0.1,0-0.2,0-0.3-0.1
			c-0.1,0-0.2-0.1-0.3-0.2c-0.1-0.1-0.1-0.2-0.2-0.3s-0.1-0.3-0.1-0.4c0-0.2,0.1-0.4,0.2-0.6c0.1-0.2,0.4-0.4,0.7-0.6
			c0.1-0.1,0.3-0.1,0.5-0.2c0.2-0.1,0.4-0.2,0.7-0.3v2.1C168.9,47.7,168.5,47.9,168.2,47.9L168.2,47.9z"/>
	</g>
	<g id="XMLID_44_">
		<path id="XMLID_172_" class="st1" d="M172.2,48.7l-0.1-0.3c0.2,0,0.4-0.1,0.5-0.1c0.1,0,0.2-0.1,0.2-0.2c0.1-0.1,0.1-0.2,0.1-0.3
			c0-0.1,0-0.3,0-0.6v-5.5c0-0.3,0-0.6,0-0.8c0-0.2,0-0.3,0-0.4c0-0.1-0.1-0.3-0.1-0.3c-0.1,0-0.1-0.1-0.2-0.1c-0.1,0-0.3,0-0.4,0.1
			l-0.2-0.3l1.9-0.8l0.3,0l0.1,8.1c0,0.2,0,0.4,0,0.5c0,0.1,0,0.2,0.1,0.3c0,0.1,0.1,0.1,0.1,0.2c0,0,0.1,0.1,0.1,0.1
			c0.1,0.1,0.3,0.1,0.6,0.1l0.1,0.3v0L172.2,48.7L172.2,48.7z"/>
		<path id="XMLID_169_" class="st1" d="M174.3,39.2v8.1c0,0.2,0,0.4,0,0.5s0,0.2,0.1,0.3c0,0.1,0.1,0.1,0.1,0.2c0,0,0.1,0.1,0.2,0.1
			c0.1,0.1,0.3,0.1,0.7,0.1v0.2h-3v-0.2c0.2,0,0.4,0,0.5,0c0.1,0,0.2-0.1,0.3-0.2s0.1-0.2,0.1-0.3c0-0.1,0-0.3,0-0.6v-5.5
			c0-0.3,0-0.6,0-0.8c0-0.2,0-0.4,0-0.4c0-0.2-0.1-0.3-0.2-0.3c-0.1-0.1-0.2-0.1-0.3-0.1c-0.1,0-0.3,0-0.4,0.1l-0.1-0.2l1.8-0.7
			L174.3,39.2 M174.4,39.1h-0.1H174h0l0,0l-1.8,0.7l-0.1,0l0,0.1l0.1,0.2l0,0.1l0.1,0c0.2-0.1,0.3-0.1,0.4-0.1c0.1,0,0.1,0,0.2,0.1
			c0,0,0.1,0.1,0.1,0.3c0,0,0,0.2,0,0.4c0,0.2,0,0.5,0,0.8v5.5c0,0.2,0,0.4,0,0.6c0,0.1-0.1,0.2-0.1,0.3c-0.1,0.1-0.1,0.1-0.2,0.1
			c-0.1,0-0.3,0-0.5,0h-0.1v0.1v0.2v0.1h0.1h3h0.1v-0.1v-0.2v-0.1h-0.1c-0.4,0-0.5,0-0.6-0.1c-0.1,0-0.1-0.1-0.1-0.1
			c0,0-0.1-0.1-0.1-0.1c0-0.1,0-0.2-0.1-0.3c0-0.1,0-0.3,0-0.5L174.4,39.1L174.4,39.1L174.4,39.1z"/>
	</g>
	<g id="XMLID_42_">
		<path id="XMLID_159_" class="st1" d="M186.1,48.9c-0.1,0-0.2,0-0.3,0s-0.2,0-0.3-0.1c-0.1,0-0.2-0.1-0.4-0.1
			c-0.1,0-0.2-0.1-0.3-0.1c-0.1,0-0.2-0.1-0.3-0.1l-0.2-0.1c-0.1,0-0.1,0-0.1,0c-0.1,0-0.2,0-0.2,0.1c0,0-0.1,0.1-0.1,0.4l-0.3,0
			l-0.1-3.1l0.3,0c0.1,0.4,0.2,0.6,0.3,0.9c0.1,0.2,0.2,0.4,0.3,0.6c0.1,0.2,0.2,0.3,0.4,0.4c0.2,0.1,0.3,0.2,0.5,0.4
			c0.2,0.1,0.4,0.2,0.6,0.2c0.2,0.1,0.5,0.1,0.7,0.1c0.3,0,0.5,0,0.7-0.1c0.2-0.1,0.4-0.2,0.6-0.3c0.2-0.1,0.3-0.3,0.3-0.5
			c0.1-0.2,0.1-0.4,0.1-0.5c0-0.3-0.1-0.5-0.2-0.7c-0.1-0.2-0.3-0.4-0.5-0.5c-0.2-0.2-0.4-0.3-0.7-0.4c-0.3-0.1-0.6-0.3-0.9-0.5
			c-0.3-0.2-0.7-0.4-1-0.6c-0.3-0.2-0.6-0.4-0.8-0.6c-0.2-0.2-0.4-0.5-0.6-0.8c-0.1-0.3-0.2-0.6-0.2-1c0-0.3,0.1-0.6,0.2-0.9
			c0.1-0.3,0.3-0.6,0.6-0.8c0.2-0.2,0.5-0.4,0.9-0.5c0.3-0.1,0.7-0.2,1.1-0.2c0.5,0,1,0.1,1.6,0.4c0.2,0.1,0.4,0.2,0.5,0.2
			s0.2,0,0.3-0.1c0,0,0.1-0.1,0.2-0.4l0.3,0l0.1,3.2l-0.3,0c-0.1-0.6-0.3-1.1-0.5-1.5c-0.1-0.2-0.2-0.3-0.4-0.5
			c-0.1-0.1-0.3-0.3-0.5-0.4c-0.2-0.1-0.4-0.2-0.6-0.2c-0.2-0.1-0.4-0.1-0.6-0.1c-0.2,0-0.4,0-0.6,0.1c-0.2,0.1-0.4,0.2-0.5,0.3
			c-0.1,0.1-0.3,0.3-0.3,0.4c-0.1,0.2-0.1,0.3-0.1,0.5c0,0.2,0.1,0.4,0.2,0.6c0.1,0.2,0.3,0.3,0.5,0.5c0.2,0.2,0.4,0.3,0.7,0.4
			l0.9,0.5c0.4,0.2,0.7,0.4,1,0.6c0.3,0.2,0.6,0.4,0.9,0.6c0.3,0.2,0.5,0.5,0.6,0.8c0.2,0.3,0.2,0.6,0.2,1c0,0.3-0.1,0.7-0.2,1
			c-0.1,0.3-0.3,0.6-0.6,0.8c-0.3,0.2-0.6,0.4-0.9,0.6c-0.4,0.1-0.8,0.2-1.2,0.2C186.3,48.9,186.2,48.9,186.1,48.9z"/>
		<path id="XMLID_156_" class="st1" d="M188.8,39.4v3.1h-0.2c-0.1-0.6-0.2-1.1-0.4-1.4c-0.1-0.2-0.2-0.3-0.4-0.5
			c-0.2-0.1-0.3-0.3-0.5-0.4s-0.4-0.2-0.6-0.2s-0.4-0.1-0.6-0.1c-0.2,0-0.4,0-0.6,0.1c-0.2,0.1-0.4,0.2-0.5,0.3s-0.3,0.3-0.3,0.4
			c-0.1,0.2-0.1,0.3-0.1,0.5c0,0.2,0.1,0.5,0.2,0.7c0.1,0.2,0.3,0.4,0.5,0.5c0.2,0.2,0.4,0.3,0.7,0.5c0.3,0.1,0.6,0.3,0.9,0.5
			c0.4,0.2,0.7,0.4,1,0.6c0.3,0.2,0.6,0.4,0.9,0.6c0.2,0.2,0.4,0.5,0.6,0.8c0.1,0.3,0.2,0.6,0.2,1c0,0.3-0.1,0.7-0.2,1
			c-0.1,0.3-0.3,0.6-0.6,0.8c-0.3,0.2-0.6,0.4-0.9,0.5c-0.4,0.1-0.7,0.2-1.2,0.2c-0.2,0-0.3,0-0.4,0c-0.1,0-0.2,0-0.3,0
			c-0.1,0-0.2,0-0.3-0.1c-0.1,0-0.2-0.1-0.4-0.1c-0.1,0-0.2-0.1-0.3-0.1c-0.1,0-0.2-0.1-0.3-0.1c-0.1,0-0.2,0-0.2-0.1s-0.1,0-0.1,0
			c-0.1,0-0.2,0-0.3,0.1c-0.1,0.1-0.1,0.2-0.1,0.4h-0.2v-3.1h0.2c0.1,0.3,0.1,0.6,0.2,0.8c0.1,0.2,0.2,0.4,0.3,0.6
			c0.1,0.2,0.2,0.3,0.4,0.4c0.2,0.1,0.3,0.3,0.5,0.4c0.2,0.1,0.4,0.2,0.6,0.2c0.2,0.1,0.5,0.1,0.7,0.1c0.3,0,0.5,0,0.8-0.1
			c0.2-0.1,0.4-0.2,0.6-0.3c0.2-0.1,0.3-0.3,0.4-0.5s0.1-0.4,0.1-0.6c0-0.3-0.1-0.5-0.2-0.7c-0.1-0.2-0.3-0.4-0.5-0.5
			c-0.2-0.2-0.4-0.3-0.7-0.4s-0.6-0.3-0.9-0.5c-0.3-0.2-0.7-0.4-1-0.6s-0.6-0.4-0.8-0.6c-0.2-0.2-0.4-0.5-0.6-0.7
			c-0.1-0.3-0.2-0.6-0.2-1c0-0.3,0.1-0.6,0.2-0.9c0.1-0.3,0.3-0.5,0.6-0.8c0.2-0.2,0.5-0.4,0.8-0.5s0.7-0.2,1.1-0.2
			c0.5,0,1,0.1,1.5,0.4c0.2,0.1,0.4,0.2,0.5,0.2c0.1,0,0.2,0,0.3-0.1c0.1-0.1,0.1-0.2,0.2-0.4L188.8,39.4 M188.9,39.3h-0.1h-0.2
			h-0.1l0,0.1c-0.1,0.2-0.1,0.3-0.1,0.4c-0.1,0.1-0.1,0.1-0.2,0.1c-0.1,0-0.2,0-0.5-0.2c-0.6-0.2-1.1-0.4-1.6-0.4
			c-0.4,0-0.8,0.1-1.1,0.2c-0.3,0.1-0.6,0.3-0.9,0.5c-0.2,0.2-0.4,0.5-0.6,0.8c-0.1,0.3-0.2,0.6-0.2,1c0,0.4,0.1,0.7,0.2,1
			c0.2,0.3,0.4,0.5,0.6,0.8c0.2,0.2,0.5,0.4,0.9,0.6c0.3,0.2,0.6,0.4,1,0.6c0.3,0.2,0.6,0.3,0.9,0.5c0.3,0.1,0.5,0.3,0.7,0.4
			c0.2,0.1,0.3,0.3,0.5,0.5c0.1,0.2,0.2,0.4,0.2,0.7c0,0.2,0,0.4-0.1,0.5s-0.2,0.3-0.3,0.4c-0.1,0.1-0.3,0.2-0.5,0.3
			c-0.2,0.1-0.5,0.1-0.7,0.1c-0.2,0-0.5,0-0.7-0.1c-0.2-0.1-0.4-0.1-0.6-0.2c-0.2-0.1-0.4-0.2-0.5-0.3c-0.1-0.1-0.3-0.3-0.4-0.4
			c-0.1-0.2-0.2-0.4-0.3-0.6c-0.1-0.2-0.1-0.5-0.2-0.8l0-0.1h-0.1h-0.2h-0.1v0.1v3.1v0.1h0.1h0.2h0.1l0-0.1c0-0.2,0.1-0.3,0.1-0.4
			c0,0,0.1-0.1,0.2-0.1c0,0,0.1,0,0.1,0c0.1,0,0.1,0,0.2,0.1c0.1,0,0.2,0,0.3,0.1c0.1,0,0.2,0.1,0.3,0.1c0.2,0.1,0.3,0.1,0.4,0.1
			c0.1,0,0.2,0.1,0.3,0.1c0.1,0,0.2,0,0.3,0c0.1,0,0.2,0,0.4,0c0.4,0,0.8-0.1,1.2-0.2c0.4-0.1,0.7-0.3,0.9-0.6
			c0.3-0.2,0.5-0.5,0.6-0.8c0.1-0.3,0.2-0.7,0.2-1c0-0.4-0.1-0.8-0.2-1.1c-0.2-0.3-0.4-0.6-0.6-0.8c-0.3-0.2-0.5-0.4-0.9-0.6
			c-0.3-0.2-0.7-0.4-1-0.6c-0.3-0.2-0.6-0.3-0.9-0.5c-0.3-0.1-0.5-0.3-0.7-0.4c-0.2-0.1-0.3-0.3-0.5-0.5c-0.1-0.2-0.2-0.4-0.2-0.6
			c0-0.2,0-0.3,0.1-0.5c0.1-0.2,0.2-0.3,0.3-0.4c0.1-0.1,0.3-0.2,0.5-0.3c0.2-0.1,0.4-0.1,0.6-0.1c0.2,0,0.4,0,0.6,0.1
			c0.2,0.1,0.4,0.1,0.6,0.2c0.2,0.1,0.3,0.2,0.5,0.3s0.3,0.3,0.4,0.5c0.2,0.3,0.3,0.8,0.4,1.4l0,0.1h0.1h0.2h0.1v-0.1L188.9,39.3
			L188.9,39.3L188.9,39.3z"/>
	</g>
	<g id="XMLID_39_">
		<path id="XMLID_188_" class="st1" d="M193.5,48.9c-0.4,0-0.8-0.1-1.2-0.3c-0.4-0.2-0.7-0.4-0.9-0.7c-0.3-0.3-0.5-0.6-0.6-1
			c-0.1-0.4-0.2-0.8-0.2-1.2c0-0.4,0.1-0.8,0.2-1.2c0.1-0.4,0.4-0.8,0.6-1.1c0.3-0.3,0.6-0.6,1-0.8c0.4-0.2,0.8-0.3,1.2-0.3
			c0.4,0,0.8,0.1,1.2,0.3c0.4,0.2,0.7,0.4,1,0.7c0.3,0.3,0.5,0.6,0.6,1s0.2,0.8,0.2,1.2c0,0.4-0.1,0.9-0.2,1.3
			c-0.2,0.4-0.4,0.8-0.6,1.1c-0.3,0.3-0.6,0.6-1,0.8C194.4,48.8,193.9,48.9,193.5,48.9z M193.3,42.8c-0.2,0-0.4,0-0.5,0.1
			c-0.2,0.1-0.3,0.2-0.5,0.4c-0.1,0.2-0.2,0.4-0.3,0.7c-0.1,0.3-0.1,0.6-0.1,1c0,0.4,0,0.8,0.1,1.2c0.1,0.4,0.2,0.7,0.4,1
			c0.2,0.3,0.4,0.5,0.6,0.7c0.2,0.2,0.5,0.3,0.8,0.3c0.2,0,0.4,0,0.6-0.1c0.2-0.1,0.3-0.2,0.5-0.4c0.1-0.2,0.2-0.4,0.3-0.7
			c0.1-0.3,0.1-0.7,0.1-1.1s0-0.8-0.1-1.2c-0.1-0.4-0.2-0.7-0.4-1c-0.2-0.3-0.4-0.5-0.6-0.7C193.9,42.9,193.6,42.8,193.3,42.8z"/>
		<path id="XMLID_183_" class="st1" d="M193.6,42.4c0.4,0,0.8,0.1,1.2,0.3c0.4,0.2,0.7,0.4,0.9,0.7c0.3,0.3,0.5,0.6,0.6,1
			c0.1,0.4,0.2,0.8,0.2,1.2c0,0.4-0.1,0.9-0.2,1.3c-0.1,0.4-0.4,0.8-0.6,1.1c-0.3,0.3-0.6,0.6-1,0.7c-0.4,0.2-0.8,0.3-1.2,0.3
			c-0.4,0-0.8-0.1-1.2-0.3c-0.4-0.2-0.7-0.4-0.9-0.7c-0.3-0.3-0.5-0.6-0.6-1c-0.1-0.4-0.2-0.8-0.2-1.2c0-0.4,0.1-0.8,0.2-1.2
			c0.1-0.4,0.3-0.7,0.6-1.1s0.6-0.6,0.9-0.7C192.7,42.4,193.1,42.4,193.6,42.4 M193.8,48.3c0.2,0,0.4,0,0.6-0.1
			c0.2-0.1,0.3-0.2,0.5-0.4c0.1-0.2,0.2-0.4,0.3-0.7c0.1-0.3,0.1-0.7,0.1-1.1s0-0.9-0.1-1.2c-0.1-0.4-0.2-0.7-0.4-1
			c-0.2-0.3-0.4-0.5-0.6-0.7c-0.2-0.2-0.5-0.3-0.8-0.3c-0.2,0-0.4,0-0.6,0.1c-0.2,0.1-0.3,0.2-0.5,0.4c-0.1,0.2-0.3,0.4-0.3,0.7
			c-0.1,0.3-0.1,0.6-0.1,1.1c0,0.4,0,0.8,0.1,1.2c0.1,0.4,0.2,0.7,0.4,1s0.4,0.5,0.6,0.7C193.2,48.3,193.5,48.3,193.8,48.3
			 M193.6,42.3c-0.5,0-0.9,0.1-1.3,0.3c-0.4,0.2-0.7,0.5-1,0.8c-0.3,0.3-0.5,0.7-0.6,1.1s-0.2,0.8-0.2,1.2c0,0.4,0.1,0.8,0.2,1.2
			c0.1,0.4,0.3,0.7,0.6,1c0.3,0.3,0.6,0.6,0.9,0.7c0.4,0.2,0.8,0.3,1.2,0.3c0.5,0,0.9-0.1,1.3-0.3c0.4-0.2,0.7-0.4,1-0.8
			c0.3-0.3,0.5-0.7,0.6-1.1c0.2-0.4,0.2-0.8,0.2-1.3c0-0.4-0.1-0.8-0.2-1.2c-0.1-0.4-0.4-0.7-0.6-1c-0.3-0.3-0.6-0.5-1-0.7
			C194.4,42.3,194,42.3,193.6,42.3L193.6,42.3z M193.8,48.2c-0.3,0-0.5-0.1-0.7-0.2c-0.2-0.2-0.4-0.4-0.6-0.7
			c-0.2-0.3-0.3-0.6-0.4-1c-0.1-0.4-0.1-0.8-0.1-1.2c0-0.4,0-0.8,0.1-1c0.1-0.3,0.2-0.5,0.3-0.7c0.1-0.2,0.3-0.3,0.4-0.4
			c0.2-0.1,0.3-0.1,0.5-0.1c0.3,0,0.5,0.1,0.8,0.2c0.2,0.2,0.4,0.4,0.6,0.7c0.2,0.3,0.3,0.6,0.4,1c0.1,0.4,0.1,0.8,0.1,1.2
			c0,0.4,0,0.8-0.1,1.1c-0.1,0.3-0.2,0.5-0.3,0.7c-0.1,0.2-0.3,0.3-0.4,0.4C194.2,48.2,194,48.2,193.8,48.2L193.8,48.2z"/>
	</g>
	<g id="XMLID_37_">
		<path id="XMLID_155_" class="st1" d="M197.5,48.7l-0.1-0.3c0.2,0,0.4-0.1,0.5-0.1c0.1,0,0.2-0.1,0.2-0.2c0.1-0.1,0.1-0.2,0.1-0.3
			c0-0.1,0-0.3,0-0.6v-5.5c0-0.3,0-0.6,0-0.8c0-0.2,0-0.3,0-0.4c0-0.1-0.1-0.2-0.1-0.3c-0.1,0-0.1-0.1-0.2-0.1c-0.1,0-0.3,0-0.4,0.1
			l-0.2-0.3l1.9-0.8l0.3,0l0.1,8.1c0,0.2,0,0.4,0,0.5c0,0.1,0,0.2,0.1,0.3c0,0.1,0.1,0.1,0.1,0.2c0,0,0.1,0.1,0.1,0.1
			c0.1,0.1,0.3,0.1,0.6,0.1l0.1,0.3v0L197.5,48.7L197.5,48.7z"/>
		<path id="XMLID_150_" class="st1" d="M199.6,39.2v8.1c0,0.2,0,0.4,0,0.5s0,0.2,0.1,0.3c0,0.1,0.1,0.1,0.1,0.2c0,0,0.1,0.1,0.2,0.1
			c0.1,0.1,0.3,0.1,0.7,0.1v0.2h-3v-0.2c0.2,0,0.4,0,0.5,0c0.1,0,0.2-0.1,0.3-0.2s0.1-0.2,0.1-0.3c0-0.1,0-0.3,0-0.6v-5.5
			c0-0.3,0-0.6,0-0.8c0-0.2,0-0.4,0-0.4c0-0.2-0.1-0.3-0.2-0.3c-0.1-0.1-0.2-0.1-0.3-0.1c-0.1,0-0.3,0-0.4,0.1l-0.1-0.2l1.8-0.7
			L199.6,39.2 M199.7,39.1h-0.1h-0.3h0l0,0l-1.8,0.7l-0.1,0l0,0.1l0.1,0.2l0,0.1l0.1,0c0.2-0.1,0.3-0.1,0.4-0.1c0.1,0,0.1,0,0.2,0.1
			c0,0,0.1,0.1,0.1,0.3c0,0,0,0.2,0,0.4c0,0.2,0,0.5,0,0.8v5.5c0,0.2,0,0.4,0,0.6c0,0.1-0.1,0.2-0.1,0.3c-0.1,0.1-0.1,0.1-0.2,0.1
			c-0.1,0-0.3,0-0.5,0h-0.1v0.1v0.2v0.1h0.1h3h0.1v-0.1v-0.2v-0.1h-0.1c-0.4,0-0.5,0-0.6-0.1c-0.1,0-0.1-0.1-0.1-0.1
			c0,0-0.1-0.1-0.1-0.1c0-0.1,0-0.2-0.1-0.3c0-0.1,0-0.3,0-0.5L199.7,39.1L199.7,39.1L199.7,39.1z"/>
	</g>
	<g id="XMLID_35_">
		<path id="XMLID_149_" class="st1" d="M205.6,48.9l-0.1-1.3c-0.4,0.6-0.9,1-1.1,1.1c-0.3,0.2-0.6,0.2-0.9,0.2
			c-0.4,0-0.7-0.1-0.9-0.3c-0.3-0.2-0.4-0.5-0.5-0.8c-0.1-0.3-0.1-0.8-0.1-1.3v-2.7c0-0.2,0-0.4,0-0.5c0-0.1-0.1-0.2-0.1-0.3
			c-0.1-0.1-0.2-0.1-0.3-0.1c-0.1,0-0.3,0-0.4,0h-0.1l-0.1,0v-0.2l2.2,0l0.1,4.1c0,0.3,0,0.5,0.1,0.7c0.1,0.2,0.1,0.3,0.2,0.4
			c0.1,0.1,0.2,0.2,0.3,0.2c0.1,0,0.2,0,0.4,0c0.1,0,0.2,0,0.3,0c0.1,0,0.2-0.1,0.3-0.1c0.1-0.1,0.3-0.2,0.4-0.3s0.3-0.2,0.5-0.4
			l0-3.4c0-0.2,0-0.3,0-0.4c0-0.1-0.1-0.2-0.1-0.2c-0.1-0.1-0.2-0.1-0.3-0.1c-0.1,0-0.3,0-0.5,0l0-0.3l2.1,0l0.1,3.7
			c0,0.7,0,1.1,0,1.3c0,0.1,0.1,0.2,0.1,0.3c0.1,0.1,0.1,0.1,0.2,0.1c0.1,0,0.3,0,0.5-0.1l0.2,0.3l-1.9,0.8L205.6,48.9L205.6,48.9z"
			/>
		<path id="XMLID_145_" class="st1" d="M206.7,42.5v3.7c0,0.7,0,1.1,0,1.3c0,0.2,0.1,0.3,0.2,0.3c0.1,0.1,0.2,0.1,0.3,0.1
			c0.1,0,0.3,0,0.5-0.1l0.1,0.2l-1.8,0.8h-0.3v-1.3c-0.5,0.6-0.9,0.9-1.2,1.1c-0.3,0.1-0.6,0.2-0.9,0.2c-0.3,0-0.6-0.1-0.9-0.3
			c-0.3-0.2-0.4-0.5-0.5-0.8c-0.1-0.3-0.1-0.7-0.1-1.3v-2.7c0-0.2,0-0.4-0.1-0.5c0-0.1-0.1-0.2-0.2-0.3c-0.1-0.1-0.2-0.1-0.3-0.1
			s-0.3,0-0.4,0h-0.1v-0.2h2.2v4.1c0,0.3,0,0.5,0.1,0.7c0.1,0.2,0.1,0.3,0.2,0.4c0.1,0.1,0.2,0.2,0.3,0.2c0.1,0,0.3,0,0.4,0
			c0.1,0,0.2,0,0.3,0c0.1,0,0.2-0.1,0.4-0.1c0.1-0.1,0.3-0.2,0.4-0.3c0.1-0.1,0.3-0.3,0.5-0.4v-3.5c0-0.2,0-0.3,0-0.4
			c0-0.1-0.1-0.2-0.2-0.3s-0.2-0.1-0.3-0.1c-0.1,0-0.3,0-0.5,0v-0.2L206.7,42.5 M206.8,42.4h-0.1h-2.1h-0.1v0.1v0.2v0.1l0.1,0
			c0.2,0,0.4,0,0.5,0c0.1,0,0.2,0.1,0.3,0.1c0.1,0.1,0.1,0.1,0.1,0.2c0,0.1,0,0.2,0,0.4v3.4c-0.2,0.2-0.3,0.3-0.4,0.4
			c-0.1,0.1-0.3,0.2-0.4,0.3c-0.1,0.1-0.2,0.1-0.3,0.1c-0.1,0-0.2,0-0.3,0c-0.1,0-0.2,0-0.4,0c-0.1,0-0.2-0.1-0.3-0.2
			c-0.1-0.1-0.2-0.2-0.2-0.4c-0.1-0.2-0.1-0.4-0.1-0.7v-4.1v-0.1H203h-2.2h-0.1v0.1v0.2v0.1h0.1h0.1c0.2,0,0.3,0,0.4,0
			c0.1,0,0.2,0.1,0.3,0.1c0.1,0.1,0.1,0.1,0.1,0.2c0,0.1,0,0.3,0,0.5v2.7c0,0.6,0.1,1,0.2,1.3c0.1,0.3,0.3,0.6,0.6,0.8
			c0.3,0.2,0.6,0.3,1,0.3c0.3,0,0.6-0.1,0.9-0.2c0.3-0.1,0.6-0.4,1.1-0.9v1v0.1h0.1h0.3h0l0,0l1.8-0.8l0.1,0l0-0.1l-0.1-0.2l0-0.1
			l-0.1,0c-0.2,0.1-0.3,0.1-0.4,0.1c-0.1,0-0.1,0-0.2-0.1c-0.1,0-0.1-0.1-0.1-0.3c0-0.1,0-0.4,0-1.3L206.8,42.4L206.8,42.4
			L206.8,42.4z"/>
	</g>
	<g id="XMLID_33_">
		<path id="XMLID_144_" class="st1" d="M210,48.8c-0.1,0-0.2,0-0.3,0c-0.1,0-0.2-0.1-0.3-0.1c-0.1-0.1-0.2-0.1-0.3-0.2
			c-0.1-0.1-0.1-0.2-0.2-0.3c-0.1-0.2-0.1-0.6-0.1-1V43l-0.9,0l-0.1-0.3c0.3-0.1,0.5-0.3,0.8-0.5c0.3-0.2,0.5-0.5,0.7-0.8
			c0-0.1,0.1-0.2,0.2-0.4c0.1-0.2,0.2-0.3,0.2-0.6l0.3,0l0.1,2.1l1.4,0l0.1,0.5l-1.5,0L210,47c0,0.2,0,0.4,0,0.5
			c0,0.1,0.1,0.2,0.1,0.3c0,0.1,0.1,0.1,0.2,0.1c0.1,0,0.1,0,0.2,0c0.1,0,0.3,0,0.4-0.1c0.1-0.1,0.2-0.2,0.3-0.4l0.3,0
			c0,0.3-0.1,0.5-0.3,0.7c-0.1,0.2-0.2,0.3-0.4,0.4c-0.1,0.1-0.3,0.2-0.4,0.3C210.3,48.8,210.2,48.8,210,48.8z"/>
		<path id="XMLID_141_" class="st1" d="M209.9,40.5v2h1.4V43h-1.4v4c0,0.2,0,0.4,0,0.5c0,0.1,0.1,0.2,0.1,0.3
			c0.1,0.1,0.1,0.1,0.2,0.2c0.1,0,0.2,0,0.2,0c0.1,0,0.3,0,0.4-0.1c0.1-0.1,0.2-0.2,0.3-0.4h0.3c-0.1,0.2-0.2,0.4-0.3,0.6
			c-0.1,0.2-0.2,0.3-0.4,0.4c-0.1,0.1-0.3,0.2-0.4,0.2c-0.2,0.1-0.3,0.1-0.5,0.1c-0.1,0-0.2,0-0.3,0c-0.1,0-0.2-0.1-0.3-0.1
			c-0.1-0.1-0.2-0.1-0.3-0.2c-0.1-0.1-0.1-0.2-0.2-0.3c-0.1-0.2-0.1-0.5-0.1-1V43h-1v-0.2c0.2-0.1,0.5-0.3,0.8-0.5
			c0.3-0.2,0.5-0.5,0.7-0.8c0-0.1,0.1-0.2,0.2-0.4c0.1-0.2,0.2-0.3,0.2-0.6L209.9,40.5 M210,40.4h-0.1h-0.2h-0.1l0,0.1
			c-0.1,0.2-0.2,0.4-0.2,0.6c-0.1,0.2-0.1,0.3-0.2,0.3c-0.2,0.3-0.4,0.6-0.7,0.8c-0.2,0.2-0.5,0.4-0.7,0.5l-0.1,0v0.1V43v0.1h0.1
			h0.9v4c0,0.5,0,0.8,0.1,1c0,0.1,0.1,0.2,0.2,0.3c0.1,0.1,0.2,0.2,0.3,0.2c0.1,0.1,0.2,0.1,0.3,0.1c0.1,0,0.2,0,0.3,0
			c0.2,0,0.3,0,0.5-0.1c0.2-0.1,0.3-0.1,0.5-0.3c0.1-0.1,0.3-0.3,0.4-0.4s0.2-0.4,0.3-0.6l0.1-0.1h-0.1h-0.3h-0.1l0,0.1
			c-0.1,0.2-0.2,0.3-0.3,0.4c-0.1,0.1-0.2,0.1-0.4,0.1c-0.1,0-0.1,0-0.2,0c-0.1,0-0.1-0.1-0.1-0.1c0-0.1-0.1-0.2-0.1-0.3
			c0-0.1,0-0.3,0-0.5v-3.9h1.3h0.1V43v-0.5v-0.1h-0.1H210v-1.9V40.4L210,40.4z"/>
	</g>
	<g id="XMLID_30_">
		<path id="XMLID_165_" class="st1" d="M212.1,48.7l-0.1-0.3c0.2,0,0.3-0.1,0.4-0.1c0.1,0,0.2,0,0.2-0.1c0.1,0,0.1-0.1,0.1-0.1
			c0,0,0.1-0.1,0.1-0.2c0.1-0.1,0.1-0.4,0.1-0.7v-2.4c0-0.4,0-0.7,0-0.9c0-0.2,0-0.4-0.1-0.5c0-0.1-0.1-0.2-0.1-0.2
			c-0.1,0-0.1,0-0.2,0c-0.1,0-0.3,0-0.4,0.1l-0.2-0.3l1.9-0.8l0.3,0l0.1,5c0,0.2,0,0.4,0,0.5c0,0.1,0,0.2,0.1,0.3
			c0,0.1,0.1,0.1,0.1,0.1c0,0,0.1,0.1,0.1,0.1c0.1,0.1,0.3,0.1,0.6,0.1l0.1,0.3v0L212.1,48.7L212.1,48.7z M213.6,40.6
			c-0.1,0-0.2,0-0.3-0.1c-0.1,0-0.2-0.1-0.2-0.2c-0.1-0.1-0.1-0.1-0.2-0.2c0-0.1-0.1-0.2-0.1-0.3s0-0.2,0.1-0.3
			c0-0.1,0.1-0.2,0.2-0.2c0.1-0.1,0.1-0.1,0.2-0.2c0.1,0,0.2-0.1,0.3-0.1s0.2,0,0.3,0.1s0.2,0.1,0.2,0.2c0.1,0.1,0.1,0.1,0.2,0.2
			c0,0.1,0.1,0.2,0.1,0.3s0,0.2-0.1,0.3s-0.1,0.2-0.2,0.2c-0.1,0.1-0.1,0.1-0.2,0.2C213.8,40.5,213.7,40.6,213.6,40.6z"/>
		<path id="XMLID_160_" class="st1" d="M213.6,39.2c0.1,0,0.2,0,0.3,0.1c0.1,0,0.2,0.1,0.2,0.1c0.1,0.1,0.1,0.1,0.1,0.2
			c0,0.1,0.1,0.2,0.1,0.3c0,0.1,0,0.2-0.1,0.3c0,0.1-0.1,0.2-0.1,0.2c-0.1,0.1-0.1,0.1-0.2,0.1c-0.1,0-0.2,0.1-0.3,0.1
			s-0.2,0-0.3-0.1c-0.1,0-0.2-0.1-0.2-0.1c-0.1-0.1-0.1-0.1-0.1-0.2s-0.1-0.2-0.1-0.3c0-0.1,0-0.2,0.1-0.3s0.1-0.2,0.1-0.2
			c0.1-0.1,0.1-0.1,0.2-0.1C213.4,39.2,213.5,39.2,213.6,39.2 M214.1,42.4v4.9c0,0.2,0,0.4,0,0.5s0,0.2,0.1,0.3
			c0,0.1,0.1,0.1,0.1,0.2c0,0,0.1,0.1,0.1,0.1c0.1,0.1,0.3,0.1,0.6,0.1v0.2h-3v-0.2c0.2,0,0.3,0,0.4,0s0.2,0,0.2-0.1
			c0.1,0,0.1-0.1,0.1-0.1c0,0,0.1-0.1,0.1-0.2c0.1-0.1,0.1-0.4,0.1-0.8v-2.4c0-0.4,0-0.7,0-0.9s0-0.4-0.1-0.5c0-0.1-0.1-0.2-0.1-0.2
			c-0.1,0-0.1,0-0.2,0c-0.1,0-0.3,0-0.5,0.1l-0.1-0.2l1.9-0.7L214.1,42.4 M213.6,39.1c-0.1,0-0.2,0-0.3,0.1c-0.1,0-0.2,0.1-0.2,0.2
			c-0.1,0.1-0.1,0.2-0.2,0.2c0,0.1-0.1,0.2-0.1,0.3c0,0.1,0,0.2,0.1,0.3c0,0.1,0.1,0.2,0.2,0.2c0.1,0.1,0.2,0.1,0.2,0.2
			c0.1,0,0.2,0.1,0.3,0.1s0.2,0,0.3-0.1c0.1,0,0.2-0.1,0.2-0.2c0.1-0.1,0.1-0.2,0.2-0.2c0-0.1,0.1-0.2,0.1-0.3c0-0.1,0-0.2-0.1-0.3
			s-0.1-0.2-0.2-0.2c-0.1-0.1-0.2-0.1-0.2-0.2C213.8,39.1,213.7,39.1,213.6,39.1L213.6,39.1z M214.2,42.3h-0.1h-0.3h0l0,0l-1.9,0.7
			l-0.1,0l0,0.1l0.1,0.2l0,0.1l0.1,0c0.2-0.1,0.3-0.1,0.4-0.1c0.1,0,0.2,0,0.2,0c0,0,0.1,0.1,0.1,0.1c0,0.1,0.1,0.3,0.1,0.5
			c0,0.2,0,0.5,0,0.9v2.4c0,0.4,0,0.6-0.1,0.7c0,0.1-0.1,0.1-0.1,0.2c0,0-0.1,0.1-0.1,0.1c-0.1,0-0.1,0-0.2,0.1c-0.1,0-0.2,0-0.4,0
			H212v0.1v0.2v0.1h0.1h3h0.1v-0.1v-0.2v-0.1H215c-0.3,0-0.5,0-0.6-0.1c0,0-0.1-0.1-0.1-0.1c0,0-0.1-0.1-0.1-0.1
			c0-0.1,0-0.2-0.1-0.3c0-0.1,0-0.3,0-0.5L214.2,42.3L214.2,42.3L214.2,42.3z"/>
	</g>
	<g id="XMLID_27_">
		<path id="XMLID_257_" class="st1" d="M218.8,48.9c-0.4,0-0.8-0.1-1.2-0.3c-0.4-0.2-0.7-0.4-0.9-0.7c-0.3-0.3-0.5-0.6-0.6-1
			c-0.1-0.4-0.2-0.8-0.2-1.2c0-0.4,0.1-0.8,0.2-1.2c0.1-0.4,0.4-0.8,0.6-1.1c0.3-0.3,0.6-0.6,1-0.8c0.4-0.2,0.8-0.3,1.2-0.3
			c0.4,0,0.8,0.1,1.2,0.3c0.4,0.2,0.7,0.4,1,0.7c0.3,0.3,0.5,0.6,0.6,1s0.2,0.8,0.2,1.2c0,0.4-0.1,0.9-0.2,1.3
			c-0.2,0.4-0.4,0.8-0.6,1.1c-0.3,0.3-0.6,0.6-1,0.8C219.6,48.8,219.2,48.9,218.8,48.9z M218.6,42.8c-0.2,0-0.4,0-0.5,0.1
			c-0.2,0.1-0.3,0.2-0.5,0.4s-0.2,0.4-0.3,0.7c-0.1,0.3-0.1,0.6-0.1,1c0,0.4,0,0.8,0.1,1.2c0.1,0.4,0.2,0.7,0.4,1
			c0.2,0.3,0.4,0.5,0.6,0.7c0.2,0.2,0.5,0.3,0.8,0.3c0.2,0,0.4,0,0.6-0.1c0.2-0.1,0.3-0.2,0.5-0.4c0.1-0.2,0.2-0.4,0.3-0.7
			c0.1-0.3,0.1-0.7,0.1-1.1c0-0.4,0-0.9-0.1-1.2c-0.1-0.4-0.2-0.7-0.4-1c-0.2-0.3-0.4-0.5-0.6-0.7C219.2,42.9,218.9,42.8,218.6,42.8
			z"/>
		<path id="XMLID_241_" class="st1" d="M218.8,42.4c0.4,0,0.8,0.1,1.2,0.3c0.4,0.2,0.7,0.4,0.9,0.7c0.3,0.3,0.5,0.6,0.6,1
			c0.1,0.4,0.2,0.8,0.2,1.2c0,0.4-0.1,0.9-0.2,1.3c-0.1,0.4-0.4,0.8-0.6,1.1c-0.3,0.3-0.6,0.6-1,0.7c-0.4,0.2-0.8,0.3-1.2,0.3
			c-0.4,0-0.8-0.1-1.2-0.3c-0.4-0.2-0.7-0.4-0.9-0.7c-0.3-0.3-0.5-0.6-0.6-1c-0.1-0.4-0.2-0.8-0.2-1.2c0-0.4,0.1-0.8,0.2-1.2
			c0.1-0.4,0.3-0.7,0.6-1.1s0.6-0.6,0.9-0.7C218,42.4,218.4,42.4,218.8,42.4 M219,48.3c0.2,0,0.4,0,0.6-0.1c0.2-0.1,0.3-0.2,0.5-0.4
			c0.1-0.2,0.2-0.4,0.3-0.7c0.1-0.3,0.1-0.7,0.1-1.1s0-0.9-0.1-1.2c-0.1-0.4-0.2-0.7-0.4-1c-0.2-0.3-0.4-0.5-0.6-0.7
			c-0.2-0.2-0.5-0.3-0.8-0.3c-0.2,0-0.4,0-0.6,0.1c-0.2,0.1-0.3,0.2-0.5,0.4c-0.1,0.2-0.3,0.4-0.3,0.7c-0.1,0.3-0.1,0.6-0.1,1.1
			c0,0.4,0,0.8,0.1,1.2c0.1,0.4,0.2,0.7,0.4,1s0.4,0.5,0.6,0.7C218.5,48.3,218.8,48.3,219,48.3 M218.8,42.3c-0.5,0-0.9,0.1-1.3,0.3
			c-0.4,0.2-0.7,0.5-1,0.8c-0.3,0.3-0.5,0.7-0.6,1.1s-0.2,0.8-0.2,1.2c0,0.4,0.1,0.8,0.2,1.2c0.1,0.4,0.3,0.7,0.6,1
			c0.3,0.3,0.6,0.6,0.9,0.7c0.4,0.2,0.8,0.3,1.2,0.3c0.5,0,0.9-0.1,1.3-0.3c0.4-0.2,0.7-0.4,1-0.8c0.3-0.3,0.5-0.7,0.6-1.1
			c0.2-0.4,0.2-0.8,0.2-1.3c0-0.4-0.1-0.8-0.2-1.2c-0.1-0.4-0.4-0.7-0.6-1c-0.3-0.3-0.6-0.5-1-0.7C219.7,42.3,219.3,42.3,218.8,42.3
			L218.8,42.3z M219,48.2c-0.3,0-0.5-0.1-0.7-0.2c-0.2-0.2-0.4-0.4-0.6-0.7c-0.2-0.3-0.3-0.6-0.4-1c-0.1-0.4-0.1-0.8-0.1-1.2
			c0-0.4,0-0.8,0.1-1c0.1-0.3,0.2-0.5,0.3-0.7c0.1-0.2,0.3-0.3,0.4-0.4c0.2-0.1,0.3-0.1,0.5-0.1c0.3,0,0.5,0.1,0.8,0.2
			c0.2,0.2,0.4,0.4,0.6,0.7c0.2,0.3,0.3,0.6,0.4,1c0.1,0.4,0.1,0.8,0.1,1.2c0,0.4,0,0.8-0.1,1.1c-0.1,0.3-0.2,0.5-0.3,0.7
			c-0.1,0.2-0.3,0.3-0.4,0.4C219.4,48.2,219.2,48.2,219,48.2L219,48.2z"/>
	</g>
	<g id="XMLID_25_">
		<path id="XMLID_139_" class="st1" d="M226.1,48.7l-0.1-0.3l0.2,0c0.2,0,0.3,0,0.5-0.1c0.1,0,0.2-0.1,0.2-0.2
			c0.1-0.1,0.1-0.2,0.1-0.3c0-0.1,0-0.3,0-0.5v-2.5c0-0.5-0.1-0.9-0.2-1.2c-0.1-0.2-0.4-0.4-0.7-0.4c-0.5,0-1,0.3-1.6,0.8l0,3.2
			c0,0.5,0,0.7,0.1,0.7c0,0.1,0.1,0.1,0.1,0.2c0,0,0.1,0.1,0.1,0.1c0.1,0,0.1,0,0.2,0.1c0.1,0,0.2,0,0.4,0l0.1,0.3l-3.1,0l-0.1-0.3
			l0.2,0c0.2,0,0.3,0,0.4-0.1c0.1,0,0.2-0.1,0.2-0.2c0.1-0.1,0.1-0.2,0.1-0.3c0-0.1,0-0.3,0-0.5V45c0-0.7,0-1.2-0.1-1.3
			c0-0.1-0.1-0.2-0.1-0.3c-0.1-0.1-0.1-0.1-0.2-0.1c-0.1,0-0.3,0-0.4,0.1l-0.2-0.3l1.9-0.8l0.3,0l0.1,1.3c0.6-0.9,1.3-1.3,2-1.3
			c0.2,0,0.5,0,0.7,0.1c0.2,0.1,0.4,0.2,0.5,0.4c0.1,0.2,0.3,0.4,0.3,0.7s0.1,0.7,0.1,1.1v2.6c0,0.3,0,0.5,0,0.6
			c0,0.1,0.1,0.2,0.1,0.3c0.1,0.1,0.1,0.1,0.3,0.1c0.1,0,0.3,0,0.4,0l0.1,0.3v0C229.2,48.7,226.1,48.7,226.1,48.7z"/>
		<path id="XMLID_136_" class="st1" d="M226.6,42.4c0.2,0,0.4,0,0.6,0.1s0.4,0.2,0.5,0.4c0.1,0.2,0.3,0.4,0.3,0.7
			c0.1,0.3,0.1,0.7,0.1,1.1v2.6c0,0.3,0,0.5,0,0.6c0,0.2,0.1,0.3,0.2,0.3c0.1,0.1,0.2,0.1,0.3,0.1c0.1,0,0.3,0,0.5,0v0.2h-3v-0.2
			h0.1c0.2,0,0.4,0,0.5-0.1c0.1,0,0.2-0.1,0.3-0.2c0.1-0.1,0.1-0.2,0.1-0.3s0-0.3,0-0.6v-2.5c0-0.6-0.1-1-0.2-1.2s-0.4-0.4-0.7-0.4
			c-0.5,0-1.1,0.3-1.6,0.9v3.2c0,0.4,0,0.7,0.1,0.8c0,0.1,0.1,0.1,0.1,0.2c0,0,0.1,0.1,0.2,0.1s0.1,0,0.3,0.1c0.1,0,0.2,0,0.4,0v0.2
			h-3v-0.2h0.1c0.2,0,0.3,0,0.4-0.1c0.1,0,0.2-0.1,0.2-0.2s0.1-0.2,0.1-0.3c0-0.1,0-0.3,0-0.5V45c0-0.7,0-1.2-0.1-1.3
			c0-0.2-0.1-0.3-0.2-0.3c-0.1-0.1-0.2-0.1-0.3-0.1c-0.1,0-0.3,0-0.5,0.1l-0.1-0.2l1.9-0.7h0.3v1.3
			C225.2,42.8,225.9,42.4,226.6,42.4 M226.6,42.3c-0.6,0-1.3,0.4-2,1.1v-1v-0.1h-0.1h-0.3h0l0,0l-1.9,0.7l-0.1,0l0,0.1l0.1,0.2
			l0,0.1l0.1,0c0.2-0.1,0.3-0.1,0.4-0.1c0.1,0,0.2,0,0.2,0.1c0,0,0.1,0.1,0.1,0.3c0,0.1,0.1,0.4,0.1,1.3v2.3c0,0.2,0,0.4,0,0.5
			c0,0.1-0.1,0.2-0.1,0.3c0,0.1-0.1,0.1-0.2,0.1c-0.1,0-0.2,0-0.4,0h-0.1h-0.1v0.1v0.2v0.1h0.1h3h0.1v-0.1v-0.2v-0.1h-0.1
			c-0.2,0-0.3,0-0.4,0c-0.1,0-0.2,0-0.2-0.1c-0.1,0-0.1-0.1-0.1-0.1c0,0-0.1-0.1-0.1-0.2c0-0.1-0.1-0.2-0.1-0.7v-3.2
			c0.5-0.5,1-0.8,1.5-0.8c0.3,0,0.5,0.1,0.7,0.3c0.1,0.2,0.2,0.6,0.2,1.2v2.5c0,0.2,0,0.4,0,0.5c0,0.1,0,0.2-0.1,0.3
			c0,0.1-0.1,0.1-0.2,0.1c-0.1,0-0.3,0-0.4,0h-0.1H226v0.1v0.2v0.1h0.1h3h0.1v-0.1v-0.2v-0.1h-0.1c-0.2,0-0.3,0-0.4,0
			c-0.1,0-0.2-0.1-0.2-0.1c-0.1-0.1-0.1-0.2-0.1-0.3c0-0.1,0-0.3,0-0.6v-2.6c0-0.4,0-0.8-0.1-1.1c-0.1-0.3-0.2-0.6-0.4-0.7
			c-0.2-0.2-0.3-0.3-0.5-0.4C227,42.3,226.8,42.3,226.6,42.3L226.6,42.3z"/>
	</g>
	<g id="XMLID_23_">
		<path id="XMLID_218_" class="st1" d="M232,48.9c-0.2,0-0.4,0-0.6,0c-0.2,0-0.4-0.1-0.7-0.2c-0.1,0-0.1,0-0.2,0s-0.1,0-0.2,0
			c-0.1,0-0.1,0-0.2,0.1l-0.3,0l-0.1-2.2l0.3,0c0.1,0.3,0.2,0.6,0.3,0.8c0.1,0.2,0.3,0.4,0.4,0.6c0.2,0.2,0.3,0.3,0.5,0.3
			c0.2,0.1,0.4,0.1,0.6,0.1c0.1,0,0.3,0,0.4-0.1c0.1,0,0.2-0.1,0.3-0.2c0.1-0.1,0.2-0.2,0.2-0.3c0-0.1,0.1-0.2,0.1-0.3
			c0-0.1,0-0.3-0.1-0.4c0-0.1-0.1-0.2-0.2-0.3c-0.1-0.1-0.3-0.2-0.5-0.4c-0.2-0.1-0.5-0.3-0.8-0.4c-0.3-0.2-0.6-0.3-0.8-0.5
			c-0.2-0.1-0.4-0.3-0.5-0.4c-0.1-0.1-0.2-0.3-0.2-0.5c0-0.2-0.1-0.3-0.1-0.5c0-0.3,0-0.5,0.1-0.7c0.1-0.2,0.2-0.4,0.4-0.6
			c0.2-0.2,0.4-0.3,0.6-0.4c0.2-0.1,0.5-0.1,0.8-0.1c0.1,0,0.2,0,0.3,0c0.1,0,0.3,0.1,0.4,0.1l0.4,0.1c0.1,0,0.2,0,0.2,0
			c0.1,0,0.1,0,0.1,0c0,0,0.1-0.1,0.1-0.2l0.3,0l0.1,2.1l-0.3,0c-0.1-0.4-0.2-0.6-0.3-0.8c-0.1-0.2-0.2-0.4-0.4-0.5
			c-0.1-0.1-0.3-0.2-0.4-0.3c-0.2-0.1-0.3-0.1-0.5-0.1c-0.1,0-0.3,0-0.4,0.1c-0.1,0-0.2,0.1-0.3,0.2c-0.1,0.1-0.2,0.1-0.2,0.2
			c0,0.1-0.1,0.2-0.1,0.3c0,0.1,0,0.2,0.1,0.3c0,0.1,0.1,0.2,0.2,0.3c0.1,0.1,0.3,0.2,0.5,0.4c0.2,0.1,0.5,0.3,0.9,0.5
			c0.3,0.2,0.6,0.3,0.8,0.5c0.2,0.2,0.4,0.3,0.6,0.5c0.1,0.2,0.2,0.3,0.3,0.5c0.1,0.2,0.1,0.4,0.1,0.5c0,0.3-0.1,0.5-0.2,0.8
			c-0.1,0.2-0.3,0.4-0.5,0.6c-0.2,0.2-0.4,0.3-0.7,0.4C232.5,48.8,232.2,48.9,232,48.9z"/>
		<path id="XMLID_134_" class="st1" d="M233.6,42.4v2.1h-0.2c-0.1-0.3-0.2-0.6-0.3-0.8c-0.1-0.2-0.2-0.4-0.4-0.5
			c-0.1-0.1-0.3-0.2-0.5-0.3c-0.2-0.1-0.4-0.1-0.6-0.1c-0.2,0-0.3,0-0.4,0.1s-0.2,0.1-0.3,0.2s-0.2,0.2-0.2,0.3
			c-0.1,0.1-0.1,0.2-0.1,0.3c0,0.1,0,0.2,0.1,0.3c0,0.1,0.1,0.2,0.2,0.3c0.1,0.1,0.3,0.2,0.5,0.4c0.2,0.1,0.5,0.3,0.9,0.5
			c0.3,0.2,0.6,0.3,0.8,0.5c0.2,0.2,0.4,0.3,0.6,0.5s0.2,0.3,0.3,0.5c0.1,0.2,0.1,0.3,0.1,0.5c0,0.3-0.1,0.5-0.2,0.8
			c-0.1,0.2-0.3,0.4-0.5,0.6c-0.2,0.2-0.4,0.3-0.7,0.4c-0.2,0.1-0.5,0.1-0.8,0.1c-0.2,0-0.4,0-0.6,0c-0.2,0-0.4-0.1-0.7-0.2
			c-0.1,0-0.1,0-0.2,0c-0.1,0-0.1,0-0.2,0c-0.1,0-0.2,0.1-0.2,0.2h-0.2v-2.2h0.2c0.1,0.3,0.2,0.6,0.3,0.8c0.1,0.2,0.3,0.4,0.4,0.6
			s0.4,0.3,0.6,0.4c0.2,0.1,0.4,0.1,0.6,0.1c0.2,0,0.3,0,0.4-0.1c0.1,0,0.2-0.1,0.3-0.2s0.2-0.2,0.2-0.3s0.1-0.2,0.1-0.4
			c0-0.2,0-0.3-0.1-0.4c0-0.1-0.1-0.2-0.2-0.4c-0.1-0.1-0.3-0.2-0.5-0.4c-0.2-0.1-0.5-0.3-0.8-0.4c-0.3-0.2-0.6-0.3-0.8-0.4
			c-0.2-0.1-0.4-0.3-0.5-0.4c-0.1-0.1-0.2-0.3-0.2-0.4c0-0.2-0.1-0.3-0.1-0.5c0-0.2,0-0.5,0.1-0.7c0.1-0.2,0.2-0.4,0.4-0.6
			c0.2-0.2,0.4-0.3,0.6-0.4c0.2-0.1,0.5-0.1,0.8-0.1c0.1,0,0.2,0,0.3,0s0.3,0.1,0.4,0.1c0.1,0,0.3,0.1,0.4,0.1c0.1,0,0.2,0,0.2,0
			c0.1,0,0.1,0,0.2,0c0,0,0.1-0.1,0.1-0.2L233.6,42.4 M233.7,42.3h-0.1h-0.2h-0.1l0,0.1c-0.1,0.1-0.1,0.2-0.1,0.2c0,0-0.1,0-0.1,0
			c0,0-0.1,0-0.2,0c-0.1,0-0.2-0.1-0.4-0.1c-0.1,0-0.3-0.1-0.4-0.1c-0.1,0-0.3,0-0.3,0c-0.3,0-0.6,0-0.8,0.1
			c-0.2,0.1-0.4,0.2-0.6,0.4c-0.2,0.2-0.3,0.4-0.4,0.6c-0.1,0.2-0.1,0.5-0.1,0.7c0,0.2,0,0.4,0.1,0.5c0,0.2,0.1,0.3,0.3,0.5
			c0.1,0.1,0.3,0.3,0.5,0.4c0.2,0.1,0.5,0.3,0.8,0.5c0.3,0.2,0.6,0.3,0.8,0.4c0.2,0.1,0.4,0.2,0.5,0.3c0.1,0.1,0.2,0.2,0.2,0.3
			c0,0.1,0.1,0.2,0.1,0.4c0,0.1,0,0.2-0.1,0.3c0,0.1-0.1,0.2-0.2,0.3c-0.1,0.1-0.2,0.1-0.3,0.2c-0.1,0-0.2,0.1-0.4,0.1
			c-0.2,0-0.4,0-0.6-0.1c-0.2-0.1-0.4-0.2-0.5-0.3c-0.2-0.1-0.3-0.3-0.4-0.6c-0.1-0.2-0.2-0.5-0.3-0.8l0-0.1h-0.1h-0.2h-0.1v0.1v2.2
			v0.1h0.1h0.2h0.1l0-0.1c0.1-0.1,0.1-0.1,0.2-0.1c0,0,0.1,0,0.1,0c0.1,0,0.1,0,0.2,0c0.2,0.1,0.5,0.1,0.7,0.2c0.2,0,0.4,0,0.6,0
			c0.3,0,0.5,0,0.8-0.1c0.3-0.1,0.5-0.2,0.7-0.4c0.2-0.2,0.4-0.4,0.5-0.6c0.1-0.2,0.2-0.5,0.2-0.8c0-0.2,0-0.4-0.1-0.6
			s-0.2-0.4-0.3-0.5c-0.1-0.2-0.3-0.3-0.6-0.5c-0.2-0.2-0.5-0.3-0.9-0.5c-0.4-0.2-0.6-0.3-0.9-0.4c-0.2-0.1-0.4-0.2-0.5-0.3
			c-0.1-0.1-0.2-0.2-0.2-0.3c0-0.1,0-0.2,0-0.3c0-0.1,0-0.2,0.1-0.2c0-0.1,0.1-0.2,0.2-0.2c0.1-0.1,0.2-0.1,0.3-0.2
			c0.1,0,0.2-0.1,0.4-0.1c0.2,0,0.4,0,0.5,0.1c0.2,0,0.3,0.1,0.4,0.3c0.1,0.1,0.2,0.3,0.3,0.5c0.1,0.2,0.2,0.5,0.3,0.8l0,0.1h0.1
			h0.2h0.1v-0.1L233.7,42.3L233.7,42.3L233.7,42.3z"/>
	</g>
</g>
<g id="XMLID_4_">
	<g id="XMLID_20_">
		<polygon id="XMLID_21_" class="st1" points="118.2,28.1 123.5,28.1 123.5,20.9 123.5,16.4 123.5,11 118.2,11 		"/>
	</g>
	<g id="XMLID_16_">
		<path id="XMLID_17_" class="st1" d="M229.3,11h-6.9l-11.6,17.1h6.6l2.2-3.5h12.6l2.2,3.5h6.5L229.3,11z M221.3,21.8l4.3-7.2h0.5
			l4.1,7.2L221.3,21.8z"/>
	</g>
	<g id="XMLID_12_">
		<path id="XMLID_15_" class="st1" d="M110,23.2c0,2.6-3.8,5.4-12.3,5.4c-5.5,0-9.4-1.7-10.5-2.2l2.1-2c0.7,0.4,3.8,1.8,8,1.8
			c3.9,0,5.8-1.1,5.8-3.2c0-1.5-2.5-2-5.7-2.5c-4.1-0.7-9.1-1.6-9.1-5.2c0-2.3,3.8-4.8,10.9-4.8h0.1c5.1,0,8.8,1.5,9.8,2l-1.9,2
			c-0.7-0.3-3.7-1.5-7.5-1.5c-0.3,0-0.7,0-1,0c-3.1,0.2-3.6,1.3-3.6,2.2c0,1.1,1.1,1.7,2.8,2.2c1,0.3,2.1,0.5,3.3,0.7
			C105.4,19,110,19.9,110,23.2z"/>
	</g>
	<g id="XMLID_7_">
		<path id="XMLID_11_" class="st1" d="M147.8,10.5c-9.2,0-16.1,3.9-16.1,9.1c0,5.2,6.9,9.1,16.1,9.1c5.8,0,10-1.7,10.8-2.1v-8.1
			h-11.2v2.4h6v4.6l-0.2,0.1c-0.1,0-2.1,0.6-5,0.6c-6.2,0-9.6-2.5-9.6-6.5c0-4,3.5-6.5,9.6-6.5c3.4,0,6.1,0.9,6.7,1.1l2.1-2
			C156,11.7,152.6,10.5,147.8,10.5z"/>
	</g>
	<g id="XMLID_5_">
		<polygon id="XMLID_6_" class="st1" points="196.2,28.1 202.5,28.1 199.1,11 193.2,11 185,22 184.5,22 184.4,21.9 176.3,11 
			170.3,11 166.9,28.1 173.4,28.1 174.6,16.2 175.1,16.2 175.2,16.3 182.3,25.6 187.2,25.6 194.4,16.2 194.9,16.2 		"/>
	</g>
</g>
</svg>
