<?xml version="1.0" encoding="iso-8859-1"?>
<!-- Generator: Adobe Illustrator 19.0.0, SVG Export Plug-In . SVG Version: 6.00 Build 0)  -->
<svg version="1.1" id="Layer_1" xmlns="http://www.w3.org/2000/svg" xmlns:xlink="http://www.w3.org/1999/xlink" x="0px" y="0px"
	 viewBox="0 0 250 100" style="enable-background:new 0 0 250 100;" xml:space="preserve">
<g id="XMLID_2_">
	<g id="XMLID_79_">
		<path id="XMLID_82_" style="fill:#37B44A;" d="M52.009,51.882l-22.12-10.658L7.325,30.351L6.04,33.017l-1.244,2.581
			c-1.603,3.327-0.206,7.324,3.122,8.927l0.631,0.304l21.502,10.36l22.564,10.872l2.528-5.247c1.603-3.327,0.206-7.324-3.122-8.927
			L52.009,51.882"/>
		<path id="XMLID_81_" style="fill:#37B44A;" d="M13.552,57.913l19.404,9.384L30.42,72.56c-1.603,3.327-5.606,4.721-8.941,3.114l0,0
			L2.075,66.291l2.547-5.285C6.225,57.689,10.226,56.304,13.552,57.913"/>
		<path id="XMLID_80_" style="fill:#37B44A;" d="M38.455,20.751l19.404,9.384l-2.547,5.285c-1.604,3.318-5.605,4.701-8.93,3.092
			l-19.404-9.384l2.547-5.285C31.129,20.526,35.129,19.142,38.455,20.751"/>
	</g>
	<g id="XMLID_3_">
		<g id="XMLID_22_">
			<path id="XMLID_76_" style="fill:#161616;" d="M116.863,77.473v-0.205h0.285c0.317,0,0.544-0.101,0.682-0.304
				c0.082-0.118,0.123-0.391,0.123-0.82v-4.849c0-0.472-0.052-0.766-0.157-0.88c-0.145-0.162-0.362-0.243-0.649-0.243h-0.285v-0.205
				h3.087c1.133,0,1.995,0.127,2.584,0.382c0.593,0.255,1.068,0.679,1.426,1.273c0.361,0.591,0.542,1.277,0.542,2.06
				c0,0.553-0.09,1.063-0.271,1.528c-0.181,0.465-0.449,0.865-0.805,1.198c-0.356,0.334-0.8,0.595-1.331,0.784
				c-0.531,0.188-1.146,0.282-1.843,0.282H116.863z M119.028,76.931c0.466,0.103,0.863,0.155,1.191,0.155
				c0.429,0,0.827-0.078,1.194-0.235c0.367-0.157,0.685-0.38,0.954-0.67c0.268-0.29,0.479-0.641,0.632-1.055s0.229-0.877,0.229-1.39
				c0-0.517-0.075-0.982-0.226-1.395c-0.151-0.413-0.362-0.765-0.632-1.055c-0.27-0.29-0.593-0.512-0.967-0.667
				c-0.375-0.155-0.784-0.233-1.228-0.233c-0.168,0-0.347,0.014-0.537,0.042c-0.19,0.028-0.394,0.067-0.61,0.119V76.931z"/>
			<path id="XMLID_73_" style="fill:#161616;" d="M127.064,72.253v4.074c0,0.163,0.006,0.294,0.017,0.396
				c0.011,0.101,0.028,0.184,0.05,0.246c0.022,0.063,0.051,0.11,0.087,0.141c0.035,0.032,0.075,0.06,0.12,0.086
				c0.097,0.052,0.265,0.078,0.503,0.078v0.199h-2.489v-0.199c0.127,0,0.23-0.006,0.31-0.017c0.08-0.011,0.145-0.029,0.196-0.055
				c0.05-0.026,0.089-0.058,0.117-0.097c0.028-0.039,0.055-0.086,0.081-0.141c0.052-0.115,0.078-0.327,0.078-0.637v-1.954
				c0-0.321-0.006-0.574-0.017-0.758c-0.011-0.184-0.031-0.323-0.059-0.415c-0.028-0.092-0.069-0.151-0.123-0.175
				c-0.054-0.024-0.122-0.036-0.204-0.036c-0.104,0-0.231,0.028-0.38,0.083l-0.078-0.199l1.544-0.62H127.064z M126.599,69.601
				c0.078,0,0.152,0.015,0.221,0.044c0.069,0.03,0.129,0.069,0.179,0.119c0.05,0.05,0.09,0.109,0.12,0.177
				c0.03,0.068,0.045,0.141,0.045,0.218c0,0.078-0.015,0.151-0.045,0.219c-0.03,0.068-0.07,0.128-0.12,0.18
				c-0.05,0.052-0.11,0.092-0.179,0.122c-0.069,0.03-0.143,0.044-0.221,0.044c-0.078,0-0.152-0.015-0.221-0.044
				c-0.069-0.029-0.13-0.07-0.182-0.122c-0.052-0.051-0.093-0.111-0.123-0.18s-0.045-0.141-0.045-0.219
				c0-0.077,0.015-0.15,0.045-0.218s0.07-0.127,0.12-0.177c0.05-0.05,0.111-0.089,0.182-0.119
				C126.447,69.616,126.521,69.601,126.599,69.601z"/>
			<path id="XMLID_69_" style="fill:#161616;" d="M129.849,75.624c-0.317-0.155-0.558-0.366-0.724-0.634s-0.249-0.568-0.249-0.9
				c0-0.251,0.05-0.488,0.151-0.712c0.101-0.223,0.242-0.418,0.425-0.584c0.183-0.166,0.398-0.298,0.646-0.396
				c0.248-0.098,0.521-0.146,0.819-0.146c0.492,0,0.915,0.118,1.269,0.354h1.085c0.082,0,0.144,0.001,0.187,0.003
				c0.043,0.002,0.075,0.006,0.095,0.011c0.02,0.006,0.033,0.012,0.036,0.019c0.004,0.008,0.009,0.017,0.017,0.028
				c0.022,0.033,0.033,0.092,0.033,0.177c0,0.055-0.001,0.101-0.003,0.135c-0.002,0.035-0.013,0.062-0.034,0.081
				s-0.056,0.03-0.106,0.036c-0.05,0.006-0.126,0.008-0.226,0.008h-0.666c0.209,0.27,0.313,0.609,0.313,1.019
				c0,0.233-0.047,0.453-0.142,0.662c-0.095,0.209-0.23,0.39-0.406,0.545c-0.175,0.155-0.388,0.279-0.637,0.371
				c-0.25,0.092-0.528,0.139-0.833,0.139c-0.25,0-0.509-0.037-0.777-0.111c-0.168,0.14-0.28,0.263-0.336,0.368
				s-0.084,0.195-0.084,0.268c0,0.056,0.011,0.103,0.034,0.144c0.022,0.041,0.075,0.075,0.159,0.102
				c0.084,0.028,0.208,0.05,0.372,0.067c0.164,0.017,0.388,0.029,0.671,0.036c0.384,0.011,0.7,0.022,0.948,0.033
				c0.248,0.011,0.43,0.026,0.545,0.044c0.172,0.022,0.328,0.067,0.47,0.133c0.142,0.067,0.262,0.15,0.361,0.249
				c0.099,0.1,0.175,0.214,0.229,0.343c0.054,0.129,0.081,0.269,0.081,0.421c0,0.417-0.198,0.808-0.593,1.173
				c-0.585,0.539-1.344,0.808-2.276,0.808c-0.257,0-0.518-0.028-0.783-0.083c-0.265-0.055-0.505-0.13-0.721-0.224
				c-0.216-0.094-0.393-0.206-0.531-0.335c-0.138-0.129-0.207-0.268-0.207-0.415c0-0.055,0.008-0.112,0.025-0.169
				s0.043-0.118,0.078-0.183c0.035-0.065,0.082-0.135,0.14-0.213c0.058-0.077,0.128-0.168,0.21-0.271
				c0.026-0.033,0.216-0.232,0.57-0.598c-0.194-0.114-0.331-0.217-0.411-0.307c-0.08-0.091-0.12-0.193-0.12-0.307
				c0-0.067,0.009-0.136,0.028-0.208c0.019-0.072,0.059-0.154,0.123-0.246c0.063-0.092,0.154-0.198,0.271-0.316
				C129.494,75.927,129.651,75.786,129.849,75.624z M129.793,77.473c-0.354,0.38-0.531,0.705-0.531,0.974
				c0,0.122,0.051,0.233,0.154,0.332c0.102,0.1,0.241,0.184,0.417,0.255c0.175,0.07,0.381,0.125,0.618,0.163
				c0.237,0.039,0.487,0.058,0.752,0.058c0.335,0,0.627-0.033,0.875-0.1c0.248-0.067,0.452-0.152,0.612-0.258
				c0.16-0.105,0.28-0.223,0.358-0.354c0.078-0.131,0.117-0.261,0.117-0.39c0-0.096-0.021-0.177-0.062-0.243
				s-0.114-0.121-0.221-0.163c-0.106-0.042-0.253-0.076-0.439-0.1c-0.186-0.024-0.425-0.04-0.716-0.047
				c-0.421-0.011-0.792-0.028-1.113-0.05C130.294,77.528,130.02,77.503,129.793,77.473z M130.822,72.519
				c-0.134,0-0.261,0.027-0.38,0.08c-0.119,0.053-0.223,0.135-0.31,0.243c-0.088,0.109-0.157,0.247-0.207,0.415
				c-0.05,0.168-0.075,0.365-0.075,0.59c0,0.251,0.025,0.482,0.075,0.692c0.05,0.21,0.124,0.393,0.221,0.545
				c0.097,0.153,0.214,0.272,0.352,0.357c0.138,0.085,0.294,0.127,0.47,0.127c0.142,0,0.272-0.026,0.391-0.077
				c0.119-0.052,0.222-0.131,0.308-0.238c0.086-0.107,0.153-0.243,0.201-0.407c0.048-0.164,0.073-0.359,0.073-0.584
				c0-0.247-0.025-0.477-0.076-0.689c-0.05-0.212-0.123-0.397-0.218-0.553c-0.095-0.157-0.212-0.28-0.349-0.368
				C131.159,72.563,131.001,72.519,130.822,72.519z"/>
			<path id="XMLID_66_" style="fill:#161616;" d="M135.972,72.253v4.074c0,0.163,0.006,0.294,0.017,0.396
				c0.011,0.101,0.028,0.184,0.05,0.246c0.022,0.063,0.051,0.11,0.087,0.141c0.035,0.032,0.076,0.06,0.12,0.086
				c0.097,0.052,0.265,0.078,0.503,0.078v0.199h-2.489v-0.199c0.127,0,0.23-0.006,0.31-0.017c0.08-0.011,0.145-0.029,0.196-0.055
				c0.05-0.026,0.089-0.058,0.117-0.097c0.028-0.039,0.055-0.086,0.081-0.141c0.052-0.115,0.078-0.327,0.078-0.637v-1.954
				c0-0.321-0.006-0.574-0.017-0.758c-0.011-0.184-0.031-0.323-0.059-0.415c-0.028-0.092-0.069-0.151-0.123-0.175
				c-0.054-0.024-0.122-0.036-0.204-0.036c-0.104,0-0.231,0.028-0.38,0.083l-0.078-0.199l1.544-0.62H135.972z M135.508,69.601
				c0.078,0,0.152,0.015,0.221,0.044c0.069,0.03,0.129,0.069,0.179,0.119c0.05,0.05,0.09,0.109,0.12,0.177
				c0.03,0.068,0.045,0.141,0.045,0.218c0,0.078-0.015,0.151-0.045,0.219c-0.03,0.068-0.07,0.128-0.12,0.18
				c-0.05,0.052-0.11,0.092-0.179,0.122c-0.069,0.03-0.143,0.044-0.221,0.044c-0.078,0-0.152-0.015-0.221-0.044
				c-0.069-0.029-0.13-0.07-0.182-0.122c-0.052-0.051-0.093-0.111-0.123-0.18s-0.045-0.141-0.045-0.219
				c0-0.077,0.015-0.15,0.045-0.218s0.07-0.127,0.12-0.177c0.05-0.05,0.111-0.089,0.182-0.119
				C135.355,69.616,135.43,69.601,135.508,69.601z"/>
			<path id="XMLID_64_" style="fill:#161616;" d="M138.875,70.736v1.666h1.197v0.388h-1.197v3.288c0,0.166,0.013,0.304,0.039,0.412
				c0.026,0.109,0.061,0.195,0.106,0.258c0.045,0.063,0.098,0.106,0.159,0.13c0.061,0.024,0.13,0.036,0.204,0.036
				c0.123,0,0.242-0.038,0.358-0.114c0.116-0.075,0.205-0.187,0.268-0.335h0.218c-0.067,0.181-0.148,0.339-0.243,0.476
				c-0.095,0.136-0.198,0.25-0.31,0.34c-0.112,0.091-0.231,0.159-0.358,0.205c-0.127,0.046-0.253,0.069-0.38,0.069
				c-0.086,0-0.173-0.012-0.26-0.036s-0.17-0.059-0.246-0.105c-0.076-0.046-0.146-0.102-0.21-0.169s-0.114-0.144-0.151-0.233
				c-0.078-0.177-0.117-0.448-0.117-0.814v-3.41h-0.811v-0.183c0.205-0.081,0.415-0.218,0.629-0.412
				c0.214-0.193,0.406-0.423,0.573-0.689c0.041-0.07,0.092-0.169,0.154-0.296c0.061-0.127,0.13-0.285,0.204-0.473H138.875z"/>
			<path id="XMLID_61_" style="fill:#161616;" d="M143.472,76.742c-0.526,0.406-0.856,0.639-0.99,0.698
				c-0.197,0.092-0.412,0.138-0.643,0.138c-0.175,0-0.337-0.032-0.486-0.094c-0.149-0.062-0.278-0.151-0.386-0.266
				c-0.108-0.114-0.193-0.252-0.254-0.412c-0.062-0.16-0.092-0.338-0.092-0.534c0-0.144,0.02-0.277,0.059-0.399
				c0.039-0.122,0.098-0.237,0.176-0.346s0.178-0.213,0.299-0.313c0.121-0.1,0.264-0.198,0.428-0.293
				c0.384-0.225,1.014-0.494,1.89-0.808v-0.199c0-0.255-0.021-0.467-0.064-0.637c-0.043-0.169-0.105-0.305-0.185-0.407
				c-0.08-0.101-0.18-0.174-0.299-0.216s-0.254-0.064-0.403-0.064c-0.119,0-0.226,0.018-0.322,0.053
				c-0.095,0.035-0.176,0.081-0.243,0.138c-0.067,0.057-0.118,0.124-0.154,0.199c-0.035,0.076-0.053,0.152-0.053,0.23l0.011,0.321
				c0,0.17-0.044,0.301-0.131,0.393c-0.088,0.092-0.202,0.138-0.344,0.138c-0.138,0-0.251-0.048-0.338-0.144
				c-0.088-0.096-0.131-0.227-0.131-0.393c0-0.155,0.042-0.308,0.126-0.46c0.084-0.151,0.205-0.288,0.363-0.41
				c0.159-0.122,0.354-0.219,0.587-0.293c0.233-0.074,0.499-0.11,0.797-0.11c0.395,0,0.731,0.057,1.007,0.171
				c0.276,0.115,0.475,0.312,0.598,0.593c0.067,0.162,0.101,0.487,0.101,0.974v1.722c0,0.243,0.003,0.439,0.008,0.587
				c0.006,0.148,0.012,0.249,0.02,0.304c0.019,0.107,0.049,0.179,0.092,0.216c0.043,0.037,0.092,0.056,0.148,0.056
				c0.037,0,0.073-0.006,0.106-0.017c0.033-0.011,0.073-0.033,0.117-0.067c0.045-0.034,0.097-0.078,0.156-0.136
				c0.06-0.057,0.136-0.132,0.229-0.224v0.31c-0.421,0.554-0.82,0.83-1.197,0.83c-0.179,0-0.324-0.063-0.436-0.188
				C143.528,77.259,143.472,77.045,143.472,76.742z M143.472,76.383v-1.932c-0.283,0.11-0.515,0.205-0.696,0.282
				c-0.181,0.077-0.312,0.14-0.394,0.188c-0.295,0.166-0.505,0.337-0.632,0.512c-0.127,0.176-0.19,0.368-0.19,0.578
				c0,0.133,0.021,0.256,0.064,0.368c0.043,0.112,0.1,0.21,0.173,0.293c0.073,0.083,0.158,0.147,0.255,0.193
				c0.097,0.046,0.198,0.069,0.302,0.069C142.637,76.936,143.009,76.752,143.472,76.383z"/>
			<path id="XMLID_59_" style="fill:#161616;" d="M147.414,69.601v6.726c0,0.163,0.006,0.294,0.017,0.396
				c0.011,0.101,0.028,0.183,0.05,0.243c0.023,0.061,0.051,0.108,0.087,0.142c0.035,0.033,0.079,0.063,0.132,0.088
				c0.089,0.052,0.27,0.078,0.542,0.078v0.199h-2.511v-0.199c0.167,0,0.301-0.013,0.4-0.039c0.099-0.025,0.175-0.074,0.229-0.144
				c0.054-0.07,0.089-0.166,0.103-0.288c0.015-0.122,0.023-0.28,0.023-0.476v-4.606c0-0.288-0.003-0.519-0.008-0.695
				c-0.006-0.176-0.016-0.294-0.031-0.357c-0.03-0.133-0.073-0.223-0.129-0.271c-0.056-0.048-0.129-0.072-0.218-0.072
				c-0.1,0-0.224,0.03-0.369,0.089l-0.095-0.194l1.527-0.62H147.414z"/>
			<path id="XMLID_56_" style="fill:#161616;" d="M154.399,77.473v-0.205h0.285c0.317,0,0.544-0.101,0.682-0.304
				c0.082-0.118,0.123-0.391,0.123-0.82v-4.849c0-0.472-0.052-0.766-0.157-0.88c-0.145-0.162-0.361-0.243-0.649-0.243h-0.285v-0.205
				h3.087c1.133,0,1.994,0.127,2.583,0.382c0.593,0.255,1.068,0.679,1.426,1.273c0.361,0.591,0.543,1.277,0.543,2.06
				c0,0.553-0.091,1.063-0.271,1.528c-0.181,0.465-0.45,0.865-0.805,1.198c-0.356,0.334-0.8,0.595-1.331,0.784
				c-0.531,0.188-1.146,0.282-1.842,0.282H154.399z M156.563,76.931c0.466,0.103,0.863,0.155,1.191,0.155
				c0.429,0,0.827-0.078,1.194-0.235c0.367-0.157,0.685-0.38,0.954-0.67c0.268-0.29,0.479-0.641,0.632-1.055
				c0.153-0.413,0.229-0.877,0.229-1.39c0-0.517-0.076-0.982-0.226-1.395c-0.151-0.413-0.361-0.765-0.632-1.055
				c-0.27-0.29-0.593-0.512-0.968-0.667c-0.375-0.155-0.784-0.233-1.227-0.233c-0.168,0-0.347,0.014-0.537,0.042
				c-0.19,0.028-0.393,0.067-0.61,0.119V76.931z"/>
			<path id="XMLID_53_" style="fill:#161616;" d="M163.693,74.312c0,0.377,0.05,0.714,0.151,1.013
				c0.101,0.299,0.237,0.553,0.408,0.761c0.172,0.209,0.37,0.367,0.595,0.476c0.226,0.109,0.463,0.163,0.713,0.163
				c0.335,0,0.627-0.092,0.875-0.274c0.248-0.183,0.456-0.495,0.623-0.938l0.174,0.111c-0.041,0.247-0.119,0.491-0.235,0.731
				s-0.264,0.454-0.444,0.642c-0.181,0.188-0.392,0.341-0.632,0.457c-0.24,0.116-0.502,0.175-0.786,0.175
				c-0.306,0-0.594-0.062-0.864-0.186c-0.27-0.124-0.507-0.299-0.711-0.526c-0.203-0.227-0.364-0.502-0.484-0.825
				c-0.119-0.323-0.179-0.686-0.179-1.088c0-0.439,0.06-0.829,0.182-1.171c0.121-0.341,0.288-0.63,0.501-0.866
				c0.212-0.236,0.463-0.415,0.752-0.537c0.289-0.122,0.599-0.183,0.931-0.183c0.284,0,0.545,0.049,0.786,0.147
				c0.24,0.098,0.448,0.237,0.623,0.418c0.176,0.181,0.312,0.398,0.411,0.65c0.099,0.253,0.148,0.536,0.148,0.85H163.693z
				 M163.693,73.991h2.371c-0.015-0.325-0.054-0.554-0.117-0.687c-0.093-0.207-0.232-0.369-0.417-0.487
				c-0.184-0.118-0.377-0.177-0.578-0.177c-0.153,0-0.3,0.03-0.442,0.091c-0.142,0.061-0.27,0.15-0.385,0.266
				c-0.116,0.116-0.212,0.257-0.288,0.423C163.759,73.587,163.712,73.777,163.693,73.991z"/>
			<path id="XMLID_51_" style="fill:#161616;" d="M169.409,73.327c0.6-0.716,1.172-1.074,1.717-1.074
				c0.19,0,0.365,0.031,0.526,0.094c0.16,0.063,0.3,0.168,0.419,0.316c0.119,0.148,0.213,0.343,0.28,0.587
				c0.067,0.243,0.1,0.548,0.1,0.913v2.164c0,0.218,0.012,0.39,0.036,0.515c0.024,0.126,0.066,0.221,0.126,0.285
				c0.059,0.065,0.14,0.105,0.24,0.122c0.101,0.017,0.227,0.025,0.38,0.025v0.199H170.7v-0.199h0.106c0.168,0,0.3-0.015,0.394-0.044
				c0.095-0.03,0.167-0.08,0.215-0.152c0.049-0.072,0.079-0.169,0.092-0.291c0.013-0.122,0.019-0.275,0.019-0.46v-2.076
				c0-0.461-0.06-0.796-0.182-1.005c-0.121-0.209-0.325-0.313-0.612-0.313c-0.444,0-0.885,0.24-1.325,0.72v2.674
				c0,0.336,0.021,0.548,0.062,0.637c0.026,0.055,0.055,0.103,0.086,0.144c0.032,0.041,0.075,0.073,0.129,0.097
				c0.054,0.024,0.125,0.042,0.212,0.052c0.088,0.011,0.202,0.017,0.344,0.017v0.199h-2.533v-0.199h0.112
				c0.134,0,0.244-0.015,0.33-0.044c0.086-0.03,0.154-0.081,0.204-0.155c0.05-0.074,0.085-0.171,0.103-0.291
				c0.019-0.12,0.028-0.272,0.028-0.457v-1.882c0-0.602-0.015-0.972-0.045-1.113c-0.026-0.133-0.068-0.224-0.126-0.271
				c-0.058-0.048-0.135-0.072-0.232-0.072c-0.104,0-0.229,0.028-0.375,0.083l-0.084-0.199l1.544-0.62h0.24V73.327z"/>
			<path id="XMLID_49_" style="fill:#161616;" d="M175.13,70.736v1.666h1.197v0.388h-1.197v3.288c0,0.166,0.013,0.304,0.039,0.412
				c0.026,0.109,0.062,0.195,0.107,0.258c0.044,0.063,0.098,0.106,0.159,0.13c0.062,0.024,0.13,0.036,0.204,0.036
				c0.123,0,0.243-0.038,0.358-0.114c0.115-0.075,0.205-0.187,0.268-0.335h0.218c-0.067,0.181-0.148,0.339-0.243,0.476
				c-0.095,0.136-0.199,0.25-0.31,0.34c-0.112,0.091-0.231,0.159-0.358,0.205c-0.127,0.046-0.254,0.069-0.38,0.069
				c-0.086,0-0.173-0.012-0.26-0.036c-0.088-0.024-0.17-0.059-0.246-0.105s-0.146-0.102-0.209-0.169
				c-0.064-0.067-0.114-0.144-0.151-0.233c-0.078-0.177-0.117-0.448-0.117-0.814v-3.41h-0.811v-0.183
				c0.205-0.081,0.415-0.218,0.629-0.412c0.215-0.193,0.406-0.423,0.573-0.689c0.041-0.07,0.092-0.169,0.154-0.296
				c0.062-0.127,0.13-0.285,0.204-0.473H175.13z"/>
			<path id="XMLID_46_" style="fill:#161616;" d="M179.727,76.742c-0.526,0.406-0.855,0.639-0.99,0.698
				c-0.198,0.092-0.412,0.138-0.643,0.138c-0.175,0-0.337-0.032-0.486-0.094c-0.149-0.062-0.278-0.151-0.386-0.266
				c-0.108-0.114-0.193-0.252-0.254-0.412c-0.062-0.16-0.092-0.338-0.092-0.534c0-0.144,0.02-0.277,0.059-0.399
				c0.039-0.122,0.098-0.237,0.176-0.346s0.178-0.213,0.299-0.313c0.121-0.1,0.264-0.198,0.428-0.293
				c0.384-0.225,1.014-0.494,1.89-0.808v-0.199c0-0.255-0.021-0.467-0.064-0.637c-0.043-0.169-0.105-0.305-0.184-0.407
				c-0.08-0.101-0.18-0.174-0.299-0.216c-0.119-0.042-0.254-0.064-0.403-0.064c-0.119,0-0.226,0.018-0.321,0.053
				c-0.095,0.035-0.176,0.081-0.243,0.138s-0.118,0.124-0.154,0.199c-0.035,0.076-0.053,0.152-0.053,0.23l0.011,0.321
				c0,0.17-0.044,0.301-0.131,0.393c-0.088,0.092-0.202,0.138-0.344,0.138c-0.138,0-0.251-0.048-0.338-0.144
				c-0.088-0.096-0.132-0.227-0.132-0.393c0-0.155,0.042-0.308,0.126-0.46c0.084-0.151,0.205-0.288,0.363-0.41
				c0.159-0.122,0.354-0.219,0.587-0.293c0.233-0.074,0.498-0.11,0.797-0.11c0.395,0,0.73,0.057,1.006,0.171
				c0.276,0.115,0.476,0.312,0.598,0.593c0.067,0.162,0.101,0.487,0.101,0.974v1.722c0,0.243,0.003,0.439,0.008,0.587
				c0.005,0.148,0.012,0.249,0.019,0.304c0.019,0.107,0.05,0.179,0.092,0.216c0.042,0.037,0.092,0.056,0.148,0.056
				c0.037,0,0.073-0.006,0.106-0.017c0.034-0.011,0.073-0.033,0.117-0.067c0.045-0.034,0.097-0.078,0.157-0.136
				c0.059-0.057,0.136-0.132,0.229-0.224v0.31c-0.421,0.554-0.821,0.83-1.197,0.83c-0.179,0-0.324-0.063-0.436-0.188
				C179.783,77.259,179.727,77.045,179.727,76.742z M179.727,76.383v-1.932c-0.283,0.11-0.515,0.205-0.696,0.282
				c-0.181,0.077-0.312,0.14-0.394,0.188c-0.294,0.166-0.505,0.337-0.632,0.512c-0.126,0.176-0.19,0.368-0.19,0.578
				c0,0.133,0.022,0.256,0.065,0.368c0.043,0.112,0.1,0.21,0.173,0.293s0.158,0.147,0.255,0.193
				c0.097,0.046,0.197,0.069,0.302,0.069C178.892,76.936,179.264,76.752,179.727,76.383z"/>
			<path id="XMLID_44_" style="fill:#161616;" d="M183.669,69.601v6.726c0,0.163,0.006,0.294,0.017,0.396
				c0.011,0.101,0.028,0.183,0.05,0.243c0.023,0.061,0.051,0.108,0.087,0.142c0.035,0.033,0.079,0.063,0.132,0.088
				c0.089,0.052,0.27,0.078,0.542,0.078v0.199h-2.511v-0.199c0.167,0,0.301-0.013,0.4-0.039c0.099-0.025,0.175-0.074,0.229-0.144
				c0.054-0.07,0.089-0.166,0.103-0.288c0.015-0.122,0.023-0.28,0.023-0.476v-4.606c0-0.288-0.003-0.519-0.008-0.695
				c-0.006-0.176-0.016-0.294-0.031-0.357c-0.03-0.133-0.073-0.223-0.129-0.271c-0.056-0.048-0.129-0.072-0.218-0.072
				c-0.101,0-0.224,0.03-0.369,0.089l-0.095-0.194l1.527-0.62H183.669z"/>
			<path id="XMLID_42_" style="fill:#161616;" d="M195.71,69.795v2.596h-0.207c-0.067-0.498-0.188-0.895-0.363-1.19
				c-0.086-0.148-0.193-0.28-0.322-0.399c-0.128-0.118-0.268-0.218-0.419-0.301c-0.151-0.083-0.311-0.148-0.481-0.194
				c-0.17-0.046-0.34-0.069-0.512-0.069c-0.19,0-0.367,0.032-0.531,0.097c-0.164,0.065-0.307,0.151-0.427,0.258
				c-0.121,0.107-0.216,0.23-0.283,0.368s-0.1,0.281-0.1,0.429c0,0.207,0.048,0.387,0.145,0.54c0.097,0.153,0.23,0.294,0.4,0.424
				c0.17,0.129,0.369,0.254,0.599,0.377c0.229,0.122,0.478,0.252,0.746,0.393c0.302,0.159,0.589,0.314,0.861,0.465
				c0.272,0.151,0.512,0.318,0.719,0.501c0.207,0.183,0.372,0.391,0.495,0.626c0.123,0.234,0.184,0.516,0.184,0.844
				c0,0.281-0.059,0.547-0.176,0.8c-0.117,0.253-0.282,0.474-0.492,0.664c-0.211,0.19-0.462,0.341-0.755,0.454
				c-0.293,0.112-0.614,0.169-0.965,0.169c-0.13,0-0.242-0.002-0.335-0.006c-0.093-0.004-0.183-0.012-0.268-0.025
				c-0.086-0.013-0.174-0.033-0.266-0.061c-0.091-0.028-0.201-0.066-0.327-0.113c-0.09-0.034-0.181-0.064-0.274-0.092
				c-0.093-0.028-0.179-0.05-0.257-0.069c-0.078-0.018-0.144-0.033-0.199-0.044c-0.054-0.011-0.089-0.017-0.103-0.017
				c-0.093,0-0.167,0.028-0.221,0.083c-0.054,0.056-0.094,0.17-0.12,0.343h-0.207v-2.574h0.207c0.048,0.269,0.105,0.505,0.17,0.706
				s0.139,0.37,0.221,0.506c0.082,0.133,0.188,0.257,0.319,0.371c0.131,0.115,0.277,0.213,0.439,0.296
				c0.162,0.083,0.337,0.148,0.526,0.194c0.188,0.046,0.381,0.069,0.578,0.069c0.235,0,0.446-0.034,0.632-0.1
				c0.186-0.066,0.345-0.156,0.475-0.268c0.131-0.112,0.23-0.243,0.299-0.393c0.069-0.15,0.104-0.305,0.104-0.468
				c0-0.24-0.05-0.442-0.151-0.606c-0.101-0.164-0.236-0.311-0.406-0.44c-0.169-0.129-0.367-0.253-0.593-0.371
				c-0.226-0.118-0.463-0.251-0.713-0.399c-0.284-0.166-0.557-0.324-0.82-0.473s-0.495-0.314-0.696-0.493
				c-0.201-0.179-0.363-0.383-0.484-0.612s-0.182-0.502-0.182-0.819c0-0.266,0.056-0.519,0.168-0.759
				c0.112-0.24,0.267-0.45,0.464-0.631c0.198-0.181,0.432-0.324,0.702-0.429s0.566-0.158,0.887-0.158
				c0.395,0,0.822,0.098,1.281,0.293c0.201,0.092,0.349,0.138,0.442,0.138c0.097,0,0.176-0.028,0.238-0.086
				c0.061-0.057,0.111-0.172,0.148-0.346H195.71z"/>
			<path id="XMLID_39_" style="fill:#161616;" d="M199.692,72.253c0.361,0,0.693,0.07,0.995,0.21
				c0.302,0.141,0.562,0.329,0.78,0.565c0.218,0.236,0.388,0.511,0.509,0.825c0.121,0.314,0.182,0.645,0.182,0.991
				c0,0.365-0.063,0.715-0.187,1.049c-0.125,0.334-0.3,0.63-0.523,0.888c-0.224,0.259-0.49,0.464-0.8,0.618
				c-0.31,0.153-0.649,0.23-1.018,0.23c-0.361,0-0.691-0.074-0.987-0.222c-0.296-0.148-0.551-0.344-0.763-0.589
				c-0.212-0.246-0.377-0.527-0.492-0.845c-0.116-0.317-0.173-0.645-0.173-0.985c0-0.343,0.059-0.679,0.179-1.008
				c0.119-0.328,0.288-0.621,0.506-0.877c0.218-0.257,0.479-0.462,0.783-0.618C198.986,72.33,199.322,72.253,199.692,72.253z
				 M199.518,72.612c-0.164,0-0.321,0.034-0.472,0.102c-0.151,0.068-0.285,0.179-0.403,0.332c-0.117,0.153-0.211,0.351-0.282,0.593
				c-0.071,0.242-0.107,0.536-0.107,0.883c0,0.358,0.038,0.701,0.115,1.03c0.076,0.328,0.185,0.617,0.325,0.866
				s0.31,0.447,0.509,0.595c0.2,0.148,0.422,0.221,0.669,0.221c0.179,0,0.344-0.034,0.495-0.102
				c0.151-0.068,0.282-0.179,0.394-0.332c0.112-0.153,0.2-0.355,0.263-0.606c0.063-0.251,0.095-0.559,0.095-0.925
				c0-0.365-0.035-0.709-0.106-1.03c-0.071-0.321-0.175-0.603-0.31-0.845c-0.136-0.242-0.304-0.433-0.503-0.573
				C199.998,72.683,199.771,72.612,199.518,72.612z"/>
			<path id="XMLID_37_" style="fill:#161616;" d="M204.674,69.601v6.726c0,0.163,0.006,0.294,0.017,0.396
				c0.011,0.101,0.028,0.183,0.05,0.243c0.023,0.061,0.051,0.108,0.087,0.142c0.035,0.033,0.079,0.063,0.132,0.088
				c0.089,0.052,0.27,0.078,0.542,0.078v0.199h-2.511v-0.199c0.167,0,0.301-0.013,0.4-0.039c0.099-0.025,0.175-0.074,0.229-0.144
				c0.054-0.07,0.089-0.166,0.103-0.288c0.015-0.122,0.023-0.28,0.023-0.476v-4.606c0-0.288-0.003-0.519-0.008-0.695
				c-0.006-0.176-0.016-0.294-0.031-0.357c-0.03-0.133-0.073-0.223-0.129-0.271c-0.056-0.048-0.129-0.072-0.218-0.072
				c-0.101,0-0.224,0.03-0.369,0.089l-0.095-0.194l1.527-0.62H204.674z"/>
			<path id="XMLID_35_" style="fill:#161616;" d="M210.585,72.402v3.073c0,0.594,0.013,0.954,0.039,1.08
				c0.03,0.129,0.075,0.22,0.137,0.271c0.061,0.052,0.133,0.077,0.215,0.077c0.112,0,0.243-0.031,0.392-0.094l0.078,0.194
				l-1.532,0.626h-0.251v-1.074c-0.444,0.473-0.779,0.77-1.007,0.891c-0.231,0.122-0.475,0.183-0.733,0.183
				c-0.287,0-0.535-0.081-0.744-0.241c-0.209-0.16-0.356-0.374-0.442-0.639c-0.082-0.255-0.123-0.62-0.123-1.096v-2.264
				c0-0.166-0.014-0.301-0.042-0.404s-0.074-0.183-0.137-0.238c-0.064-0.056-0.147-0.092-0.249-0.111s-0.226-0.028-0.372-0.028
				h-0.067v-0.205h1.795v3.394c0,0.243,0.024,0.441,0.07,0.592c0.046,0.151,0.109,0.268,0.187,0.352s0.168,0.139,0.271,0.166
				c0.103,0.028,0.21,0.042,0.322,0.042c0.078,0,0.163-0.011,0.254-0.033c0.092-0.022,0.188-0.061,0.291-0.116
				c0.102-0.056,0.213-0.129,0.333-0.222c0.119-0.092,0.25-0.209,0.392-0.349v-2.873c0-0.144-0.011-0.263-0.034-0.357
				c-0.022-0.094-0.064-0.17-0.126-0.227c-0.062-0.058-0.145-0.098-0.252-0.122c-0.106-0.024-0.243-0.038-0.411-0.042v-0.205
				H210.585z"/>
			<path id="XMLID_33_" style="fill:#161616;" d="M213.309,70.736v1.666h1.197v0.388h-1.197v3.288c0,0.166,0.013,0.304,0.039,0.412
				c0.026,0.109,0.062,0.195,0.107,0.258c0.044,0.063,0.098,0.106,0.159,0.13c0.062,0.024,0.13,0.036,0.204,0.036
				c0.123,0,0.243-0.038,0.358-0.114c0.115-0.075,0.205-0.187,0.268-0.335h0.218c-0.067,0.181-0.148,0.339-0.243,0.476
				c-0.095,0.136-0.199,0.25-0.31,0.34c-0.112,0.091-0.231,0.159-0.358,0.205c-0.127,0.046-0.254,0.069-0.38,0.069
				c-0.086,0-0.173-0.012-0.26-0.036c-0.088-0.024-0.17-0.059-0.246-0.105c-0.076-0.046-0.146-0.102-0.209-0.169
				c-0.064-0.067-0.114-0.144-0.151-0.233c-0.078-0.177-0.117-0.448-0.117-0.814v-3.41h-0.811v-0.183
				c0.205-0.081,0.415-0.218,0.629-0.412c0.215-0.193,0.406-0.423,0.573-0.689c0.041-0.07,0.092-0.169,0.154-0.296
				c0.062-0.127,0.13-0.285,0.204-0.473H213.309z"/>
			<path id="XMLID_30_" style="fill:#161616;" d="M216.771,72.253v4.074c0,0.163,0.006,0.294,0.017,0.396
				c0.011,0.101,0.028,0.184,0.05,0.246c0.023,0.063,0.051,0.11,0.087,0.141c0.035,0.032,0.075,0.06,0.12,0.086
				c0.097,0.052,0.265,0.078,0.503,0.078v0.199h-2.489v-0.199c0.127,0,0.23-0.006,0.31-0.017c0.08-0.011,0.145-0.029,0.196-0.055
				c0.05-0.026,0.089-0.058,0.117-0.097c0.028-0.039,0.055-0.086,0.081-0.141c0.052-0.115,0.078-0.327,0.078-0.637v-1.954
				c0-0.321-0.005-0.574-0.017-0.758c-0.011-0.184-0.031-0.323-0.059-0.415c-0.028-0.092-0.069-0.151-0.123-0.175
				c-0.054-0.024-0.122-0.036-0.204-0.036c-0.104,0-0.231,0.028-0.38,0.083l-0.078-0.199l1.544-0.62H216.771z M216.306,69.601
				c0.078,0,0.152,0.015,0.221,0.044c0.069,0.03,0.129,0.069,0.179,0.119c0.05,0.05,0.09,0.109,0.12,0.177
				c0.03,0.068,0.044,0.141,0.044,0.218c0,0.078-0.015,0.151-0.044,0.219c-0.03,0.068-0.07,0.128-0.12,0.18
				c-0.05,0.052-0.11,0.092-0.179,0.122c-0.069,0.03-0.142,0.044-0.221,0.044s-0.152-0.015-0.221-0.044
				c-0.069-0.029-0.13-0.07-0.182-0.122c-0.052-0.051-0.093-0.111-0.123-0.18c-0.03-0.068-0.045-0.141-0.045-0.219
				c0-0.077,0.015-0.15,0.045-0.218c0.03-0.068,0.07-0.127,0.12-0.177c0.05-0.05,0.111-0.089,0.182-0.119
				C216.153,69.616,216.228,69.601,216.306,69.601z"/>
			<path id="XMLID_27_" style="fill:#161616;" d="M220.691,72.253c0.361,0,0.693,0.07,0.995,0.21
				c0.302,0.141,0.562,0.329,0.78,0.565c0.218,0.236,0.388,0.511,0.509,0.825c0.121,0.314,0.182,0.645,0.182,0.991
				c0,0.365-0.063,0.715-0.187,1.049c-0.125,0.334-0.3,0.63-0.523,0.888c-0.224,0.259-0.49,0.464-0.8,0.618
				c-0.31,0.153-0.649,0.23-1.018,0.23c-0.361,0-0.691-0.074-0.987-0.222s-0.551-0.344-0.763-0.589
				c-0.212-0.246-0.377-0.527-0.492-0.845c-0.116-0.317-0.173-0.645-0.173-0.985c0-0.343,0.059-0.679,0.179-1.008
				c0.119-0.328,0.288-0.621,0.506-0.877c0.218-0.257,0.479-0.462,0.783-0.618C219.985,72.33,220.322,72.253,220.691,72.253z
				 M220.517,72.612c-0.164,0-0.321,0.034-0.472,0.102c-0.151,0.068-0.285,0.179-0.403,0.332c-0.117,0.153-0.211,0.351-0.282,0.593
				c-0.071,0.242-0.107,0.536-0.107,0.883c0,0.358,0.038,0.701,0.115,1.03c0.076,0.328,0.185,0.617,0.325,0.866
				c0.14,0.249,0.31,0.447,0.509,0.595c0.2,0.148,0.422,0.221,0.669,0.221c0.179,0,0.344-0.034,0.495-0.102
				c0.151-0.068,0.282-0.179,0.394-0.332c0.112-0.153,0.2-0.355,0.263-0.606c0.063-0.251,0.095-0.559,0.095-0.925
				c0-0.365-0.035-0.709-0.106-1.03c-0.071-0.321-0.175-0.603-0.31-0.845c-0.136-0.242-0.304-0.433-0.503-0.573
				C220.997,72.683,220.771,72.612,220.517,72.612z"/>
			<path id="XMLID_25_" style="fill:#161616;" d="M225.405,73.327c0.6-0.716,1.172-1.074,1.717-1.074
				c0.19,0,0.365,0.031,0.526,0.094s0.3,0.168,0.419,0.316s0.213,0.343,0.28,0.587c0.067,0.243,0.101,0.548,0.101,0.913v2.164
				c0,0.218,0.012,0.39,0.036,0.515c0.024,0.126,0.066,0.221,0.126,0.285c0.059,0.065,0.14,0.105,0.24,0.122
				c0.101,0.017,0.227,0.025,0.38,0.025v0.199h-2.533v-0.199h0.106c0.168,0,0.3-0.015,0.394-0.044
				c0.095-0.03,0.167-0.08,0.215-0.152c0.049-0.072,0.079-0.169,0.092-0.291c0.013-0.122,0.019-0.275,0.019-0.46v-2.076
				c0-0.461-0.06-0.796-0.182-1.005c-0.121-0.209-0.325-0.313-0.612-0.313c-0.444,0-0.885,0.24-1.325,0.72v2.674
				c0,0.336,0.021,0.548,0.062,0.637c0.026,0.055,0.055,0.103,0.086,0.144c0.032,0.041,0.075,0.073,0.129,0.097
				c0.054,0.024,0.125,0.042,0.212,0.052c0.088,0.011,0.202,0.017,0.344,0.017v0.199h-2.533v-0.199h0.112
				c0.134,0,0.244-0.015,0.33-0.044c0.086-0.03,0.154-0.081,0.204-0.155c0.05-0.074,0.085-0.171,0.103-0.291
				c0.019-0.12,0.028-0.272,0.028-0.457v-1.882c0-0.602-0.015-0.972-0.045-1.113c-0.026-0.133-0.068-0.224-0.126-0.271
				c-0.058-0.048-0.135-0.072-0.232-0.072c-0.104,0-0.229,0.028-0.375,0.083l-0.084-0.199l1.544-0.62h0.24V73.327z"/>
			<path id="XMLID_23_" style="fill:#161616;" d="M232.949,72.253v1.727h-0.184c-0.071-0.273-0.151-0.499-0.24-0.678
				c-0.09-0.179-0.191-0.322-0.305-0.429c-0.114-0.107-0.241-0.183-0.38-0.227c-0.14-0.044-0.296-0.067-0.467-0.067
				c-0.131,0-0.249,0.019-0.355,0.058c-0.106,0.039-0.198,0.089-0.274,0.15c-0.076,0.061-0.136,0.131-0.179,0.21
				c-0.043,0.079-0.064,0.159-0.064,0.241c0,0.103,0.015,0.199,0.045,0.288c0.03,0.089,0.092,0.18,0.187,0.274
				c0.095,0.094,0.231,0.195,0.408,0.301c0.177,0.107,0.415,0.233,0.713,0.377c0.276,0.133,0.508,0.264,0.696,0.393
				c0.188,0.129,0.341,0.259,0.459,0.388c0.117,0.129,0.201,0.263,0.251,0.401c0.05,0.139,0.075,0.282,0.075,0.429
				c0,0.232-0.05,0.444-0.148,0.634c-0.099,0.19-0.228,0.352-0.389,0.485c-0.16,0.133-0.343,0.236-0.548,0.31
				c-0.205,0.074-0.414,0.111-0.627,0.111c-0.157,0-0.324-0.013-0.503-0.039c-0.179-0.025-0.369-0.068-0.57-0.127
				c-0.064-0.019-0.119-0.033-0.168-0.042c-0.049-0.009-0.093-0.014-0.134-0.014c-0.082,0-0.15,0.048-0.201,0.144h-0.184v-1.81
				h0.184c0.052,0.259,0.13,0.486,0.235,0.681c0.104,0.195,0.226,0.358,0.366,0.487s0.294,0.227,0.464,0.293
				c0.169,0.067,0.344,0.1,0.523,0.1c0.127,0,0.243-0.02,0.35-0.061c0.106-0.041,0.199-0.095,0.276-0.163
				c0.078-0.068,0.139-0.149,0.182-0.241c0.042-0.092,0.064-0.192,0.064-0.299c0-0.126-0.019-0.239-0.056-0.341
				c-0.037-0.101-0.106-0.2-0.207-0.296c-0.1-0.096-0.239-0.197-0.414-0.302c-0.176-0.105-0.401-0.226-0.677-0.362
				c-0.276-0.133-0.499-0.257-0.669-0.371c-0.169-0.115-0.303-0.23-0.4-0.346c-0.097-0.116-0.162-0.238-0.196-0.365
				c-0.033-0.127-0.05-0.272-0.05-0.435c0-0.207,0.038-0.4,0.115-0.578c0.076-0.179,0.184-0.334,0.322-0.465
				c0.138-0.131,0.302-0.234,0.492-0.31c0.19-0.075,0.399-0.113,0.626-0.113c0.071,0,0.162,0.011,0.274,0.033
				c0.112,0.022,0.225,0.046,0.338,0.072c0.114,0.026,0.217,0.05,0.31,0.072c0.093,0.022,0.157,0.033,0.19,0.033
				c0.059,0,0.106-0.013,0.14-0.039c0.033-0.025,0.073-0.083,0.117-0.171H232.949z"/>
		</g>
		<g id="XMLID_4_">
			<g id="XMLID_20_">
				<polygon id="XMLID_21_" style="fill:#161616;" points="131.576,58.34 136.567,58.34 136.567,51.492 136.567,47.144 
					136.567,42.054 131.576,42.054 				"/>
			</g>
			<g id="XMLID_16_">
				<path id="XMLID_17_" style="fill:#161616;" d="M237.245,42.054h-6.586L219.648,58.34h6.259l2.091-3.354h12.008l2.062,3.354
					h6.188L237.245,42.054z M229.673,52.358l4.139-6.872h0.471l3.949,6.898L229.673,52.358z"/>
			</g>
			<g id="XMLID_12_">
				<path id="XMLID_15_" style="fill:#161616;" d="M123.739,53.671c0,2.479-3.657,5.15-11.682,5.15
					c-5.247,0-8.924-1.594-9.953-2.097l1.981-1.918c0.705,0.367,3.619,1.739,7.581,1.739c3.72,0,5.527-1.005,5.527-3.078
					c0-1.435-2.382-1.86-5.392-2.396c-3.875-0.696-8.692-1.556-8.692-4.947c0-2.194,3.648-4.527,10.421-4.546h0.087
					c4.836,0,8.368,1.416,9.373,1.87l-1.807,1.908c-0.696-0.295-3.537-1.387-7.175-1.387c-0.333,0-0.638,0.01-0.918,0.024
					c-2.986,0.174-3.392,1.213-3.392,2.131c0,1.034,1.063,1.628,2.623,2.073c0.913,0.266,2,0.478,3.14,0.705
					C119.342,49.665,123.739,50.53,123.739,53.671z"/>
			</g>
			<g id="XMLID_7_">
				<path id="XMLID_11_" style="fill:#161616;" d="M159.72,41.575c-8.732,0-15.317,3.706-15.317,8.62
					c0,4.916,6.585,8.623,15.317,8.623c5.519,0,9.538-1.653,10.315-1.997V49.12h-10.66v2.274h5.669v4.37l-0.171,0.052
					c-0.081,0.025-2.02,0.611-4.761,0.611c-5.878,0-9.162-2.388-9.162-6.232c0-3.842,3.284-6.229,9.162-6.229
					c3.216,0,5.761,0.82,6.39,1.042l1.977-1.917C167.489,42.694,164.299,41.575,159.72,41.575z"/>
			</g>
			<g id="XMLID_5_">
				<polygon id="XMLID_6_" style="fill:#161616;" points="205.773,58.34 211.811,58.34 208.582,42.054 202.919,42.054 
					195.098,52.474 194.662,52.474 194.589,52.377 186.84,42.054 181.101,42.054 177.872,58.34 184.042,58.34 185.18,46.962 
					185.713,46.962 185.785,47.057 192.555,55.944 197.204,55.944 204.046,46.962 204.576,46.962 				"/>
			</g>
		</g>
	</g>
</g>
</svg>
