<?xml version="1.0" encoding="iso-8859-1"?>
<!-- Generator: Adobe Illustrator 19.0.0, SVG Export Plug-In . SVG Version: 6.00 Build 0)  -->
<svg version="1.1" id="Layer_1" xmlns="http://www.w3.org/2000/svg" xmlns:xlink="http://www.w3.org/1999/xlink" x="0px" y="0px"
	 viewBox="0 0 243.859 245.947" style="enable-background:new 0 0 243.859 245.947;" xml:space="preserve">
<path id="XMLID_122_" style="fill:#39B34A;" d="M36.834,51.591l-13.884-6.69l-5.615,11.654l-5.436,11.282
	C4.89,82.381,11,99.852,25.544,106.86l2.757,1.328l93.994,45.29l98.639,47.529l11.051-22.935
	c7.008-14.544,0.899-32.016-13.646-39.024l-0.053-0.025"/>
<path id="XMLID_119_" style="fill:#39B34A;" d="M50.171,165.386l84.824,41.021l-11.087,23.009
	c-7.007,14.543-24.506,20.638-39.084,13.613l0,0L0,202.008l11.132-23.104C18.145,164.405,35.633,158.354,50.171,165.386"/>
<path id="XMLID_116_" style="fill:#39B34A;" d="M159.034,2.932l84.824,41.021l-11.132,23.104
	c-7.012,14.502-24.501,20.55-39.039,13.518l-84.824-41.021l11.132-23.104C127.008,1.951,144.497-4.1,159.034,2.932"/>
</svg>
